%TF.GenerationSoftware,KiCad,Pcbnew,8.0.6*%
%TF.CreationDate,2024-12-26T00:35:44-06:00*%
%TF.ProjectId,KiCAD_MCPtest,4b694341-445f-44d4-9350-746573742e6b,rev?*%
%TF.SameCoordinates,Original*%
%TF.FileFunction,Soldermask,Top*%
%TF.FilePolarity,Negative*%
%FSLAX46Y46*%
G04 Gerber Fmt 4.6, Leading zero omitted, Abs format (unit mm)*
G04 Created by KiCad (PCBNEW 8.0.6) date 2024-12-26 00:35:44*
%MOMM*%
%LPD*%
G01*
G04 APERTURE LIST*
G04 Aperture macros list*
%AMRoundRect*
0 Rectangle with rounded corners*
0 $1 Rounding radius*
0 $2 $3 $4 $5 $6 $7 $8 $9 X,Y pos of 4 corners*
0 Add a 4 corners polygon primitive as box body*
4,1,4,$2,$3,$4,$5,$6,$7,$8,$9,$2,$3,0*
0 Add four circle primitives for the rounded corners*
1,1,$1+$1,$2,$3*
1,1,$1+$1,$4,$5*
1,1,$1+$1,$6,$7*
1,1,$1+$1,$8,$9*
0 Add four rect primitives between the rounded corners*
20,1,$1+$1,$2,$3,$4,$5,0*
20,1,$1+$1,$4,$5,$6,$7,0*
20,1,$1+$1,$6,$7,$8,$9,0*
20,1,$1+$1,$8,$9,$2,$3,0*%
G04 Aperture macros list end*
%ADD10RoundRect,0.135000X0.185000X-0.135000X0.185000X0.135000X-0.185000X0.135000X-0.185000X-0.135000X0*%
%ADD11RoundRect,0.225000X0.250000X-0.225000X0.250000X0.225000X-0.250000X0.225000X-0.250000X-0.225000X0*%
%ADD12RoundRect,0.140000X0.140000X0.170000X-0.140000X0.170000X-0.140000X-0.170000X0.140000X-0.170000X0*%
%ADD13RoundRect,0.225000X-0.250000X0.225000X-0.250000X-0.225000X0.250000X-0.225000X0.250000X0.225000X0*%
%ADD14R,1.200000X1.400000*%
%ADD15RoundRect,0.135000X-0.185000X0.135000X-0.185000X-0.135000X0.185000X-0.135000X0.185000X0.135000X0*%
%ADD16RoundRect,0.218750X0.256250X-0.218750X0.256250X0.218750X-0.256250X0.218750X-0.256250X-0.218750X0*%
%ADD17C,0.900000*%
%ADD18C,8.600000*%
%ADD19RoundRect,0.140000X-0.140000X-0.170000X0.140000X-0.170000X0.140000X0.170000X-0.140000X0.170000X0*%
%ADD20RoundRect,0.200000X-0.275000X0.200000X-0.275000X-0.200000X0.275000X-0.200000X0.275000X0.200000X0*%
%ADD21RoundRect,0.140000X-0.170000X0.140000X-0.170000X-0.140000X0.170000X-0.140000X0.170000X0.140000X0*%
%ADD22RoundRect,0.250000X-0.325000X-0.650000X0.325000X-0.650000X0.325000X0.650000X-0.325000X0.650000X0*%
%ADD23RoundRect,0.150000X0.150000X-0.825000X0.150000X0.825000X-0.150000X0.825000X-0.150000X-0.825000X0*%
%ADD24RoundRect,0.140000X0.170000X-0.140000X0.170000X0.140000X-0.170000X0.140000X-0.170000X-0.140000X0*%
%ADD25RoundRect,0.135000X-0.135000X-0.185000X0.135000X-0.185000X0.135000X0.185000X-0.135000X0.185000X0*%
%ADD26RoundRect,0.147500X0.172500X-0.147500X0.172500X0.147500X-0.172500X0.147500X-0.172500X-0.147500X0*%
%ADD27RoundRect,0.135000X0.135000X0.185000X-0.135000X0.185000X-0.135000X-0.185000X0.135000X-0.185000X0*%
%ADD28RoundRect,0.200000X0.275000X-0.200000X0.275000X0.200000X-0.275000X0.200000X-0.275000X-0.200000X0*%
%ADD29R,1.700000X1.700000*%
%ADD30O,1.700000X1.700000*%
%ADD31R,3.500000X2.350000*%
%ADD32RoundRect,0.225000X-0.225000X-0.375000X0.225000X-0.375000X0.225000X0.375000X-0.225000X0.375000X0*%
%ADD33RoundRect,0.218750X-0.256250X0.218750X-0.256250X-0.218750X0.256250X-0.218750X0.256250X0.218750X0*%
%ADD34C,0.650000*%
%ADD35R,0.600000X1.450000*%
%ADD36R,0.300000X1.450000*%
%ADD37O,1.000000X2.100000*%
%ADD38O,1.000000X1.600000*%
%ADD39RoundRect,0.150000X0.150000X-0.512500X0.150000X0.512500X-0.150000X0.512500X-0.150000X-0.512500X0*%
%ADD40R,1.700000X1.000000*%
%ADD41RoundRect,0.075000X-0.662500X-0.075000X0.662500X-0.075000X0.662500X0.075000X-0.662500X0.075000X0*%
%ADD42RoundRect,0.075000X-0.075000X-0.662500X0.075000X-0.662500X0.075000X0.662500X-0.075000X0.662500X0*%
G04 APERTURE END LIST*
D10*
%TO.C,R16*%
X141000000Y-78000000D03*
X141000000Y-76980000D03*
%TD*%
D11*
%TO.C,C14*%
X136000000Y-65775000D03*
X136000000Y-64225000D03*
%TD*%
D12*
%TO.C,C27*%
X143980000Y-61000000D03*
X143020000Y-61000000D03*
%TD*%
D13*
%TO.C,C13*%
X141500000Y-91000000D03*
X141500000Y-92550000D03*
%TD*%
D14*
%TO.C,Y1*%
X111150000Y-69400000D03*
X111150000Y-71600000D03*
X112850000Y-71600000D03*
X112850000Y-69400000D03*
%TD*%
D15*
%TO.C,R11*%
X146500000Y-46980000D03*
X146500000Y-48000000D03*
%TD*%
D16*
%TO.C,F1*%
X125600000Y-97587500D03*
X125600000Y-96012500D03*
%TD*%
D17*
%TO.C,H1*%
X101775000Y-48000000D03*
X102719581Y-45719581D03*
X102719581Y-50280419D03*
X105000000Y-44775000D03*
D18*
X105000000Y-48000000D03*
D17*
X105000000Y-51225000D03*
X107280419Y-45719581D03*
X107280419Y-50280419D03*
X108225000Y-48000000D03*
%TD*%
D14*
%TO.C,Y2*%
X131150000Y-69900000D03*
X131150000Y-72100000D03*
X132850000Y-72100000D03*
X132850000Y-69900000D03*
%TD*%
D19*
%TO.C,C19*%
X106520000Y-62000000D03*
X107480000Y-62000000D03*
%TD*%
D12*
%TO.C,C17*%
X143480000Y-76500000D03*
X142520000Y-76500000D03*
%TD*%
%TO.C,C23*%
X132480000Y-74000000D03*
X131520000Y-74000000D03*
%TD*%
D17*
%TO.C,H3*%
X151775000Y-103000000D03*
X152719581Y-100719581D03*
X152719581Y-105280419D03*
X155000000Y-99775000D03*
D18*
X155000000Y-103000000D03*
D17*
X155000000Y-106225000D03*
X157280419Y-100719581D03*
X157280419Y-105280419D03*
X158225000Y-103000000D03*
%TD*%
D20*
%TO.C,R14*%
X150500000Y-92175000D03*
X150500000Y-93825000D03*
%TD*%
D21*
%TO.C,C20*%
X132500000Y-75540000D03*
X132500000Y-76500000D03*
%TD*%
D19*
%TO.C,C8*%
X111520000Y-67500000D03*
X112480000Y-67500000D03*
%TD*%
D22*
%TO.C,C12*%
X134050000Y-100000000D03*
X137000000Y-100000000D03*
%TD*%
D23*
%TO.C,U4*%
X141595000Y-58975000D03*
X142865000Y-58975000D03*
X144135000Y-58975000D03*
X145405000Y-58975000D03*
X145405000Y-54025000D03*
X144135000Y-54025000D03*
X142865000Y-54025000D03*
X141595000Y-54025000D03*
%TD*%
D24*
%TO.C,C2*%
X114500000Y-67980000D03*
X114500000Y-67020000D03*
%TD*%
D15*
%TO.C,R19*%
X134500000Y-71490000D03*
X134500000Y-72510000D03*
%TD*%
%TO.C,R8*%
X109500000Y-92750000D03*
X109500000Y-93770000D03*
%TD*%
D11*
%TO.C,C1*%
X116000000Y-65775000D03*
X116000000Y-64225000D03*
%TD*%
D15*
%TO.C,R1*%
X121000000Y-76990000D03*
X121000000Y-78010000D03*
%TD*%
D25*
%TO.C,R22*%
X122990000Y-56500000D03*
X124010000Y-56500000D03*
%TD*%
D26*
%TO.C,L3*%
X130500000Y-76500000D03*
X130500000Y-75530000D03*
%TD*%
D15*
%TO.C,R4*%
X109500000Y-89750000D03*
X109500000Y-90770000D03*
%TD*%
D27*
%TO.C,R20*%
X112700000Y-100400000D03*
X111680000Y-100400000D03*
%TD*%
D28*
%TO.C,R13*%
X149000000Y-93825000D03*
X149000000Y-92175000D03*
%TD*%
D29*
%TO.C,J1*%
X126700000Y-46000000D03*
D30*
X129240000Y-46000000D03*
X131780000Y-46000000D03*
X134320000Y-46000000D03*
%TD*%
D12*
%TO.C,C26*%
X146480000Y-52000000D03*
X145520000Y-52000000D03*
%TD*%
D25*
%TO.C,R17*%
X132490000Y-63500000D03*
X133510000Y-63500000D03*
%TD*%
D29*
%TO.C,J3*%
X104000000Y-60840000D03*
D30*
X104000000Y-63380000D03*
X104000000Y-65920000D03*
X104000000Y-68460000D03*
X104000000Y-71000000D03*
%TD*%
D20*
%TO.C,R12*%
X147500000Y-92175000D03*
X147500000Y-93825000D03*
%TD*%
D16*
%TO.C,D1*%
X116000000Y-78787500D03*
X116000000Y-77212500D03*
%TD*%
D26*
%TO.C,L1*%
X111500000Y-75985000D03*
X111500000Y-75015000D03*
%TD*%
D24*
%TO.C,C18*%
X134500000Y-67480000D03*
X134500000Y-66520000D03*
%TD*%
D20*
%TO.C,R18*%
X138000000Y-76850000D03*
X138000000Y-78500000D03*
%TD*%
D31*
%TO.C,L2*%
X137000000Y-88475000D03*
X137000000Y-94525000D03*
%TD*%
D19*
%TO.C,C15*%
X137500000Y-64500000D03*
X138460000Y-64500000D03*
%TD*%
D15*
%TO.C,R9*%
X114500000Y-70990000D03*
X114500000Y-72010000D03*
%TD*%
D21*
%TO.C,C9*%
X114500000Y-75020000D03*
X114500000Y-75980000D03*
%TD*%
D32*
%TO.C,D2*%
X136850000Y-85500000D03*
X140150000Y-85500000D03*
%TD*%
D20*
%TO.C,R7*%
X118000000Y-77175000D03*
X118000000Y-78825000D03*
%TD*%
D33*
%TO.C,D3*%
X130000000Y-92712500D03*
X130000000Y-94287500D03*
%TD*%
D34*
%TO.C,J7*%
X117710000Y-102200000D03*
X123490000Y-102200000D03*
D35*
X117350000Y-100755000D03*
X118150000Y-100755000D03*
D36*
X119350000Y-100755000D03*
X120350000Y-100755000D03*
X120850000Y-100755000D03*
X121850000Y-100755000D03*
D35*
X123050000Y-100755000D03*
X123850000Y-100755000D03*
X123850000Y-100755000D03*
X123050000Y-100755000D03*
D36*
X122350000Y-100755000D03*
X121350000Y-100755000D03*
X119850000Y-100755000D03*
X118850000Y-100755000D03*
D35*
X118150000Y-100755000D03*
X117350000Y-100755000D03*
D37*
X116280000Y-101670000D03*
D38*
X116280000Y-105850000D03*
D37*
X124920000Y-101670000D03*
D38*
X124920000Y-105850000D03*
%TD*%
D12*
%TO.C,C6*%
X152960000Y-62500000D03*
X152000000Y-62500000D03*
%TD*%
D39*
%TO.C,U3*%
X143050000Y-93137500D03*
X144000000Y-93137500D03*
X144950000Y-93137500D03*
X144950000Y-90862500D03*
X144000000Y-90862500D03*
X143050000Y-90862500D03*
%TD*%
D29*
%TO.C,J5*%
X155500000Y-61420000D03*
D30*
X155500000Y-63960000D03*
X155500000Y-66500000D03*
X155500000Y-69040000D03*
X155500000Y-71580000D03*
%TD*%
D29*
%TO.C,J6*%
X155500000Y-75880000D03*
D30*
X155500000Y-78420000D03*
X155500000Y-80960000D03*
X155500000Y-83500000D03*
%TD*%
D17*
%TO.C,H2*%
X151775000Y-48000000D03*
X152719581Y-45719581D03*
X152719581Y-50280419D03*
X155000000Y-44775000D03*
D18*
X155000000Y-48000000D03*
D17*
X155000000Y-51225000D03*
X157280419Y-45719581D03*
X157280419Y-50280419D03*
X158225000Y-48000000D03*
%TD*%
D28*
%TO.C,R6*%
X149000000Y-90825000D03*
X149000000Y-89175000D03*
%TD*%
D40*
%TO.C,SW1*%
X126950000Y-54300000D03*
X133250000Y-54300000D03*
X126950000Y-58100000D03*
X133250000Y-58100000D03*
%TD*%
D20*
%TO.C,R15*%
X130000000Y-89175000D03*
X130000000Y-90825000D03*
%TD*%
D19*
%TO.C,C3*%
X117520000Y-65000000D03*
X118480000Y-65000000D03*
%TD*%
D29*
%TO.C,J4*%
X104000000Y-75460000D03*
D30*
X104000000Y-78000000D03*
X104000000Y-80540000D03*
X104000000Y-83080000D03*
%TD*%
D19*
%TO.C,C24*%
X119520000Y-52025000D03*
X120480000Y-52025000D03*
%TD*%
D41*
%TO.C,U5*%
X136337500Y-67750000D03*
X136337500Y-68250000D03*
X136337500Y-68750000D03*
X136337500Y-69250000D03*
X136337500Y-69750000D03*
X136337500Y-70250000D03*
X136337500Y-70750000D03*
X136337500Y-71250000D03*
X136337500Y-71750000D03*
X136337500Y-72250000D03*
X136337500Y-72750000D03*
X136337500Y-73250000D03*
D42*
X137750000Y-74662500D03*
X138250000Y-74662500D03*
X138750000Y-74662500D03*
X139250000Y-74662500D03*
X139750000Y-74662500D03*
X140250000Y-74662500D03*
X140750000Y-74662500D03*
X141250000Y-74662500D03*
X141750000Y-74662500D03*
X142250000Y-74662500D03*
X142750000Y-74662500D03*
X143250000Y-74662500D03*
D41*
X144662500Y-73250000D03*
X144662500Y-72750000D03*
X144662500Y-72250000D03*
X144662500Y-71750000D03*
X144662500Y-71250000D03*
X144662500Y-70750000D03*
X144662500Y-70250000D03*
X144662500Y-69750000D03*
X144662500Y-69250000D03*
X144662500Y-68750000D03*
X144662500Y-68250000D03*
X144662500Y-67750000D03*
D42*
X143250000Y-66337500D03*
X142750000Y-66337500D03*
X142250000Y-66337500D03*
X141750000Y-66337500D03*
X141250000Y-66337500D03*
X140750000Y-66337500D03*
X140250000Y-66337500D03*
X139750000Y-66337500D03*
X139250000Y-66337500D03*
X138750000Y-66337500D03*
X138250000Y-66337500D03*
X137750000Y-66337500D03*
%TD*%
D20*
%TO.C,R5*%
X147500000Y-89175000D03*
X147500000Y-90825000D03*
%TD*%
D23*
%TO.C,U2*%
X115595000Y-59000000D03*
X116865000Y-59000000D03*
X118135000Y-59000000D03*
X119405000Y-59000000D03*
X119405000Y-54050000D03*
X118135000Y-54050000D03*
X116865000Y-54050000D03*
X115595000Y-54050000D03*
%TD*%
D19*
%TO.C,C25*%
X117020000Y-61025000D03*
X117980000Y-61025000D03*
%TD*%
D22*
%TO.C,C11*%
X134025000Y-97500000D03*
X136975000Y-97500000D03*
%TD*%
D19*
%TO.C,C21*%
X131520000Y-68000000D03*
X132480000Y-68000000D03*
%TD*%
D29*
%TO.C,J2*%
X104000000Y-87200000D03*
D30*
X104000000Y-89740000D03*
X104000000Y-92280000D03*
X104000000Y-94820000D03*
%TD*%
D21*
%TO.C,C7*%
X113500000Y-75020000D03*
X113500000Y-75980000D03*
%TD*%
D17*
%TO.C,H4*%
X101775000Y-103000000D03*
X102719581Y-100719581D03*
X102719581Y-105280419D03*
X105000000Y-99775000D03*
D18*
X105000000Y-103000000D03*
D17*
X105000000Y-106225000D03*
X107280419Y-100719581D03*
X107280419Y-105280419D03*
X108225000Y-103000000D03*
%TD*%
D41*
%TO.C,U1*%
X116337500Y-68250000D03*
X116337500Y-68750000D03*
X116337500Y-69250000D03*
X116337500Y-69750000D03*
X116337500Y-70250000D03*
X116337500Y-70750000D03*
X116337500Y-71250000D03*
X116337500Y-71750000D03*
X116337500Y-72250000D03*
X116337500Y-72750000D03*
X116337500Y-73250000D03*
X116337500Y-73750000D03*
D42*
X117750000Y-75162500D03*
X118250000Y-75162500D03*
X118750000Y-75162500D03*
X119250000Y-75162500D03*
X119750000Y-75162500D03*
X120250000Y-75162500D03*
X120750000Y-75162500D03*
X121250000Y-75162500D03*
X121750000Y-75162500D03*
X122250000Y-75162500D03*
X122750000Y-75162500D03*
X123250000Y-75162500D03*
D41*
X124662500Y-73750000D03*
X124662500Y-73250000D03*
X124662500Y-72750000D03*
X124662500Y-72250000D03*
X124662500Y-71750000D03*
X124662500Y-71250000D03*
X124662500Y-70750000D03*
X124662500Y-70250000D03*
X124662500Y-69750000D03*
X124662500Y-69250000D03*
X124662500Y-68750000D03*
X124662500Y-68250000D03*
D42*
X123250000Y-66837500D03*
X122750000Y-66837500D03*
X122250000Y-66837500D03*
X121750000Y-66837500D03*
X121250000Y-66837500D03*
X120750000Y-66837500D03*
X120250000Y-66837500D03*
X119750000Y-66837500D03*
X119250000Y-66837500D03*
X118750000Y-66837500D03*
X118250000Y-66837500D03*
X117750000Y-66837500D03*
%TD*%
D21*
%TO.C,C22*%
X133500000Y-75520000D03*
X133500000Y-76480000D03*
%TD*%
D27*
%TO.C,R21*%
X112710000Y-102600000D03*
X111690000Y-102600000D03*
%TD*%
D21*
%TO.C,C4*%
X126500000Y-67520000D03*
X126500000Y-68480000D03*
%TD*%
D12*
%TO.C,C5*%
X123480000Y-77000000D03*
X122520000Y-77000000D03*
%TD*%
D16*
%TO.C,D4*%
X136000000Y-78462500D03*
X136000000Y-76887500D03*
%TD*%
D39*
%TO.C,U6*%
X120600000Y-93500000D03*
X121550000Y-93500000D03*
X122500000Y-93500000D03*
X122500000Y-91225000D03*
X121550000Y-91225000D03*
X120600000Y-91225000D03*
%TD*%
D15*
%TO.C,R3*%
X113000000Y-46990000D03*
X113000000Y-48010000D03*
%TD*%
D12*
%TO.C,C10*%
X112480000Y-73500000D03*
X111520000Y-73500000D03*
%TD*%
D21*
%TO.C,C16*%
X146500000Y-67540000D03*
X146500000Y-68500000D03*
%TD*%
M02*
