%TF.GenerationSoftware,KiCad,Pcbnew,8.0.6*%
%TF.CreationDate,2024-12-26T00:35:44-06:00*%
%TF.ProjectId,KiCAD_MCPtest,4b694341-445f-44d4-9350-746573742e6b,rev?*%
%TF.SameCoordinates,Original*%
%TF.FileFunction,Copper,L4,Bot*%
%TF.FilePolarity,Positive*%
%FSLAX46Y46*%
G04 Gerber Fmt 4.6, Leading zero omitted, Abs format (unit mm)*
G04 Created by KiCad (PCBNEW 8.0.6) date 2024-12-26 00:35:44*
%MOMM*%
%LPD*%
G01*
G04 APERTURE LIST*
%TA.AperFunction,ComponentPad*%
%ADD10C,0.900000*%
%TD*%
%TA.AperFunction,ComponentPad*%
%ADD11C,8.600000*%
%TD*%
%TA.AperFunction,ComponentPad*%
%ADD12R,1.700000X1.700000*%
%TD*%
%TA.AperFunction,ComponentPad*%
%ADD13O,1.700000X1.700000*%
%TD*%
%TA.AperFunction,ComponentPad*%
%ADD14O,1.000000X2.100000*%
%TD*%
%TA.AperFunction,ComponentPad*%
%ADD15O,1.000000X1.600000*%
%TD*%
%TA.AperFunction,ViaPad*%
%ADD16C,0.600000*%
%TD*%
%TA.AperFunction,Conductor*%
%ADD17C,0.300000*%
%TD*%
%TA.AperFunction,Conductor*%
%ADD18C,0.500000*%
%TD*%
G04 APERTURE END LIST*
D10*
%TO.P,H1,1,1*%
%TO.N,GND*%
X101775000Y-48000000D03*
X102719581Y-45719581D03*
X102719581Y-50280419D03*
X105000000Y-44775000D03*
D11*
X105000000Y-48000000D03*
D10*
X105000000Y-51225000D03*
X107280419Y-45719581D03*
X107280419Y-50280419D03*
X108225000Y-48000000D03*
%TD*%
%TO.P,H3,1,1*%
%TO.N,GND*%
X151775000Y-103000000D03*
X152719581Y-100719581D03*
X152719581Y-105280419D03*
X155000000Y-99775000D03*
D11*
X155000000Y-103000000D03*
D10*
X155000000Y-106225000D03*
X157280419Y-100719581D03*
X157280419Y-105280419D03*
X158225000Y-103000000D03*
%TD*%
D12*
%TO.P,J1,1,Pin_1*%
%TO.N,+5V*%
X126700000Y-46000000D03*
D13*
%TO.P,J1,2,Pin_2*%
%TO.N,CANH*%
X129240000Y-46000000D03*
%TO.P,J1,3,Pin_3*%
%TO.N,CANL*%
X131780000Y-46000000D03*
%TO.P,J1,4,Pin_4*%
%TO.N,GND*%
X134320000Y-46000000D03*
%TD*%
D12*
%TO.P,J3,1,Pin_1*%
%TO.N,+5V*%
X104000000Y-60840000D03*
D13*
%TO.P,J3,2,Pin_2*%
%TO.N,+3V3*%
X104000000Y-63380000D03*
%TO.P,J3,3,Pin_3*%
%TO.N,SWDIO*%
X104000000Y-65920000D03*
%TO.P,J3,4,Pin_4*%
%TO.N,SWCLK*%
X104000000Y-68460000D03*
%TO.P,J3,5,Pin_5*%
%TO.N,GND*%
X104000000Y-71000000D03*
%TD*%
D14*
%TO.P,J7,S1,SHIELD*%
%TO.N,GND*%
X116280000Y-101670000D03*
D15*
X116280000Y-105850000D03*
D14*
X124920000Y-101670000D03*
D15*
X124920000Y-105850000D03*
%TD*%
D12*
%TO.P,J5,1,Pin_1*%
%TO.N,+5V*%
X155500000Y-61420000D03*
D13*
%TO.P,J5,2,Pin_2*%
%TO.N,+3V3*%
X155500000Y-63960000D03*
%TO.P,J5,3,Pin_3*%
%TO.N,SWDIO2*%
X155500000Y-66500000D03*
%TO.P,J5,4,Pin_4*%
%TO.N,SWCLK2*%
X155500000Y-69040000D03*
%TO.P,J5,5,Pin_5*%
%TO.N,GND*%
X155500000Y-71580000D03*
%TD*%
D12*
%TO.P,J6,1,Pin_1*%
%TO.N,+3V3*%
X155500000Y-75880000D03*
D13*
%TO.P,J6,2,Pin_2*%
%TO.N,USART1_TX2*%
X155500000Y-78420000D03*
%TO.P,J6,3,Pin_3*%
%TO.N,USART1_RX2*%
X155500000Y-80960000D03*
%TO.P,J6,4,Pin_4*%
%TO.N,GND*%
X155500000Y-83500000D03*
%TD*%
D10*
%TO.P,H2,1,1*%
%TO.N,GND*%
X151775000Y-48000000D03*
X152719581Y-45719581D03*
X152719581Y-50280419D03*
X155000000Y-44775000D03*
D11*
X155000000Y-48000000D03*
D10*
X155000000Y-51225000D03*
X157280419Y-45719581D03*
X157280419Y-50280419D03*
X158225000Y-48000000D03*
%TD*%
D12*
%TO.P,J4,1,Pin_1*%
%TO.N,+3V3*%
X104000000Y-75460000D03*
D13*
%TO.P,J4,2,Pin_2*%
%TO.N,USART1_TX*%
X104000000Y-78000000D03*
%TO.P,J4,3,Pin_3*%
%TO.N,USART1_RX*%
X104000000Y-80540000D03*
%TO.P,J4,4,Pin_4*%
%TO.N,GND*%
X104000000Y-83080000D03*
%TD*%
D12*
%TO.P,J2,1,Pin_1*%
%TO.N,+3V3*%
X104000000Y-87200000D03*
D13*
%TO.P,J2,2,Pin_2*%
%TO.N,I2C1_SCL*%
X104000000Y-89740000D03*
%TO.P,J2,3,Pin_3*%
%TO.N,I2C1_SDA*%
X104000000Y-92280000D03*
%TO.P,J2,4,Pin_4*%
%TO.N,GND*%
X104000000Y-94820000D03*
%TD*%
D10*
%TO.P,H4,1,1*%
%TO.N,GND*%
X101775000Y-103000000D03*
X102719581Y-100719581D03*
X102719581Y-105280419D03*
X105000000Y-99775000D03*
D11*
X105000000Y-103000000D03*
D10*
X105000000Y-106225000D03*
X107280419Y-100719581D03*
X107280419Y-105280419D03*
X108225000Y-103000000D03*
%TD*%
D16*
%TO.N,+3V3*%
X134000000Y-101100000D03*
X124000000Y-77000000D03*
X144000000Y-76400000D03*
X131100000Y-76500000D03*
X117400000Y-64400000D03*
X133200000Y-100000000D03*
X109500000Y-92200000D03*
X125100000Y-53800000D03*
X141100000Y-78500000D03*
X121600000Y-77000000D03*
X110900000Y-76000000D03*
X146500000Y-67000000D03*
X127100000Y-67400000D03*
X133200000Y-97700000D03*
X146800000Y-92000000D03*
X113900000Y-67800000D03*
X134000000Y-96300000D03*
X135300000Y-65600000D03*
X119500000Y-51500000D03*
X137500000Y-63900000D03*
X146000000Y-54000000D03*
%TO.N,GND*%
X110300000Y-71100000D03*
X111300000Y-100000000D03*
X124100000Y-100000000D03*
X140700000Y-84900000D03*
X117100000Y-100000000D03*
X137800000Y-99500000D03*
X108000000Y-62000000D03*
X149700000Y-89200000D03*
X133900000Y-66500000D03*
X118000000Y-76500000D03*
X137600000Y-71400000D03*
X115600000Y-52800000D03*
X147000000Y-68300000D03*
X137800000Y-100400000D03*
X121000000Y-52100000D03*
X122600000Y-56500000D03*
X133700000Y-69500000D03*
X132900000Y-68900000D03*
X135300000Y-64100000D03*
X141600000Y-52800000D03*
X121600000Y-94300000D03*
X143000000Y-61600000D03*
X137800000Y-96900000D03*
X138700000Y-76800000D03*
X140700000Y-86200000D03*
X133000000Y-68000000D03*
X132000000Y-63500000D03*
X144000000Y-94000000D03*
X115300000Y-64100000D03*
X127000000Y-68500000D03*
X133500000Y-77000000D03*
X116900000Y-57800000D03*
X151900000Y-61900000D03*
X116100000Y-63500000D03*
X130000000Y-88500000D03*
X137800000Y-98000000D03*
X111200000Y-102400000D03*
X138600000Y-63900000D03*
X110300000Y-72000000D03*
X113000000Y-67500000D03*
X132500000Y-77000000D03*
X131000000Y-74000000D03*
X147000000Y-52000000D03*
X118300000Y-64400000D03*
X117900000Y-72300000D03*
X130800000Y-73000000D03*
X151200000Y-93900000D03*
X142500000Y-77100000D03*
X113500000Y-76500000D03*
%TO.N,SWCLK*%
X106700000Y-67600000D03*
X119700000Y-69000000D03*
%TO.N,SWDIO*%
X117900000Y-69700000D03*
%TO.N,+5V*%
X121500000Y-92200000D03*
X145800000Y-89175000D03*
X147500000Y-88500000D03*
X126100000Y-95600000D03*
X125000000Y-95600000D03*
X144100000Y-57800000D03*
X118135000Y-57800000D03*
%TO.N,SWCLK2*%
X145300000Y-65700000D03*
%TO.N,I2C1_SDA*%
X127300000Y-79200000D03*
X129800000Y-72400000D03*
%TO.N,I2C1_SCL*%
X127300000Y-77000000D03*
X128900000Y-71700000D03*
%TO.N,USART1_RX*%
X127000000Y-70500000D03*
%TO.N,USART1_TX*%
X127000000Y-71500000D03*
%TO.N,CANH*%
X116500000Y-51000000D03*
X142500000Y-51000000D03*
X142500000Y-45500000D03*
X116500000Y-45500000D03*
%TO.N,Net-(F1-Pad1)*%
X118200000Y-99100000D03*
X123100000Y-99100000D03*
%TO.N,BOOT0*%
X119800000Y-68200000D03*
X125100000Y-61600000D03*
%TD*%
D17*
%TO.N,SWCLK*%
X117507107Y-68600000D02*
X107700000Y-68600000D01*
X119700000Y-69000000D02*
X117907107Y-69000000D01*
X117907107Y-69000000D02*
X117507107Y-68600000D01*
X107700000Y-68600000D02*
X106700000Y-67600000D01*
%TO.N,SWDIO*%
X117300000Y-69100000D02*
X107180000Y-69100000D01*
X117900000Y-69700000D02*
X117300000Y-69100000D01*
X107180000Y-69100000D02*
X104000000Y-65920000D01*
D18*
%TO.N,SWCLK2*%
X155500000Y-69040000D02*
X152160000Y-65700000D01*
X152160000Y-65700000D02*
X151200000Y-65700000D01*
X151200000Y-65700000D02*
X145300000Y-65700000D01*
D17*
%TO.N,I2C1_SDA*%
X129500000Y-72700000D02*
X129500000Y-77000000D01*
X129800000Y-72400000D02*
X129500000Y-72700000D01*
X129500000Y-77000000D02*
X127300000Y-79200000D01*
%TO.N,I2C1_SCL*%
X128900000Y-71700000D02*
X127300000Y-73300000D01*
X127300000Y-73300000D02*
X127300000Y-77000000D01*
%TO.N,USART1_RX*%
X116167106Y-80540000D02*
X104000000Y-80540000D01*
X127269239Y-72150000D02*
X124557106Y-72150000D01*
X127650000Y-71769239D02*
X127269239Y-72150000D01*
X127000000Y-70500000D02*
X127650000Y-71150000D01*
X127650000Y-71150000D02*
X127650000Y-71769239D01*
X124557106Y-72150000D02*
X116167106Y-80540000D01*
%TO.N,USART1_TX*%
X127000000Y-71500000D02*
X124500000Y-71500000D01*
X124500000Y-71500000D02*
X118000000Y-78000000D01*
X118000000Y-78000000D02*
X104000000Y-78000000D01*
%TO.N,CANH*%
X116500000Y-51000000D02*
X116500000Y-45500000D01*
X142500000Y-51000000D02*
X142500000Y-45500000D01*
%TO.N,Net-(F1-Pad1)*%
X118200000Y-99100000D02*
X123100000Y-99100000D01*
%TO.N,BOOT0*%
X119800000Y-68200000D02*
X125100000Y-62900000D01*
X125100000Y-62900000D02*
X125100000Y-61600000D01*
%TD*%
%TA.AperFunction,Conductor*%
%TO.N,+5V*%
G36*
X152686013Y-43019685D02*
G01*
X152731768Y-43072489D01*
X152741712Y-43141647D01*
X152712687Y-43205203D01*
X152676231Y-43233989D01*
X152347234Y-43405253D01*
X151956857Y-43653950D01*
X151589664Y-43935707D01*
X151589659Y-43935711D01*
X151248411Y-44248408D01*
X151248408Y-44248411D01*
X150935711Y-44589659D01*
X150935707Y-44589664D01*
X150653950Y-44956857D01*
X150405253Y-45347234D01*
X150191540Y-45757773D01*
X150014414Y-46185395D01*
X149875233Y-46626817D01*
X149775052Y-47078704D01*
X149775051Y-47078713D01*
X149714638Y-47537592D01*
X149694450Y-48000000D01*
X149714638Y-48462407D01*
X149775051Y-48921286D01*
X149775052Y-48921295D01*
X149875233Y-49373182D01*
X150014414Y-49814604D01*
X150191540Y-50242226D01*
X150405253Y-50652765D01*
X150405257Y-50652771D01*
X150405259Y-50652775D01*
X150431861Y-50694532D01*
X150653950Y-51043142D01*
X150935707Y-51410335D01*
X150935711Y-51410340D01*
X151248408Y-51751588D01*
X151248411Y-51751591D01*
X151589659Y-52064288D01*
X151589664Y-52064292D01*
X151956857Y-52346049D01*
X151956862Y-52346052D01*
X152347225Y-52594741D01*
X152347231Y-52594744D01*
X152347234Y-52594746D01*
X152757773Y-52808459D01*
X152757778Y-52808461D01*
X153185395Y-52985586D01*
X153626823Y-53124768D01*
X154078701Y-53224947D01*
X154537591Y-53285361D01*
X155000000Y-53305550D01*
X155462409Y-53285361D01*
X155921299Y-53224947D01*
X156373177Y-53124768D01*
X156814605Y-52985586D01*
X157242222Y-52808461D01*
X157258476Y-52800000D01*
X157482168Y-52683553D01*
X157652775Y-52594741D01*
X158043138Y-52346052D01*
X158068369Y-52326692D01*
X158302201Y-52147266D01*
X158410342Y-52064287D01*
X158751590Y-51751590D01*
X159064287Y-51410342D01*
X159346052Y-51043138D01*
X159594741Y-50652775D01*
X159742240Y-50369431D01*
X159766011Y-50323768D01*
X159814426Y-50273393D01*
X159882391Y-50257190D01*
X159948327Y-50280304D01*
X159991299Y-50335396D01*
X160000000Y-50381025D01*
X160000000Y-100618974D01*
X159980315Y-100686013D01*
X159927511Y-100731768D01*
X159858353Y-100741712D01*
X159794797Y-100712687D01*
X159766011Y-100676231D01*
X159594746Y-100347234D01*
X159594744Y-100347231D01*
X159594741Y-100347225D01*
X159354060Y-99969432D01*
X159346049Y-99956857D01*
X159064292Y-99589664D01*
X159064288Y-99589659D01*
X158751591Y-99248411D01*
X158751588Y-99248408D01*
X158410340Y-98935711D01*
X158410335Y-98935707D01*
X158043142Y-98653950D01*
X157718714Y-98447267D01*
X157652775Y-98405259D01*
X157652771Y-98405257D01*
X157652765Y-98405253D01*
X157242226Y-98191540D01*
X156979977Y-98082913D01*
X156814605Y-98014414D01*
X156608725Y-97949500D01*
X156373182Y-97875233D01*
X155921295Y-97775052D01*
X155921286Y-97775051D01*
X155462407Y-97714638D01*
X155000000Y-97694450D01*
X154537592Y-97714638D01*
X154078713Y-97775051D01*
X154078704Y-97775052D01*
X153626817Y-97875233D01*
X153185395Y-98014414D01*
X152757773Y-98191540D01*
X152347234Y-98405253D01*
X151956857Y-98653950D01*
X151589664Y-98935707D01*
X151589659Y-98935711D01*
X151248411Y-99248408D01*
X151248408Y-99248411D01*
X150935711Y-99589659D01*
X150935707Y-99589664D01*
X150653950Y-99956857D01*
X150405253Y-100347234D01*
X150191540Y-100757773D01*
X150014414Y-101185395D01*
X149875233Y-101626817D01*
X149775052Y-102078704D01*
X149775051Y-102078713D01*
X149714638Y-102537592D01*
X149694450Y-103000000D01*
X149714638Y-103462407D01*
X149775051Y-103921286D01*
X149775052Y-103921295D01*
X149875233Y-104373182D01*
X149938075Y-104572490D01*
X149998321Y-104763566D01*
X150014414Y-104814604D01*
X150191540Y-105242226D01*
X150405253Y-105652765D01*
X150653950Y-106043142D01*
X150935707Y-106410335D01*
X150935711Y-106410340D01*
X151248408Y-106751588D01*
X151248411Y-106751591D01*
X151589659Y-107064288D01*
X151589664Y-107064292D01*
X151956857Y-107346049D01*
X151956862Y-107346052D01*
X152347225Y-107594741D01*
X152347231Y-107594744D01*
X152347234Y-107594746D01*
X152676231Y-107766011D01*
X152726606Y-107814426D01*
X152742809Y-107882391D01*
X152719695Y-107948327D01*
X152664603Y-107991300D01*
X152618974Y-108000000D01*
X107381026Y-108000000D01*
X107313987Y-107980315D01*
X107268232Y-107927511D01*
X107258288Y-107858353D01*
X107287313Y-107794797D01*
X107323769Y-107766011D01*
X107652765Y-107594746D01*
X107652775Y-107594741D01*
X108043138Y-107346052D01*
X108410342Y-107064287D01*
X108751590Y-106751590D01*
X109064287Y-106410342D01*
X109346052Y-106043138D01*
X109594741Y-105652775D01*
X109709720Y-105431902D01*
X114779500Y-105431902D01*
X114779500Y-106268097D01*
X114816446Y-106501368D01*
X114889433Y-106725996D01*
X114996657Y-106936433D01*
X115135483Y-107127510D01*
X115302490Y-107294517D01*
X115493567Y-107433343D01*
X115592991Y-107484002D01*
X115704003Y-107540566D01*
X115704005Y-107540566D01*
X115704008Y-107540568D01*
X115824412Y-107579689D01*
X115928631Y-107613553D01*
X116161903Y-107650500D01*
X116161908Y-107650500D01*
X116398097Y-107650500D01*
X116631368Y-107613553D01*
X116855992Y-107540568D01*
X117066433Y-107433343D01*
X117257510Y-107294517D01*
X117424517Y-107127510D01*
X117563343Y-106936433D01*
X117670568Y-106725992D01*
X117743553Y-106501368D01*
X117757970Y-106410342D01*
X117780500Y-106268097D01*
X117780500Y-105431902D01*
X123419500Y-105431902D01*
X123419500Y-106268097D01*
X123456446Y-106501368D01*
X123529433Y-106725996D01*
X123636657Y-106936433D01*
X123775483Y-107127510D01*
X123942490Y-107294517D01*
X124133567Y-107433343D01*
X124232991Y-107484002D01*
X124344003Y-107540566D01*
X124344005Y-107540566D01*
X124344008Y-107540568D01*
X124464412Y-107579689D01*
X124568631Y-107613553D01*
X124801903Y-107650500D01*
X124801908Y-107650500D01*
X125038097Y-107650500D01*
X125271368Y-107613553D01*
X125495992Y-107540568D01*
X125706433Y-107433343D01*
X125897510Y-107294517D01*
X126064517Y-107127510D01*
X126203343Y-106936433D01*
X126310568Y-106725992D01*
X126383553Y-106501368D01*
X126397970Y-106410342D01*
X126420500Y-106268097D01*
X126420500Y-105431902D01*
X126383553Y-105198631D01*
X126310566Y-104974003D01*
X126229348Y-104814605D01*
X126203343Y-104763567D01*
X126064517Y-104572490D01*
X125897510Y-104405483D01*
X125706433Y-104266657D01*
X125495996Y-104159433D01*
X125271368Y-104086446D01*
X125038097Y-104049500D01*
X125038092Y-104049500D01*
X124801908Y-104049500D01*
X124801903Y-104049500D01*
X124568631Y-104086446D01*
X124344003Y-104159433D01*
X124133566Y-104266657D01*
X124024550Y-104345862D01*
X123942490Y-104405483D01*
X123942488Y-104405485D01*
X123942487Y-104405485D01*
X123775485Y-104572487D01*
X123775485Y-104572488D01*
X123775483Y-104572490D01*
X123715862Y-104654550D01*
X123636657Y-104763566D01*
X123529433Y-104974003D01*
X123456446Y-105198631D01*
X123419500Y-105431902D01*
X117780500Y-105431902D01*
X117743553Y-105198631D01*
X117670566Y-104974003D01*
X117589348Y-104814605D01*
X117563343Y-104763567D01*
X117424517Y-104572490D01*
X117257510Y-104405483D01*
X117066433Y-104266657D01*
X116855996Y-104159433D01*
X116631368Y-104086446D01*
X116398097Y-104049500D01*
X116398092Y-104049500D01*
X116161908Y-104049500D01*
X116161903Y-104049500D01*
X115928631Y-104086446D01*
X115704003Y-104159433D01*
X115493566Y-104266657D01*
X115384550Y-104345862D01*
X115302490Y-104405483D01*
X115302488Y-104405485D01*
X115302487Y-104405485D01*
X115135485Y-104572487D01*
X115135485Y-104572488D01*
X115135483Y-104572490D01*
X115075862Y-104654550D01*
X114996657Y-104763566D01*
X114889433Y-104974003D01*
X114816446Y-105198631D01*
X114779500Y-105431902D01*
X109709720Y-105431902D01*
X109808461Y-105242222D01*
X109985586Y-104814605D01*
X110124768Y-104373177D01*
X110224947Y-103921299D01*
X110272578Y-103559501D01*
X110300844Y-103495606D01*
X110359169Y-103457135D01*
X110429033Y-103456304D01*
X110466637Y-103474111D01*
X110547266Y-103530568D01*
X110753504Y-103626739D01*
X110973308Y-103685635D01*
X111135230Y-103699801D01*
X111199998Y-103705468D01*
X111200000Y-103705468D01*
X111200002Y-103705468D01*
X111256673Y-103700509D01*
X111426692Y-103685635D01*
X111646496Y-103626739D01*
X111852734Y-103530568D01*
X112039139Y-103400047D01*
X112200047Y-103239139D01*
X112330568Y-103052734D01*
X112426739Y-102846496D01*
X112485635Y-102626692D01*
X112505468Y-102400000D01*
X112485635Y-102173308D01*
X112440916Y-102006415D01*
X112426741Y-101953511D01*
X112426738Y-101953502D01*
X112371222Y-101834448D01*
X112330568Y-101747266D01*
X112200047Y-101560861D01*
X112200045Y-101560858D01*
X112039140Y-101399953D01*
X111948639Y-101336584D01*
X111905014Y-101282007D01*
X111897820Y-101212509D01*
X111929343Y-101150154D01*
X111948640Y-101133433D01*
X111952727Y-101130571D01*
X111952734Y-101130568D01*
X112136490Y-101001902D01*
X114779500Y-101001902D01*
X114779500Y-102338097D01*
X114816446Y-102571368D01*
X114889433Y-102795996D01*
X114993379Y-103000000D01*
X114996657Y-103006433D01*
X115135483Y-103197510D01*
X115302490Y-103364517D01*
X115493567Y-103503343D01*
X115592991Y-103554002D01*
X115704003Y-103610566D01*
X115704005Y-103610566D01*
X115704008Y-103610568D01*
X115824412Y-103649689D01*
X115928631Y-103683553D01*
X116161903Y-103720500D01*
X116161908Y-103720500D01*
X116398097Y-103720500D01*
X116631368Y-103683553D01*
X116855992Y-103610568D01*
X117066433Y-103503343D01*
X117257510Y-103364517D01*
X117424517Y-103197510D01*
X117563343Y-103006433D01*
X117631798Y-102872080D01*
X117646512Y-102843205D01*
X117694487Y-102792409D01*
X117756997Y-102775500D01*
X117785764Y-102775500D01*
X117785766Y-102775500D01*
X117932135Y-102736281D01*
X118063365Y-102660515D01*
X118170515Y-102553365D01*
X118246281Y-102422135D01*
X118285500Y-102275766D01*
X118285500Y-102124234D01*
X118246281Y-101977865D01*
X118170515Y-101846635D01*
X118063365Y-101739485D01*
X117932135Y-101663719D01*
X117872405Y-101647714D01*
X117812746Y-101611350D01*
X117782217Y-101548502D01*
X117780500Y-101527940D01*
X117780500Y-101175676D01*
X117800185Y-101108637D01*
X117833375Y-101074102D01*
X117939139Y-101000047D01*
X118100047Y-100839139D01*
X118230568Y-100652734D01*
X118321819Y-100457044D01*
X118367991Y-100404607D01*
X118421369Y-100386606D01*
X118421364Y-100386574D01*
X118421576Y-100386536D01*
X118423394Y-100385923D01*
X118426692Y-100385635D01*
X118646496Y-100326739D01*
X118785075Y-100262117D01*
X118837480Y-100250500D01*
X122462520Y-100250500D01*
X122514924Y-100262117D01*
X122653504Y-100326739D01*
X122653510Y-100326740D01*
X122653511Y-100326741D01*
X122786535Y-100362384D01*
X122846195Y-100398749D01*
X122869807Y-100441984D01*
X122871407Y-100441402D01*
X122873261Y-100446497D01*
X122969431Y-100652732D01*
X122969432Y-100652734D01*
X123099954Y-100839141D01*
X123260857Y-101000044D01*
X123260860Y-101000046D01*
X123260861Y-101000047D01*
X123366623Y-101074101D01*
X123410248Y-101128677D01*
X123419500Y-101175676D01*
X123419500Y-101527940D01*
X123399815Y-101594979D01*
X123347011Y-101640734D01*
X123327595Y-101647714D01*
X123267865Y-101663719D01*
X123267863Y-101663719D01*
X123267863Y-101663720D01*
X123136635Y-101739485D01*
X123136632Y-101739487D01*
X123029487Y-101846632D01*
X123029485Y-101846635D01*
X122953719Y-101977863D01*
X122914500Y-102124234D01*
X122914500Y-102275765D01*
X122953719Y-102422136D01*
X122991602Y-102487750D01*
X123029485Y-102553365D01*
X123136635Y-102660515D01*
X123267865Y-102736281D01*
X123414234Y-102775500D01*
X123443003Y-102775500D01*
X123510042Y-102795185D01*
X123553488Y-102843205D01*
X123633379Y-103000000D01*
X123636657Y-103006433D01*
X123775483Y-103197510D01*
X123942490Y-103364517D01*
X124133567Y-103503343D01*
X124232991Y-103554002D01*
X124344003Y-103610566D01*
X124344005Y-103610566D01*
X124344008Y-103610568D01*
X124464412Y-103649689D01*
X124568631Y-103683553D01*
X124801903Y-103720500D01*
X124801908Y-103720500D01*
X125038097Y-103720500D01*
X125271368Y-103683553D01*
X125495992Y-103610568D01*
X125706433Y-103503343D01*
X125897510Y-103364517D01*
X126064517Y-103197510D01*
X126203343Y-103006433D01*
X126310568Y-102795992D01*
X126383553Y-102571368D01*
X126407189Y-102422136D01*
X126420500Y-102338097D01*
X126420500Y-101001902D01*
X126383553Y-100768631D01*
X126346148Y-100653511D01*
X126310568Y-100544008D01*
X126310566Y-100544005D01*
X126310566Y-100544003D01*
X126233691Y-100393128D01*
X126203343Y-100333567D01*
X126064517Y-100142490D01*
X125897510Y-99975483D01*
X125706433Y-99836657D01*
X125683983Y-99825218D01*
X125495996Y-99729433D01*
X125464321Y-99719141D01*
X125426261Y-99706775D01*
X125368588Y-99667338D01*
X125344807Y-99620937D01*
X125326742Y-99553513D01*
X125326738Y-99553503D01*
X125230568Y-99347266D01*
X125100047Y-99160861D01*
X125100045Y-99160858D01*
X124939141Y-98999954D01*
X124752734Y-98869432D01*
X124752732Y-98869431D01*
X124546497Y-98773261D01*
X124546488Y-98773258D01*
X124413464Y-98737615D01*
X124353803Y-98701250D01*
X124330197Y-98658010D01*
X124328592Y-98658595D01*
X124326739Y-98653504D01*
X124230568Y-98447267D01*
X124230567Y-98447265D01*
X124230029Y-98446497D01*
X124100047Y-98260861D01*
X124100045Y-98260858D01*
X123939141Y-98099954D01*
X123752734Y-97969432D01*
X123752732Y-97969431D01*
X123546497Y-97873261D01*
X123546488Y-97873258D01*
X123326697Y-97814366D01*
X123326693Y-97814365D01*
X123326692Y-97814365D01*
X123326691Y-97814364D01*
X123326686Y-97814364D01*
X123100002Y-97794532D01*
X123099998Y-97794532D01*
X122873313Y-97814364D01*
X122873302Y-97814366D01*
X122653511Y-97873258D01*
X122653504Y-97873260D01*
X122653504Y-97873261D01*
X122538935Y-97926686D01*
X122514925Y-97937882D01*
X122462520Y-97949500D01*
X118837480Y-97949500D01*
X118785075Y-97937882D01*
X118761078Y-97926692D01*
X118646496Y-97873261D01*
X118646492Y-97873260D01*
X118646488Y-97873258D01*
X118426697Y-97814366D01*
X118426693Y-97814365D01*
X118426692Y-97814365D01*
X118426691Y-97814364D01*
X118426686Y-97814364D01*
X118200002Y-97794532D01*
X118199998Y-97794532D01*
X117973313Y-97814364D01*
X117973302Y-97814366D01*
X117753511Y-97873258D01*
X117753502Y-97873261D01*
X117547267Y-97969431D01*
X117547265Y-97969432D01*
X117360858Y-98099954D01*
X117199954Y-98260858D01*
X117069432Y-98447265D01*
X117069431Y-98447267D01*
X116978181Y-98642953D01*
X116932008Y-98695392D01*
X116878631Y-98713394D01*
X116878637Y-98713426D01*
X116878430Y-98713462D01*
X116876614Y-98714075D01*
X116873320Y-98714363D01*
X116873302Y-98714366D01*
X116653511Y-98773258D01*
X116653502Y-98773261D01*
X116447267Y-98869431D01*
X116447265Y-98869432D01*
X116260858Y-98999954D01*
X116099954Y-99160858D01*
X115969432Y-99347265D01*
X115969431Y-99347267D01*
X115873261Y-99553503D01*
X115855190Y-99620941D01*
X115818824Y-99680601D01*
X115773736Y-99706775D01*
X115712459Y-99726686D01*
X115704002Y-99729434D01*
X115493566Y-99836657D01*
X115411147Y-99896539D01*
X115302490Y-99975483D01*
X115302488Y-99975485D01*
X115302487Y-99975485D01*
X115135485Y-100142487D01*
X115135485Y-100142488D01*
X115135483Y-100142490D01*
X115113089Y-100173313D01*
X114996657Y-100333566D01*
X114889433Y-100544003D01*
X114816446Y-100768631D01*
X114779500Y-101001902D01*
X112136490Y-101001902D01*
X112139139Y-101000047D01*
X112300047Y-100839139D01*
X112430568Y-100652734D01*
X112526739Y-100446496D01*
X112585635Y-100226692D01*
X112605468Y-100000000D01*
X112603901Y-99982094D01*
X112591177Y-99836657D01*
X112585635Y-99773308D01*
X112536426Y-99589658D01*
X112526741Y-99553511D01*
X112526738Y-99553503D01*
X112430568Y-99347266D01*
X112300047Y-99160861D01*
X112300045Y-99160858D01*
X112139141Y-98999954D01*
X111952734Y-98869432D01*
X111952732Y-98869431D01*
X111746497Y-98773261D01*
X111746488Y-98773258D01*
X111526697Y-98714366D01*
X111526693Y-98714365D01*
X111526692Y-98714365D01*
X111526691Y-98714364D01*
X111526686Y-98714364D01*
X111300002Y-98694532D01*
X111299998Y-98694532D01*
X111073313Y-98714364D01*
X111073302Y-98714366D01*
X110853511Y-98773258D01*
X110853502Y-98773261D01*
X110647267Y-98869431D01*
X110647265Y-98869432D01*
X110460858Y-98999954D01*
X110299954Y-99160858D01*
X110169432Y-99347265D01*
X110169431Y-99347267D01*
X110073261Y-99553502D01*
X110073258Y-99553511D01*
X110014366Y-99773302D01*
X110014364Y-99773313D01*
X109994532Y-99999998D01*
X109994532Y-100000001D01*
X110014364Y-100226686D01*
X110014366Y-100226697D01*
X110073258Y-100446488D01*
X110073261Y-100446497D01*
X110169431Y-100652732D01*
X110169432Y-100652734D01*
X110299954Y-100839141D01*
X110460858Y-101000045D01*
X110551360Y-101063415D01*
X110594985Y-101117992D01*
X110602179Y-101187490D01*
X110570656Y-101249845D01*
X110551360Y-101266565D01*
X110360862Y-101399951D01*
X110271472Y-101489341D01*
X110210148Y-101522825D01*
X110140457Y-101517841D01*
X110084523Y-101475969D01*
X110065530Y-101438946D01*
X109985586Y-101185395D01*
X109812957Y-100768632D01*
X109808459Y-100757773D01*
X109594746Y-100347234D01*
X109594744Y-100347231D01*
X109594741Y-100347225D01*
X109354060Y-99969432D01*
X109346049Y-99956857D01*
X109064292Y-99589664D01*
X109064288Y-99589659D01*
X108751591Y-99248411D01*
X108751588Y-99248408D01*
X108410340Y-98935711D01*
X108410335Y-98935707D01*
X108043142Y-98653950D01*
X107718714Y-98447267D01*
X107652775Y-98405259D01*
X107652771Y-98405257D01*
X107652765Y-98405253D01*
X107242226Y-98191540D01*
X106979977Y-98082913D01*
X106814605Y-98014414D01*
X106608725Y-97949500D01*
X106373182Y-97875233D01*
X105921295Y-97775052D01*
X105921286Y-97775051D01*
X105462407Y-97714638D01*
X105127077Y-97699998D01*
X131894532Y-97699998D01*
X131894532Y-97700001D01*
X131914364Y-97926686D01*
X131914366Y-97926697D01*
X131973258Y-98146488D01*
X131973261Y-98146497D01*
X132069431Y-98352732D01*
X132069432Y-98352734D01*
X132199954Y-98539141D01*
X132360858Y-98700045D01*
X132429952Y-98748425D01*
X132473577Y-98803002D01*
X132480771Y-98872500D01*
X132449248Y-98934855D01*
X132429952Y-98951575D01*
X132360858Y-98999954D01*
X132199954Y-99160858D01*
X132069432Y-99347265D01*
X132069431Y-99347267D01*
X131973261Y-99553502D01*
X131973258Y-99553511D01*
X131914366Y-99773302D01*
X131914364Y-99773313D01*
X131894532Y-99999998D01*
X131894532Y-100000001D01*
X131914364Y-100226686D01*
X131914366Y-100226697D01*
X131973258Y-100446488D01*
X131973261Y-100446497D01*
X132069431Y-100652732D01*
X132069432Y-100652734D01*
X132199954Y-100839141D01*
X132360858Y-101000045D01*
X132360861Y-101000047D01*
X132547266Y-101130568D01*
X132638699Y-101173204D01*
X132691138Y-101219377D01*
X132709822Y-101274776D01*
X132714364Y-101326688D01*
X132714366Y-101326697D01*
X132773258Y-101546488D01*
X132773261Y-101546497D01*
X132869431Y-101752732D01*
X132869432Y-101752734D01*
X132999954Y-101939141D01*
X133160858Y-102100045D01*
X133160861Y-102100047D01*
X133347266Y-102230568D01*
X133553504Y-102326739D01*
X133773308Y-102385635D01*
X133935230Y-102399801D01*
X133999998Y-102405468D01*
X134000000Y-102405468D01*
X134000002Y-102405468D01*
X134062522Y-102399998D01*
X134226692Y-102385635D01*
X134446496Y-102326739D01*
X134652734Y-102230568D01*
X134839139Y-102100047D01*
X135000047Y-101939139D01*
X135130568Y-101752734D01*
X135226739Y-101546496D01*
X135285635Y-101326692D01*
X135305468Y-101100000D01*
X135303597Y-101078619D01*
X135296886Y-101001908D01*
X135285635Y-100873308D01*
X135226739Y-100653504D01*
X135130568Y-100447266D01*
X135000047Y-100260861D01*
X135000045Y-100260858D01*
X134839141Y-100099954D01*
X134652733Y-99969431D01*
X134561298Y-99926794D01*
X134508859Y-99880621D01*
X134490176Y-99825218D01*
X134485635Y-99773309D01*
X134485634Y-99773305D01*
X134473878Y-99729432D01*
X134436426Y-99589658D01*
X134426741Y-99553511D01*
X134426738Y-99553503D01*
X134330568Y-99347266D01*
X134200047Y-99160861D01*
X134200045Y-99160858D01*
X134039142Y-98999955D01*
X134029211Y-98993001D01*
X133970046Y-98951574D01*
X133926422Y-98896999D01*
X133919228Y-98827501D01*
X133950750Y-98765146D01*
X133970047Y-98748425D01*
X134039139Y-98700047D01*
X134200047Y-98539139D01*
X134330568Y-98352734D01*
X134426739Y-98146496D01*
X134485635Y-97926692D01*
X134505468Y-97700000D01*
X134496159Y-97593602D01*
X134509925Y-97525104D01*
X134558540Y-97474921D01*
X134567270Y-97470420D01*
X134652734Y-97430568D01*
X134839139Y-97300047D01*
X135000047Y-97139139D01*
X135130568Y-96952734D01*
X135155159Y-96899998D01*
X136494532Y-96899998D01*
X136494532Y-96900001D01*
X136514364Y-97126686D01*
X136514366Y-97126697D01*
X136573258Y-97346488D01*
X136573260Y-97346492D01*
X136573261Y-97346496D01*
X136597088Y-97397593D01*
X136597089Y-97397595D01*
X136607581Y-97466673D01*
X136597089Y-97502405D01*
X136573262Y-97553502D01*
X136573258Y-97553511D01*
X136514366Y-97773302D01*
X136514364Y-97773313D01*
X136494532Y-97999998D01*
X136494532Y-98000001D01*
X136514364Y-98226686D01*
X136514366Y-98226697D01*
X136573258Y-98446488D01*
X136573261Y-98446497D01*
X136669434Y-98652738D01*
X136669435Y-98652741D01*
X136687737Y-98678879D01*
X136710064Y-98745085D01*
X136693052Y-98812852D01*
X136687737Y-98821121D01*
X136669435Y-98847258D01*
X136669434Y-98847261D01*
X136573261Y-99053502D01*
X136573258Y-99053511D01*
X136514366Y-99273302D01*
X136514364Y-99273313D01*
X136494532Y-99499998D01*
X136494532Y-99500001D01*
X136514364Y-99726686D01*
X136514365Y-99726694D01*
X136526856Y-99773309D01*
X136565601Y-99917908D01*
X136565601Y-99982091D01*
X136543132Y-100065945D01*
X136514365Y-100173305D01*
X136514364Y-100173313D01*
X136494532Y-100399998D01*
X136494532Y-100400001D01*
X136514364Y-100626686D01*
X136514366Y-100626697D01*
X136573258Y-100846488D01*
X136573261Y-100846497D01*
X136669431Y-101052732D01*
X136669432Y-101052734D01*
X136799954Y-101239141D01*
X136960858Y-101400045D01*
X136960861Y-101400047D01*
X137147266Y-101530568D01*
X137353504Y-101626739D01*
X137573308Y-101685635D01*
X137735230Y-101699801D01*
X137799998Y-101705468D01*
X137800000Y-101705468D01*
X137800002Y-101705468D01*
X137856673Y-101700509D01*
X138026692Y-101685635D01*
X138246496Y-101626739D01*
X138452734Y-101530568D01*
X138639139Y-101400047D01*
X138800047Y-101239139D01*
X138810302Y-101224493D01*
X148250464Y-101224493D01*
X148250464Y-101375507D01*
X148267463Y-101438946D01*
X148289551Y-101521380D01*
X148312344Y-101560858D01*
X148365057Y-101652159D01*
X148471841Y-101758943D01*
X148563767Y-101812016D01*
X148602619Y-101834448D01*
X148602620Y-101834448D01*
X148602623Y-101834450D01*
X148748493Y-101873536D01*
X148899504Y-101873536D01*
X148899507Y-101873536D01*
X149045377Y-101834450D01*
X149176159Y-101758943D01*
X149282943Y-101652159D01*
X149358450Y-101521377D01*
X149397536Y-101375507D01*
X149400000Y-101300000D01*
X149397536Y-101224493D01*
X149358450Y-101078623D01*
X149282943Y-100947841D01*
X149176159Y-100841057D01*
X149137303Y-100818623D01*
X149045380Y-100765551D01*
X149045381Y-100765551D01*
X149016353Y-100757773D01*
X148899507Y-100726464D01*
X148899504Y-100726464D01*
X148748496Y-100726464D01*
X148748493Y-100726464D01*
X148631647Y-100757773D01*
X148602619Y-100765551D01*
X148471844Y-100841055D01*
X148471838Y-100841059D01*
X148365059Y-100947838D01*
X148365055Y-100947844D01*
X148289551Y-101078619D01*
X148289550Y-101078623D01*
X148250464Y-101224493D01*
X138810302Y-101224493D01*
X138930568Y-101052734D01*
X139026739Y-100846496D01*
X139085635Y-100626692D01*
X139105468Y-100400000D01*
X139104293Y-100386574D01*
X139093295Y-100260861D01*
X139085635Y-100173308D01*
X139034398Y-99982087D01*
X139034398Y-99917912D01*
X139085635Y-99726692D01*
X139105468Y-99500000D01*
X139085635Y-99273308D01*
X139026739Y-99053504D01*
X138930568Y-98847266D01*
X138912260Y-98821120D01*
X138889935Y-98754918D01*
X138906945Y-98687150D01*
X138912247Y-98678898D01*
X138930568Y-98652734D01*
X139026739Y-98446496D01*
X139085635Y-98226692D01*
X139105468Y-98000000D01*
X139085635Y-97773308D01*
X139026739Y-97553504D01*
X139002910Y-97502405D01*
X138992418Y-97433330D01*
X139002910Y-97397595D01*
X139026739Y-97346496D01*
X139085635Y-97126692D01*
X139105468Y-96900000D01*
X139085635Y-96673308D01*
X139026739Y-96453504D01*
X138930568Y-96247266D01*
X138800047Y-96060861D01*
X138800045Y-96060858D01*
X138639141Y-95899954D01*
X138452734Y-95769432D01*
X138452732Y-95769431D01*
X138246497Y-95673261D01*
X138246488Y-95673258D01*
X138026697Y-95614366D01*
X138026693Y-95614365D01*
X138026692Y-95614365D01*
X138026691Y-95614364D01*
X138026686Y-95614364D01*
X137800002Y-95594532D01*
X137799998Y-95594532D01*
X137573313Y-95614364D01*
X137573302Y-95614366D01*
X137353511Y-95673258D01*
X137353502Y-95673261D01*
X137147267Y-95769431D01*
X137147265Y-95769432D01*
X136960858Y-95899954D01*
X136799954Y-96060858D01*
X136669432Y-96247265D01*
X136669431Y-96247267D01*
X136573261Y-96453502D01*
X136573258Y-96453511D01*
X136514366Y-96673302D01*
X136514364Y-96673313D01*
X136494532Y-96899998D01*
X135155159Y-96899998D01*
X135226739Y-96746496D01*
X135285635Y-96526692D01*
X135305468Y-96300000D01*
X135285635Y-96073308D01*
X135226739Y-95853504D01*
X135130568Y-95647266D01*
X135000047Y-95460861D01*
X135000045Y-95460858D01*
X134839141Y-95299954D01*
X134652734Y-95169432D01*
X134652732Y-95169431D01*
X134446497Y-95073261D01*
X134446488Y-95073258D01*
X134226697Y-95014366D01*
X134226693Y-95014365D01*
X134226692Y-95014365D01*
X134226691Y-95014364D01*
X134226686Y-95014364D01*
X134000002Y-94994532D01*
X133999998Y-94994532D01*
X133773313Y-95014364D01*
X133773302Y-95014366D01*
X133553511Y-95073258D01*
X133553502Y-95073261D01*
X133347267Y-95169431D01*
X133347265Y-95169432D01*
X133160858Y-95299954D01*
X132999954Y-95460858D01*
X132869432Y-95647265D01*
X132869431Y-95647267D01*
X132773261Y-95853502D01*
X132773258Y-95853511D01*
X132714366Y-96073302D01*
X132714364Y-96073313D01*
X132694532Y-96299998D01*
X132694532Y-96300003D01*
X132703839Y-96406396D01*
X132690072Y-96474896D01*
X132641456Y-96525078D01*
X132632718Y-96529583D01*
X132547267Y-96569430D01*
X132547264Y-96569432D01*
X132360858Y-96699954D01*
X132199954Y-96860858D01*
X132069432Y-97047265D01*
X132069431Y-97047267D01*
X131973261Y-97253502D01*
X131973258Y-97253511D01*
X131914366Y-97473302D01*
X131914364Y-97473313D01*
X131894532Y-97699998D01*
X105127077Y-97699998D01*
X105000000Y-97694450D01*
X104537592Y-97714638D01*
X104078713Y-97775051D01*
X104078704Y-97775052D01*
X103626817Y-97875233D01*
X103185395Y-98014414D01*
X102757773Y-98191540D01*
X102347234Y-98405253D01*
X101956857Y-98653950D01*
X101589664Y-98935707D01*
X101589659Y-98935711D01*
X101248411Y-99248408D01*
X101248408Y-99248411D01*
X100935711Y-99589659D01*
X100935707Y-99589664D01*
X100653950Y-99956857D01*
X100405253Y-100347234D01*
X100233989Y-100676231D01*
X100185574Y-100726606D01*
X100117609Y-100742809D01*
X100051673Y-100719695D01*
X100008700Y-100664603D01*
X100000000Y-100618974D01*
X100000000Y-89739998D01*
X102144773Y-89739998D01*
X102144773Y-89740001D01*
X102163657Y-90004027D01*
X102163658Y-90004034D01*
X102219921Y-90262673D01*
X102312426Y-90510690D01*
X102312428Y-90510694D01*
X102439280Y-90743005D01*
X102439285Y-90743013D01*
X102583520Y-90935690D01*
X102607937Y-91001155D01*
X102593085Y-91069427D01*
X102583520Y-91084310D01*
X102439285Y-91276986D01*
X102439280Y-91276994D01*
X102312428Y-91509305D01*
X102312426Y-91509309D01*
X102219921Y-91757326D01*
X102163658Y-92015965D01*
X102163657Y-92015972D01*
X102144773Y-92279998D01*
X102144773Y-92280001D01*
X102163657Y-92544027D01*
X102163658Y-92544034D01*
X102219921Y-92802673D01*
X102312426Y-93050690D01*
X102312428Y-93050694D01*
X102439280Y-93283005D01*
X102439285Y-93283013D01*
X102583520Y-93475690D01*
X102607937Y-93541155D01*
X102593085Y-93609427D01*
X102583520Y-93624310D01*
X102439285Y-93816986D01*
X102439280Y-93816994D01*
X102312428Y-94049305D01*
X102312426Y-94049309D01*
X102219921Y-94297326D01*
X102163658Y-94555965D01*
X102163657Y-94555972D01*
X102144773Y-94819998D01*
X102144773Y-94820001D01*
X102163657Y-95084027D01*
X102163658Y-95084034D01*
X102219921Y-95342673D01*
X102312426Y-95590690D01*
X102312428Y-95590694D01*
X102439280Y-95823005D01*
X102439285Y-95823013D01*
X102597906Y-96034907D01*
X102597922Y-96034925D01*
X102785074Y-96222077D01*
X102785092Y-96222093D01*
X102996986Y-96380714D01*
X102996994Y-96380719D01*
X103229305Y-96507571D01*
X103229309Y-96507573D01*
X103229311Y-96507574D01*
X103477322Y-96600077D01*
X103477325Y-96600077D01*
X103477326Y-96600078D01*
X103672552Y-96642546D01*
X103735974Y-96656343D01*
X103979660Y-96673772D01*
X103999999Y-96675227D01*
X104000000Y-96675227D01*
X104000001Y-96675227D01*
X104018885Y-96673876D01*
X104264026Y-96656343D01*
X104522678Y-96600077D01*
X104770689Y-96507574D01*
X105003011Y-96380716D01*
X105214915Y-96222087D01*
X105402087Y-96034915D01*
X105560716Y-95823011D01*
X105687574Y-95590689D01*
X105780077Y-95342678D01*
X105836343Y-95084026D01*
X105855227Y-94820000D01*
X105836343Y-94555974D01*
X105780659Y-94299998D01*
X120294532Y-94299998D01*
X120294532Y-94300001D01*
X120314364Y-94526686D01*
X120314366Y-94526697D01*
X120373258Y-94746488D01*
X120373261Y-94746497D01*
X120469431Y-94952732D01*
X120469432Y-94952734D01*
X120599954Y-95139141D01*
X120760858Y-95300045D01*
X120760861Y-95300047D01*
X120947266Y-95430568D01*
X121153504Y-95526739D01*
X121373308Y-95585635D01*
X121535230Y-95599801D01*
X121599998Y-95605468D01*
X121600000Y-95605468D01*
X121600002Y-95605468D01*
X121656673Y-95600509D01*
X121826692Y-95585635D01*
X122046496Y-95526739D01*
X122252734Y-95430568D01*
X122439139Y-95300047D01*
X122600047Y-95139139D01*
X122730568Y-94952734D01*
X122826739Y-94746496D01*
X122885635Y-94526692D01*
X122905468Y-94300000D01*
X122885635Y-94073308D01*
X122865992Y-93999998D01*
X142694532Y-93999998D01*
X142694532Y-94000001D01*
X142714364Y-94226686D01*
X142714366Y-94226697D01*
X142773258Y-94446488D01*
X142773261Y-94446497D01*
X142869431Y-94652732D01*
X142869432Y-94652734D01*
X142999954Y-94839141D01*
X143160858Y-95000045D01*
X143160861Y-95000047D01*
X143347266Y-95130568D01*
X143553504Y-95226739D01*
X143773308Y-95285635D01*
X143935230Y-95299801D01*
X143999998Y-95305468D01*
X144000000Y-95305468D01*
X144000002Y-95305468D01*
X144063025Y-95299954D01*
X144226692Y-95285635D01*
X144446496Y-95226739D01*
X144652734Y-95130568D01*
X144839139Y-95000047D01*
X145000047Y-94839139D01*
X145130568Y-94652734D01*
X145226739Y-94446496D01*
X145285635Y-94226692D01*
X145305468Y-94000000D01*
X145296719Y-93899998D01*
X149894532Y-93899998D01*
X149894532Y-93900001D01*
X149914364Y-94126686D01*
X149914366Y-94126697D01*
X149973258Y-94346488D01*
X149973261Y-94346497D01*
X150069431Y-94552732D01*
X150069432Y-94552734D01*
X150199954Y-94739141D01*
X150360858Y-94900045D01*
X150360861Y-94900047D01*
X150547266Y-95030568D01*
X150753504Y-95126739D01*
X150973308Y-95185635D01*
X151135230Y-95199801D01*
X151199998Y-95205468D01*
X151200000Y-95205468D01*
X151200002Y-95205468D01*
X151256673Y-95200509D01*
X151426692Y-95185635D01*
X151646496Y-95126739D01*
X151852734Y-95030568D01*
X152039139Y-94900047D01*
X152200047Y-94739139D01*
X152330568Y-94552734D01*
X152426739Y-94346496D01*
X152485635Y-94126692D01*
X152505468Y-93900000D01*
X152485635Y-93673308D01*
X152428710Y-93460861D01*
X152426741Y-93453511D01*
X152426738Y-93453502D01*
X152414258Y-93426738D01*
X152330568Y-93247266D01*
X152232839Y-93107693D01*
X152200045Y-93060858D01*
X152039141Y-92899954D01*
X151852734Y-92769432D01*
X151852732Y-92769431D01*
X151646497Y-92673261D01*
X151646488Y-92673258D01*
X151426697Y-92614366D01*
X151426693Y-92614365D01*
X151426692Y-92614365D01*
X151426691Y-92614364D01*
X151426686Y-92614364D01*
X151200002Y-92594532D01*
X151199998Y-92594532D01*
X150973313Y-92614364D01*
X150973302Y-92614366D01*
X150753511Y-92673258D01*
X150753502Y-92673261D01*
X150547267Y-92769431D01*
X150547265Y-92769432D01*
X150360858Y-92899954D01*
X150199954Y-93060858D01*
X150069432Y-93247265D01*
X150069431Y-93247267D01*
X149973261Y-93453502D01*
X149973258Y-93453511D01*
X149914366Y-93673302D01*
X149914364Y-93673313D01*
X149894532Y-93899998D01*
X145296719Y-93899998D01*
X145285635Y-93773308D01*
X145226739Y-93553504D01*
X145130568Y-93347266D01*
X145027484Y-93200045D01*
X145000045Y-93160858D01*
X144839141Y-92999954D01*
X144652734Y-92869432D01*
X144652732Y-92869431D01*
X144446497Y-92773261D01*
X144446488Y-92773258D01*
X144226697Y-92714366D01*
X144226693Y-92714365D01*
X144226692Y-92714365D01*
X144226691Y-92714364D01*
X144226686Y-92714364D01*
X144000002Y-92694532D01*
X143999998Y-92694532D01*
X143773313Y-92714364D01*
X143773302Y-92714366D01*
X143553511Y-92773258D01*
X143553502Y-92773261D01*
X143347267Y-92869431D01*
X143347265Y-92869432D01*
X143160858Y-92999954D01*
X142999954Y-93160858D01*
X142869432Y-93347265D01*
X142869431Y-93347267D01*
X142773261Y-93553502D01*
X142773258Y-93553511D01*
X142714366Y-93773302D01*
X142714364Y-93773313D01*
X142694532Y-93999998D01*
X122865992Y-93999998D01*
X122826739Y-93853504D01*
X122730568Y-93647266D01*
X122600047Y-93460861D01*
X122600045Y-93460858D01*
X122439141Y-93299954D01*
X122252734Y-93169432D01*
X122252732Y-93169431D01*
X122046497Y-93073261D01*
X122046488Y-93073258D01*
X121826697Y-93014366D01*
X121826693Y-93014365D01*
X121826692Y-93014365D01*
X121826691Y-93014364D01*
X121826686Y-93014364D01*
X121600002Y-92994532D01*
X121599998Y-92994532D01*
X121373313Y-93014364D01*
X121373302Y-93014366D01*
X121153511Y-93073258D01*
X121153502Y-93073261D01*
X120947267Y-93169431D01*
X120947265Y-93169432D01*
X120760858Y-93299954D01*
X120599954Y-93460858D01*
X120469432Y-93647265D01*
X120469431Y-93647267D01*
X120373261Y-93853502D01*
X120373258Y-93853511D01*
X120314366Y-94073302D01*
X120314364Y-94073313D01*
X120294532Y-94299998D01*
X105780659Y-94299998D01*
X105780077Y-94297322D01*
X105687574Y-94049311D01*
X105560716Y-93816989D01*
X105528017Y-93773308D01*
X105416479Y-93624310D01*
X105392062Y-93558846D01*
X105406914Y-93490573D01*
X105416479Y-93475690D01*
X105478263Y-93393155D01*
X105560716Y-93283011D01*
X105687574Y-93050689D01*
X105780077Y-92802678D01*
X105836343Y-92544026D01*
X105855227Y-92280000D01*
X105849505Y-92199998D01*
X108194532Y-92199998D01*
X108194532Y-92200001D01*
X108214364Y-92426686D01*
X108214366Y-92426697D01*
X108273258Y-92646488D01*
X108273261Y-92646497D01*
X108369431Y-92852732D01*
X108369432Y-92852734D01*
X108499954Y-93039141D01*
X108660858Y-93200045D01*
X108660861Y-93200047D01*
X108847266Y-93330568D01*
X109053504Y-93426739D01*
X109273308Y-93485635D01*
X109435230Y-93499801D01*
X109499998Y-93505468D01*
X109500000Y-93505468D01*
X109500002Y-93505468D01*
X109556673Y-93500509D01*
X109726692Y-93485635D01*
X109946496Y-93426739D01*
X110152734Y-93330568D01*
X110339139Y-93200047D01*
X110500047Y-93039139D01*
X110630568Y-92852734D01*
X110726739Y-92646496D01*
X110785635Y-92426692D01*
X110805468Y-92200000D01*
X110787970Y-91999998D01*
X145494532Y-91999998D01*
X145494532Y-92000001D01*
X145514364Y-92226686D01*
X145514366Y-92226697D01*
X145573258Y-92446488D01*
X145573261Y-92446497D01*
X145669431Y-92652732D01*
X145669432Y-92652734D01*
X145799954Y-92839141D01*
X145960858Y-93000045D01*
X145960861Y-93000047D01*
X146147266Y-93130568D01*
X146353504Y-93226739D01*
X146573308Y-93285635D01*
X146735230Y-93299801D01*
X146799998Y-93305468D01*
X146800000Y-93305468D01*
X146800002Y-93305468D01*
X146863025Y-93299954D01*
X147026692Y-93285635D01*
X147246496Y-93226739D01*
X147452734Y-93130568D01*
X147639139Y-93000047D01*
X147800047Y-92839139D01*
X147930568Y-92652734D01*
X148026739Y-92446496D01*
X148085635Y-92226692D01*
X148105468Y-92000000D01*
X148085635Y-91773308D01*
X148026739Y-91553504D01*
X147930568Y-91347266D01*
X147800047Y-91160861D01*
X147800045Y-91160858D01*
X147639141Y-90999954D01*
X147452734Y-90869432D01*
X147452732Y-90869431D01*
X147246497Y-90773261D01*
X147246488Y-90773258D01*
X147026697Y-90714366D01*
X147026693Y-90714365D01*
X147026692Y-90714365D01*
X147026691Y-90714364D01*
X147026686Y-90714364D01*
X146800002Y-90694532D01*
X146799998Y-90694532D01*
X146573313Y-90714364D01*
X146573302Y-90714366D01*
X146353511Y-90773258D01*
X146353502Y-90773261D01*
X146147267Y-90869431D01*
X146147265Y-90869432D01*
X145960858Y-90999954D01*
X145799954Y-91160858D01*
X145669432Y-91347265D01*
X145669431Y-91347267D01*
X145573261Y-91553502D01*
X145573258Y-91553511D01*
X145514366Y-91773302D01*
X145514364Y-91773313D01*
X145494532Y-91999998D01*
X110787970Y-91999998D01*
X110785635Y-91973308D01*
X110732047Y-91773313D01*
X110726741Y-91753511D01*
X110726738Y-91753502D01*
X110633480Y-91553511D01*
X110630568Y-91547266D01*
X110500047Y-91360861D01*
X110500045Y-91360858D01*
X110339141Y-91199954D01*
X110152734Y-91069432D01*
X110152732Y-91069431D01*
X109946497Y-90973261D01*
X109946488Y-90973258D01*
X109726697Y-90914366D01*
X109726693Y-90914365D01*
X109726692Y-90914365D01*
X109726691Y-90914364D01*
X109726686Y-90914364D01*
X109500002Y-90894532D01*
X109499998Y-90894532D01*
X109273313Y-90914364D01*
X109273302Y-90914366D01*
X109053511Y-90973258D01*
X109053502Y-90973261D01*
X108847267Y-91069431D01*
X108847265Y-91069432D01*
X108660858Y-91199954D01*
X108499954Y-91360858D01*
X108369432Y-91547265D01*
X108369431Y-91547267D01*
X108273261Y-91753502D01*
X108273258Y-91753511D01*
X108214366Y-91973302D01*
X108214364Y-91973313D01*
X108194532Y-92199998D01*
X105849505Y-92199998D01*
X105836343Y-92015974D01*
X105780077Y-91757322D01*
X105687574Y-91509311D01*
X105599090Y-91347266D01*
X105560719Y-91276994D01*
X105560714Y-91276986D01*
X105416479Y-91084310D01*
X105392062Y-91018846D01*
X105406914Y-90950573D01*
X105416479Y-90935690D01*
X105538073Y-90773258D01*
X105560716Y-90743011D01*
X105687574Y-90510689D01*
X105780077Y-90262678D01*
X105836343Y-90004026D01*
X105855227Y-89740000D01*
X105854278Y-89726738D01*
X105847400Y-89630567D01*
X105836343Y-89475974D01*
X105780077Y-89217322D01*
X105687574Y-88969311D01*
X105608717Y-88824896D01*
X105593865Y-88756624D01*
X105618282Y-88691159D01*
X105621426Y-88687134D01*
X105689698Y-88603407D01*
X105743714Y-88499998D01*
X128694532Y-88499998D01*
X128694532Y-88500001D01*
X128714364Y-88726686D01*
X128714366Y-88726697D01*
X128773258Y-88946488D01*
X128773261Y-88946497D01*
X128869431Y-89152732D01*
X128869432Y-89152734D01*
X128999954Y-89339141D01*
X129160858Y-89500045D01*
X129160861Y-89500047D01*
X129347266Y-89630568D01*
X129553504Y-89726739D01*
X129553509Y-89726740D01*
X129553511Y-89726741D01*
X129602995Y-89740000D01*
X129773308Y-89785635D01*
X129935230Y-89799801D01*
X129999998Y-89805468D01*
X130000000Y-89805468D01*
X130000002Y-89805468D01*
X130056673Y-89800509D01*
X130226692Y-89785635D01*
X130446496Y-89726739D01*
X130652734Y-89630568D01*
X130839139Y-89500047D01*
X131000047Y-89339139D01*
X131097474Y-89199998D01*
X148394532Y-89199998D01*
X148394532Y-89200001D01*
X148414364Y-89426686D01*
X148414366Y-89426697D01*
X148473258Y-89646488D01*
X148473261Y-89646497D01*
X148569431Y-89852732D01*
X148569432Y-89852734D01*
X148699954Y-90039141D01*
X148860858Y-90200045D01*
X148860861Y-90200047D01*
X149047266Y-90330568D01*
X149253504Y-90426739D01*
X149473308Y-90485635D01*
X149635230Y-90499801D01*
X149699998Y-90505468D01*
X149700000Y-90505468D01*
X149700002Y-90505468D01*
X149756673Y-90500509D01*
X149926692Y-90485635D01*
X150146496Y-90426739D01*
X150352734Y-90330568D01*
X150539139Y-90200047D01*
X150700047Y-90039139D01*
X150830568Y-89852734D01*
X150926739Y-89646496D01*
X150985635Y-89426692D01*
X151005468Y-89200000D01*
X150985635Y-88973308D01*
X150926739Y-88753504D01*
X150830568Y-88547266D01*
X150700047Y-88360861D01*
X150700045Y-88360858D01*
X150539141Y-88199954D01*
X150352734Y-88069432D01*
X150352732Y-88069431D01*
X150146497Y-87973261D01*
X150146488Y-87973258D01*
X149926697Y-87914366D01*
X149926693Y-87914365D01*
X149926692Y-87914365D01*
X149926691Y-87914364D01*
X149926686Y-87914364D01*
X149700002Y-87894532D01*
X149699998Y-87894532D01*
X149473313Y-87914364D01*
X149473302Y-87914366D01*
X149253511Y-87973258D01*
X149253502Y-87973261D01*
X149047267Y-88069431D01*
X149047265Y-88069432D01*
X148860858Y-88199954D01*
X148699954Y-88360858D01*
X148569432Y-88547265D01*
X148569431Y-88547267D01*
X148473261Y-88753502D01*
X148473258Y-88753511D01*
X148414366Y-88973302D01*
X148414364Y-88973313D01*
X148394532Y-89199998D01*
X131097474Y-89199998D01*
X131130568Y-89152734D01*
X131226739Y-88946496D01*
X131285635Y-88726692D01*
X131305468Y-88500000D01*
X131285635Y-88273308D01*
X131226739Y-88053504D01*
X131130568Y-87847266D01*
X131000047Y-87660861D01*
X131000045Y-87660858D01*
X130839141Y-87499954D01*
X130652734Y-87369432D01*
X130652732Y-87369431D01*
X130446497Y-87273261D01*
X130446488Y-87273258D01*
X130226697Y-87214366D01*
X130226693Y-87214365D01*
X130226692Y-87214365D01*
X130226691Y-87214364D01*
X130226686Y-87214364D01*
X130000002Y-87194532D01*
X129999998Y-87194532D01*
X129773313Y-87214364D01*
X129773302Y-87214366D01*
X129553511Y-87273258D01*
X129553502Y-87273261D01*
X129347267Y-87369431D01*
X129347265Y-87369432D01*
X129160858Y-87499954D01*
X128999954Y-87660858D01*
X128869432Y-87847265D01*
X128869431Y-87847267D01*
X128773261Y-88053502D01*
X128773258Y-88053511D01*
X128714366Y-88273302D01*
X128714364Y-88273313D01*
X128694532Y-88499998D01*
X105743714Y-88499998D01*
X105783909Y-88423049D01*
X105839886Y-88227418D01*
X105850500Y-88108037D01*
X105850499Y-86291964D01*
X105839886Y-86172582D01*
X105783909Y-85976951D01*
X105689698Y-85796593D01*
X105637684Y-85732803D01*
X105561109Y-85638890D01*
X105403409Y-85510304D01*
X105403410Y-85510304D01*
X105403407Y-85510302D01*
X105223049Y-85416091D01*
X105223048Y-85416090D01*
X105223045Y-85416089D01*
X105105829Y-85382550D01*
X105027418Y-85360114D01*
X105027415Y-85360113D01*
X105027413Y-85360113D01*
X104961102Y-85354217D01*
X104908037Y-85349500D01*
X104908032Y-85349500D01*
X103091971Y-85349500D01*
X103091965Y-85349500D01*
X103091964Y-85349501D01*
X103080316Y-85350536D01*
X102972584Y-85360113D01*
X102776954Y-85416089D01*
X102686772Y-85463196D01*
X102596593Y-85510302D01*
X102596591Y-85510303D01*
X102596590Y-85510304D01*
X102438890Y-85638890D01*
X102310304Y-85796590D01*
X102216089Y-85976954D01*
X102160114Y-86172583D01*
X102160113Y-86172586D01*
X102149500Y-86291966D01*
X102149500Y-88108028D01*
X102149501Y-88108034D01*
X102160113Y-88227415D01*
X102216089Y-88423045D01*
X102216090Y-88423047D01*
X102216091Y-88423049D01*
X102310302Y-88603407D01*
X102310304Y-88603409D01*
X102378551Y-88687108D01*
X102405660Y-88751505D01*
X102393651Y-88820334D01*
X102391282Y-88824895D01*
X102312426Y-88969309D01*
X102219921Y-89217326D01*
X102163658Y-89475965D01*
X102163657Y-89475972D01*
X102144773Y-89739998D01*
X100000000Y-89739998D01*
X100000000Y-77999998D01*
X102144773Y-77999998D01*
X102144773Y-78000001D01*
X102163657Y-78264027D01*
X102163658Y-78264034D01*
X102219921Y-78522673D01*
X102312426Y-78770690D01*
X102312428Y-78770694D01*
X102439280Y-79003005D01*
X102439285Y-79003013D01*
X102583520Y-79195690D01*
X102607937Y-79261155D01*
X102593085Y-79329427D01*
X102583520Y-79344310D01*
X102439285Y-79536986D01*
X102439280Y-79536994D01*
X102312428Y-79769305D01*
X102312426Y-79769309D01*
X102219921Y-80017326D01*
X102163658Y-80275965D01*
X102163657Y-80275972D01*
X102144773Y-80539998D01*
X102144773Y-80540001D01*
X102163657Y-80804027D01*
X102163658Y-80804034D01*
X102219921Y-81062673D01*
X102312426Y-81310690D01*
X102312428Y-81310694D01*
X102439280Y-81543005D01*
X102439285Y-81543013D01*
X102583520Y-81735690D01*
X102607937Y-81801155D01*
X102593085Y-81869427D01*
X102583520Y-81884310D01*
X102439285Y-82076986D01*
X102439280Y-82076994D01*
X102312428Y-82309305D01*
X102312426Y-82309309D01*
X102219921Y-82557326D01*
X102163658Y-82815965D01*
X102163657Y-82815972D01*
X102144773Y-83079998D01*
X102144773Y-83080001D01*
X102163657Y-83344027D01*
X102163658Y-83344034D01*
X102219921Y-83602673D01*
X102312426Y-83850690D01*
X102312428Y-83850694D01*
X102439280Y-84083005D01*
X102439285Y-84083013D01*
X102597906Y-84294907D01*
X102597922Y-84294925D01*
X102785074Y-84482077D01*
X102785092Y-84482093D01*
X102996986Y-84640714D01*
X102996994Y-84640719D01*
X103229305Y-84767571D01*
X103229309Y-84767573D01*
X103229311Y-84767574D01*
X103477322Y-84860077D01*
X103477325Y-84860077D01*
X103477326Y-84860078D01*
X103660837Y-84899998D01*
X103735974Y-84916343D01*
X103979660Y-84933772D01*
X103999999Y-84935227D01*
X104000000Y-84935227D01*
X104000001Y-84935227D01*
X104018885Y-84933876D01*
X104264026Y-84916343D01*
X104339163Y-84899998D01*
X139394532Y-84899998D01*
X139394532Y-84900001D01*
X139414364Y-85126686D01*
X139414366Y-85126697D01*
X139473258Y-85346488D01*
X139473260Y-85346492D01*
X139473261Y-85346496D01*
X139505713Y-85416089D01*
X139543720Y-85497595D01*
X139554212Y-85566673D01*
X139543720Y-85602405D01*
X139473262Y-85753502D01*
X139473258Y-85753511D01*
X139414366Y-85973302D01*
X139414364Y-85973313D01*
X139394532Y-86199998D01*
X139394532Y-86200001D01*
X139414364Y-86426686D01*
X139414366Y-86426697D01*
X139473258Y-86646488D01*
X139473261Y-86646497D01*
X139569431Y-86852732D01*
X139569432Y-86852734D01*
X139699954Y-87039141D01*
X139860858Y-87200045D01*
X139860861Y-87200047D01*
X140047266Y-87330568D01*
X140253504Y-87426739D01*
X140473308Y-87485635D01*
X140635230Y-87499801D01*
X140699998Y-87505468D01*
X140700000Y-87505468D01*
X140700002Y-87505468D01*
X140763025Y-87499954D01*
X140926692Y-87485635D01*
X141146496Y-87426739D01*
X141352734Y-87330568D01*
X141539139Y-87200047D01*
X141700047Y-87039139D01*
X141830568Y-86852734D01*
X141926739Y-86646496D01*
X141985635Y-86426692D01*
X142005468Y-86200000D01*
X142003069Y-86172584D01*
X141985954Y-85976954D01*
X141985635Y-85973308D01*
X141926739Y-85753504D01*
X141856278Y-85602404D01*
X141845787Y-85533328D01*
X141856279Y-85497595D01*
X141926739Y-85346496D01*
X141985635Y-85126692D01*
X142005468Y-84900000D01*
X141985635Y-84673308D01*
X141926739Y-84453504D01*
X141830568Y-84247266D01*
X141715558Y-84083013D01*
X141700045Y-84060858D01*
X141539141Y-83899954D01*
X141352734Y-83769432D01*
X141352732Y-83769431D01*
X141146497Y-83673261D01*
X141146488Y-83673258D01*
X140926697Y-83614366D01*
X140926693Y-83614365D01*
X140926692Y-83614365D01*
X140926691Y-83614364D01*
X140926686Y-83614364D01*
X140700002Y-83594532D01*
X140699998Y-83594532D01*
X140473313Y-83614364D01*
X140473302Y-83614366D01*
X140253511Y-83673258D01*
X140253502Y-83673261D01*
X140047267Y-83769431D01*
X140047265Y-83769432D01*
X139860858Y-83899954D01*
X139699954Y-84060858D01*
X139569432Y-84247265D01*
X139569431Y-84247267D01*
X139473261Y-84453502D01*
X139473258Y-84453511D01*
X139414366Y-84673302D01*
X139414364Y-84673313D01*
X139394532Y-84899998D01*
X104339163Y-84899998D01*
X104522678Y-84860077D01*
X104770689Y-84767574D01*
X105003011Y-84640716D01*
X105214915Y-84482087D01*
X105402087Y-84294915D01*
X105560716Y-84083011D01*
X105687574Y-83850689D01*
X105780077Y-83602678D01*
X105836343Y-83344026D01*
X105855227Y-83080000D01*
X105836343Y-82815974D01*
X105780077Y-82557322D01*
X105687574Y-82309311D01*
X105684843Y-82304310D01*
X105560719Y-82076994D01*
X105560714Y-82076986D01*
X105419848Y-81888810D01*
X105395431Y-81823346D01*
X105410283Y-81755073D01*
X105459688Y-81705668D01*
X105519115Y-81690500D01*
X116071425Y-81690500D01*
X116071449Y-81690501D01*
X116076560Y-81690501D01*
X116257651Y-81690501D01*
X116257652Y-81690501D01*
X116436515Y-81662171D01*
X116608745Y-81606211D01*
X116770100Y-81523996D01*
X116916607Y-81417553D01*
X117044659Y-81289501D01*
X117044660Y-81289499D01*
X117051720Y-81282439D01*
X117051726Y-81282432D01*
X120459806Y-77874351D01*
X120521127Y-77840868D01*
X120590819Y-77845852D01*
X120635166Y-77874353D01*
X120760858Y-78000045D01*
X120767902Y-78004977D01*
X120947266Y-78130568D01*
X121153504Y-78226739D01*
X121373308Y-78285635D01*
X121535230Y-78299801D01*
X121599998Y-78305468D01*
X121600000Y-78305468D01*
X121600002Y-78305468D01*
X121656673Y-78300509D01*
X121826692Y-78285635D01*
X122046496Y-78226739D01*
X122252734Y-78130568D01*
X122439139Y-78000047D01*
X122600047Y-77839139D01*
X122698425Y-77698638D01*
X122753001Y-77655014D01*
X122822500Y-77647820D01*
X122884854Y-77679342D01*
X122901573Y-77698637D01*
X122936622Y-77748692D01*
X122999954Y-77839141D01*
X123160858Y-78000045D01*
X123167902Y-78004977D01*
X123347266Y-78130568D01*
X123553504Y-78226739D01*
X123773308Y-78285635D01*
X123935230Y-78299801D01*
X123999998Y-78305468D01*
X124000000Y-78305468D01*
X124000002Y-78305468D01*
X124056673Y-78300509D01*
X124226692Y-78285635D01*
X124446496Y-78226739D01*
X124652734Y-78130568D01*
X124839139Y-78000047D01*
X125000047Y-77839139D01*
X125130568Y-77652734D01*
X125226739Y-77446496D01*
X125285635Y-77226692D01*
X125305468Y-77000000D01*
X125285635Y-76773308D01*
X125232047Y-76573313D01*
X125226741Y-76553511D01*
X125226738Y-76553502D01*
X125201790Y-76500001D01*
X125130568Y-76347266D01*
X125000047Y-76160861D01*
X125000045Y-76160858D01*
X124839141Y-75999954D01*
X124652734Y-75869432D01*
X124652732Y-75869431D01*
X124446497Y-75773261D01*
X124446488Y-75773258D01*
X124226697Y-75714366D01*
X124226693Y-75714365D01*
X124226692Y-75714365D01*
X124226691Y-75714364D01*
X124226686Y-75714364D01*
X124000002Y-75694532D01*
X123999998Y-75694532D01*
X123773313Y-75714364D01*
X123773302Y-75714366D01*
X123553511Y-75773258D01*
X123553502Y-75773261D01*
X123347267Y-75869431D01*
X123347265Y-75869432D01*
X123160858Y-75999954D01*
X122999954Y-76160858D01*
X122901575Y-76301360D01*
X122846998Y-76344985D01*
X122777500Y-76352179D01*
X122715145Y-76320656D01*
X122698425Y-76301360D01*
X122600045Y-76160858D01*
X122474353Y-76035166D01*
X122440868Y-75973843D01*
X122445852Y-75904151D01*
X122474351Y-75859806D01*
X124997340Y-73336819D01*
X125058663Y-73303334D01*
X125085021Y-73300500D01*
X126025500Y-73300500D01*
X126092539Y-73320185D01*
X126138294Y-73372989D01*
X126149500Y-73424500D01*
X126149500Y-76362519D01*
X126137882Y-76414924D01*
X126073262Y-76553502D01*
X126073258Y-76553511D01*
X126014366Y-76773302D01*
X126014364Y-76773313D01*
X125994532Y-76999998D01*
X125994532Y-77000001D01*
X126014364Y-77226686D01*
X126014366Y-77226697D01*
X126073258Y-77446488D01*
X126073261Y-77446497D01*
X126169431Y-77652732D01*
X126169432Y-77652734D01*
X126299954Y-77839141D01*
X126460861Y-78000048D01*
X126465006Y-78003526D01*
X126463788Y-78004977D01*
X126502178Y-78053026D01*
X126509357Y-78122526D01*
X126477821Y-78184874D01*
X126464765Y-78196187D01*
X126465006Y-78196474D01*
X126460861Y-78199951D01*
X126299954Y-78360858D01*
X126169432Y-78547265D01*
X126169431Y-78547267D01*
X126073261Y-78753502D01*
X126073258Y-78753511D01*
X126014366Y-78973302D01*
X126014364Y-78973313D01*
X125994532Y-79199998D01*
X125994532Y-79200001D01*
X126014364Y-79426686D01*
X126014366Y-79426697D01*
X126073258Y-79646488D01*
X126073261Y-79646497D01*
X126169431Y-79852732D01*
X126169432Y-79852734D01*
X126299954Y-80039141D01*
X126460858Y-80200045D01*
X126460861Y-80200047D01*
X126647266Y-80330568D01*
X126853504Y-80426739D01*
X127073308Y-80485635D01*
X127235230Y-80499801D01*
X127299998Y-80505468D01*
X127300000Y-80505468D01*
X127300002Y-80505468D01*
X127356673Y-80500509D01*
X127526692Y-80485635D01*
X127746496Y-80426739D01*
X127952734Y-80330568D01*
X128139139Y-80200047D01*
X128300047Y-80039139D01*
X128430568Y-79852734D01*
X128526739Y-79646496D01*
X128535043Y-79615501D01*
X128567135Y-79559916D01*
X129627054Y-78499998D01*
X139794532Y-78499998D01*
X139794532Y-78500001D01*
X139814364Y-78726686D01*
X139814366Y-78726697D01*
X139873258Y-78946488D01*
X139873261Y-78946497D01*
X139969431Y-79152732D01*
X139969432Y-79152734D01*
X140099954Y-79339141D01*
X140260858Y-79500045D01*
X140260861Y-79500047D01*
X140447266Y-79630568D01*
X140653504Y-79726739D01*
X140873308Y-79785635D01*
X141035230Y-79799801D01*
X141099998Y-79805468D01*
X141100000Y-79805468D01*
X141100002Y-79805468D01*
X141156673Y-79800509D01*
X141326692Y-79785635D01*
X141546496Y-79726739D01*
X141752734Y-79630568D01*
X141939139Y-79500047D01*
X142100047Y-79339139D01*
X142230568Y-79152734D01*
X142326739Y-78946496D01*
X142385635Y-78726692D01*
X142404004Y-78516722D01*
X142429456Y-78451656D01*
X142473175Y-78419998D01*
X153644773Y-78419998D01*
X153644773Y-78420001D01*
X153663657Y-78684027D01*
X153663658Y-78684034D01*
X153719921Y-78942673D01*
X153812426Y-79190690D01*
X153812428Y-79190694D01*
X153939280Y-79423005D01*
X153939285Y-79423013D01*
X154083520Y-79615690D01*
X154107937Y-79681155D01*
X154093085Y-79749427D01*
X154083520Y-79764310D01*
X153939285Y-79956986D01*
X153939280Y-79956994D01*
X153812428Y-80189305D01*
X153812426Y-80189309D01*
X153719921Y-80437326D01*
X153663658Y-80695965D01*
X153663657Y-80695972D01*
X153644773Y-80959998D01*
X153644773Y-80960001D01*
X153663657Y-81224027D01*
X153663658Y-81224034D01*
X153719921Y-81482673D01*
X153812426Y-81730690D01*
X153812428Y-81730694D01*
X153939280Y-81963005D01*
X153939285Y-81963013D01*
X154083520Y-82155690D01*
X154107937Y-82221155D01*
X154093085Y-82289427D01*
X154083520Y-82304310D01*
X153939285Y-82496986D01*
X153939280Y-82496994D01*
X153812428Y-82729305D01*
X153812426Y-82729309D01*
X153719921Y-82977326D01*
X153663658Y-83235965D01*
X153663657Y-83235972D01*
X153644773Y-83499998D01*
X153644773Y-83500001D01*
X153663657Y-83764027D01*
X153663658Y-83764034D01*
X153719921Y-84022673D01*
X153812426Y-84270690D01*
X153812428Y-84270694D01*
X153939280Y-84503005D01*
X153939285Y-84503013D01*
X154097906Y-84714907D01*
X154097922Y-84714925D01*
X154285074Y-84902077D01*
X154285092Y-84902093D01*
X154496986Y-85060714D01*
X154496994Y-85060719D01*
X154729305Y-85187571D01*
X154729309Y-85187573D01*
X154729311Y-85187574D01*
X154977322Y-85280077D01*
X154977325Y-85280077D01*
X154977326Y-85280078D01*
X155172552Y-85322546D01*
X155235974Y-85336343D01*
X155479660Y-85353772D01*
X155499999Y-85355227D01*
X155500000Y-85355227D01*
X155500001Y-85355227D01*
X155518885Y-85353876D01*
X155764026Y-85336343D01*
X156022678Y-85280077D01*
X156270689Y-85187574D01*
X156503011Y-85060716D01*
X156714915Y-84902087D01*
X156902087Y-84714915D01*
X157060716Y-84503011D01*
X157187574Y-84270689D01*
X157280077Y-84022678D01*
X157336343Y-83764026D01*
X157355227Y-83500000D01*
X157336343Y-83235974D01*
X157280077Y-82977322D01*
X157187574Y-82729311D01*
X157093660Y-82557322D01*
X157060719Y-82496994D01*
X157060714Y-82496986D01*
X156916479Y-82304310D01*
X156892062Y-82238846D01*
X156906914Y-82170573D01*
X156916479Y-82155690D01*
X156978263Y-82073155D01*
X157060716Y-81963011D01*
X157187574Y-81730689D01*
X157280077Y-81482678D01*
X157336343Y-81224026D01*
X157355227Y-80960000D01*
X157336343Y-80695974D01*
X157280077Y-80437322D01*
X157187574Y-80189311D01*
X157093660Y-80017322D01*
X157060719Y-79956994D01*
X157060714Y-79956986D01*
X156916479Y-79764310D01*
X156892062Y-79698846D01*
X156906914Y-79630573D01*
X156916479Y-79615690D01*
X157003049Y-79500045D01*
X157060716Y-79423011D01*
X157187574Y-79190689D01*
X157280077Y-78942678D01*
X157336343Y-78684026D01*
X157355227Y-78420000D01*
X157336343Y-78155974D01*
X157280077Y-77897322D01*
X157187574Y-77649311D01*
X157122734Y-77530567D01*
X157108717Y-77504896D01*
X157093865Y-77436624D01*
X157118282Y-77371159D01*
X157121426Y-77367134D01*
X157189698Y-77283407D01*
X157283909Y-77103049D01*
X157339886Y-76907418D01*
X157350500Y-76788037D01*
X157350499Y-74971964D01*
X157339886Y-74852582D01*
X157283909Y-74656951D01*
X157189698Y-74476593D01*
X157137684Y-74412803D01*
X157061109Y-74318890D01*
X156903409Y-74190304D01*
X156903410Y-74190304D01*
X156903407Y-74190302D01*
X156723049Y-74096091D01*
X156723048Y-74096090D01*
X156723045Y-74096089D01*
X156605829Y-74062550D01*
X156527418Y-74040114D01*
X156527415Y-74040113D01*
X156527413Y-74040113D01*
X156461102Y-74034217D01*
X156408037Y-74029500D01*
X156408032Y-74029500D01*
X154591971Y-74029500D01*
X154591965Y-74029500D01*
X154591964Y-74029501D01*
X154580316Y-74030536D01*
X154472584Y-74040113D01*
X154276954Y-74096089D01*
X154186772Y-74143196D01*
X154096593Y-74190302D01*
X154096591Y-74190303D01*
X154096590Y-74190304D01*
X153938890Y-74318890D01*
X153810304Y-74476590D01*
X153810302Y-74476593D01*
X153770928Y-74551971D01*
X153716089Y-74656954D01*
X153660114Y-74852583D01*
X153660113Y-74852586D01*
X153649500Y-74971966D01*
X153649500Y-76788028D01*
X153649500Y-76788033D01*
X153649501Y-76788036D01*
X153650565Y-76800000D01*
X153660113Y-76907415D01*
X153716089Y-77103045D01*
X153716090Y-77103047D01*
X153716091Y-77103049D01*
X153810302Y-77283407D01*
X153810304Y-77283409D01*
X153878551Y-77367108D01*
X153905660Y-77431505D01*
X153893651Y-77500334D01*
X153891282Y-77504895D01*
X153812426Y-77649309D01*
X153719921Y-77897326D01*
X153663658Y-78155965D01*
X153663657Y-78155972D01*
X153644773Y-78419998D01*
X142473175Y-78419998D01*
X142486047Y-78410677D01*
X142516719Y-78404005D01*
X142726692Y-78385635D01*
X142946496Y-78326739D01*
X143152734Y-78230568D01*
X143339139Y-78100047D01*
X143500047Y-77939139D01*
X143630568Y-77752734D01*
X143633277Y-77748043D01*
X143634402Y-77748692D01*
X143676420Y-77700958D01*
X143743611Y-77681797D01*
X143767903Y-77685091D01*
X143767974Y-77684694D01*
X143773298Y-77685632D01*
X143773308Y-77685635D01*
X143935230Y-77699801D01*
X143999998Y-77705468D01*
X144000000Y-77705468D01*
X144000002Y-77705468D01*
X144056673Y-77700509D01*
X144226692Y-77685635D01*
X144446496Y-77626739D01*
X144652734Y-77530568D01*
X144839139Y-77400047D01*
X145000047Y-77239139D01*
X145130568Y-77052734D01*
X145226739Y-76846496D01*
X145285635Y-76626692D01*
X145305468Y-76400000D01*
X145285635Y-76173308D01*
X145228710Y-75960861D01*
X145226741Y-75953511D01*
X145226738Y-75953502D01*
X145187535Y-75869431D01*
X145130568Y-75747266D01*
X145032839Y-75607693D01*
X145000045Y-75560858D01*
X144839141Y-75399954D01*
X144652734Y-75269432D01*
X144652732Y-75269431D01*
X144446497Y-75173261D01*
X144446488Y-75173258D01*
X144226697Y-75114366D01*
X144226693Y-75114365D01*
X144226692Y-75114365D01*
X144226691Y-75114364D01*
X144226686Y-75114364D01*
X144000002Y-75094532D01*
X143999998Y-75094532D01*
X143773313Y-75114364D01*
X143773302Y-75114366D01*
X143553511Y-75173258D01*
X143553502Y-75173261D01*
X143347267Y-75269431D01*
X143347265Y-75269432D01*
X143160858Y-75399954D01*
X142999954Y-75560858D01*
X142869430Y-75747268D01*
X142866721Y-75751961D01*
X142865602Y-75751315D01*
X142823538Y-75799066D01*
X142756340Y-75818202D01*
X142732095Y-75814911D01*
X142732026Y-75815306D01*
X142726686Y-75814364D01*
X142500002Y-75794532D01*
X142499998Y-75794532D01*
X142273313Y-75814364D01*
X142273302Y-75814366D01*
X142053511Y-75873258D01*
X142053502Y-75873261D01*
X141847267Y-75969431D01*
X141847265Y-75969432D01*
X141660858Y-76099954D01*
X141499954Y-76260858D01*
X141369432Y-76447265D01*
X141369431Y-76447267D01*
X141273261Y-76653502D01*
X141273258Y-76653511D01*
X141214366Y-76873302D01*
X141214364Y-76873312D01*
X141195995Y-77083275D01*
X141170542Y-77148343D01*
X141113952Y-77189322D01*
X141083275Y-77195995D01*
X140873312Y-77214364D01*
X140873302Y-77214366D01*
X140653511Y-77273258D01*
X140653502Y-77273261D01*
X140447267Y-77369431D01*
X140447265Y-77369432D01*
X140260858Y-77499954D01*
X140099954Y-77660858D01*
X139969432Y-77847265D01*
X139969431Y-77847267D01*
X139873261Y-78053502D01*
X139873258Y-78053511D01*
X139814366Y-78273302D01*
X139814364Y-78273313D01*
X139794532Y-78499998D01*
X129627054Y-78499998D01*
X130242432Y-77884620D01*
X130242439Y-77884614D01*
X130249499Y-77877554D01*
X130249501Y-77877553D01*
X130377553Y-77749501D01*
X130399655Y-77719078D01*
X130454982Y-77676414D01*
X130524595Y-77670433D01*
X130552370Y-77679579D01*
X130653504Y-77726739D01*
X130873308Y-77785635D01*
X131035230Y-77799801D01*
X131099998Y-77805468D01*
X131100000Y-77805468D01*
X131100002Y-77805468D01*
X131131421Y-77802719D01*
X131326692Y-77785635D01*
X131357167Y-77777469D01*
X131427016Y-77779130D01*
X131484879Y-77818291D01*
X131490838Y-77826121D01*
X131499955Y-77839142D01*
X131660858Y-78000045D01*
X131667902Y-78004977D01*
X131847266Y-78130568D01*
X132053504Y-78226739D01*
X132273308Y-78285635D01*
X132435230Y-78299801D01*
X132499998Y-78305468D01*
X132500000Y-78305468D01*
X132500002Y-78305468D01*
X132556673Y-78300509D01*
X132726692Y-78285635D01*
X132946496Y-78226739D01*
X132947583Y-78226231D01*
X132948109Y-78226151D01*
X132951582Y-78224888D01*
X132951835Y-78225585D01*
X133016659Y-78215732D01*
X133048362Y-78225041D01*
X133048418Y-78224888D01*
X133050830Y-78225766D01*
X133052416Y-78226231D01*
X133053504Y-78226739D01*
X133273308Y-78285635D01*
X133435230Y-78299801D01*
X133499998Y-78305468D01*
X133500000Y-78305468D01*
X133500002Y-78305468D01*
X133556673Y-78300509D01*
X133726692Y-78285635D01*
X133946496Y-78226739D01*
X134152734Y-78130568D01*
X134339139Y-78000047D01*
X134500047Y-77839139D01*
X134630568Y-77652734D01*
X134726739Y-77446496D01*
X134785635Y-77226692D01*
X134805468Y-77000000D01*
X134787970Y-76799998D01*
X137394532Y-76799998D01*
X137394532Y-76800001D01*
X137414364Y-77026686D01*
X137414366Y-77026697D01*
X137473258Y-77246488D01*
X137473261Y-77246497D01*
X137569431Y-77452732D01*
X137569432Y-77452734D01*
X137699954Y-77639141D01*
X137860858Y-77800045D01*
X137860861Y-77800047D01*
X138047266Y-77930568D01*
X138253504Y-78026739D01*
X138473308Y-78085635D01*
X138635230Y-78099801D01*
X138699998Y-78105468D01*
X138700000Y-78105468D01*
X138700002Y-78105468D01*
X138762499Y-78100000D01*
X138926692Y-78085635D01*
X139146496Y-78026739D01*
X139352734Y-77930568D01*
X139539139Y-77800047D01*
X139700047Y-77639139D01*
X139830568Y-77452734D01*
X139926739Y-77246496D01*
X139985635Y-77026692D01*
X140005468Y-76800000D01*
X140004421Y-76788037D01*
X139997406Y-76707853D01*
X139985635Y-76573308D01*
X139926739Y-76353504D01*
X139830568Y-76147266D01*
X139709137Y-75973843D01*
X139700045Y-75960858D01*
X139539141Y-75799954D01*
X139352734Y-75669432D01*
X139352732Y-75669431D01*
X139146497Y-75573261D01*
X139146488Y-75573258D01*
X138926697Y-75514366D01*
X138926693Y-75514365D01*
X138926692Y-75514365D01*
X138926691Y-75514364D01*
X138926686Y-75514364D01*
X138700002Y-75494532D01*
X138699998Y-75494532D01*
X138473313Y-75514364D01*
X138473302Y-75514366D01*
X138253511Y-75573258D01*
X138253502Y-75573261D01*
X138047267Y-75669431D01*
X138047265Y-75669432D01*
X137860858Y-75799954D01*
X137699954Y-75960858D01*
X137569432Y-76147265D01*
X137569431Y-76147267D01*
X137473261Y-76353502D01*
X137473258Y-76353511D01*
X137414366Y-76573302D01*
X137414364Y-76573313D01*
X137394532Y-76799998D01*
X134787970Y-76799998D01*
X134785635Y-76773308D01*
X134732047Y-76573313D01*
X134726741Y-76553511D01*
X134726738Y-76553502D01*
X134701790Y-76500001D01*
X134630568Y-76347266D01*
X134500047Y-76160861D01*
X134500045Y-76160858D01*
X134339141Y-75999954D01*
X134152734Y-75869432D01*
X134152732Y-75869431D01*
X133946497Y-75773261D01*
X133946488Y-75773258D01*
X133726697Y-75714366D01*
X133726693Y-75714365D01*
X133726692Y-75714365D01*
X133726691Y-75714364D01*
X133726686Y-75714364D01*
X133500002Y-75694532D01*
X133499998Y-75694532D01*
X133273313Y-75714364D01*
X133273302Y-75714366D01*
X133053508Y-75773259D01*
X133053504Y-75773261D01*
X133052401Y-75773775D01*
X133051868Y-75773856D01*
X133048427Y-75775109D01*
X133048175Y-75774417D01*
X132983325Y-75784266D01*
X132951627Y-75774958D01*
X132951573Y-75775109D01*
X132949208Y-75774248D01*
X132947600Y-75773776D01*
X132946496Y-75773261D01*
X132946494Y-75773260D01*
X132946491Y-75773259D01*
X132726697Y-75714366D01*
X132726693Y-75714365D01*
X132726692Y-75714365D01*
X132726691Y-75714364D01*
X132726686Y-75714364D01*
X132500002Y-75694532D01*
X132499998Y-75694532D01*
X132273313Y-75714364D01*
X132273296Y-75714367D01*
X132242828Y-75722531D01*
X132172979Y-75720867D01*
X132115117Y-75681704D01*
X132109169Y-75673889D01*
X132100047Y-75660861D01*
X132100044Y-75660858D01*
X132100043Y-75660856D01*
X131939141Y-75499954D01*
X131752734Y-75369432D01*
X131752732Y-75369431D01*
X131682592Y-75336724D01*
X131630153Y-75290551D01*
X131611001Y-75223358D01*
X131631217Y-75156476D01*
X131663871Y-75122769D01*
X131839139Y-75000047D01*
X132000047Y-74839139D01*
X132130568Y-74652734D01*
X132226739Y-74446496D01*
X132285635Y-74226692D01*
X132305468Y-74000000D01*
X132285635Y-73773308D01*
X132226739Y-73553504D01*
X132130568Y-73347266D01*
X132130566Y-73347262D01*
X132107135Y-73313800D01*
X132084807Y-73247594D01*
X132085181Y-73231868D01*
X132085633Y-73226698D01*
X132085635Y-73226692D01*
X132105468Y-73000000D01*
X132085635Y-72773308D01*
X132028672Y-72560719D01*
X132026741Y-72553511D01*
X132026738Y-72553502D01*
X132016043Y-72530567D01*
X131930568Y-72347266D01*
X131800047Y-72160861D01*
X131800045Y-72160858D01*
X131639141Y-71999954D01*
X131452734Y-71869432D01*
X131452732Y-71869431D01*
X131246497Y-71773261D01*
X131246488Y-71773258D01*
X131026697Y-71714366D01*
X131026687Y-71714364D01*
X130957355Y-71708298D01*
X130892287Y-71682845D01*
X130866589Y-71655893D01*
X130800045Y-71560858D01*
X130639185Y-71399998D01*
X136294532Y-71399998D01*
X136294532Y-71400001D01*
X136314364Y-71626686D01*
X136314366Y-71626697D01*
X136373258Y-71846488D01*
X136373261Y-71846497D01*
X136469431Y-72052732D01*
X136469432Y-72052734D01*
X136599954Y-72239141D01*
X136760858Y-72400045D01*
X136760861Y-72400047D01*
X136947266Y-72530568D01*
X137153504Y-72626739D01*
X137373308Y-72685635D01*
X137535230Y-72699801D01*
X137599998Y-72705468D01*
X137600000Y-72705468D01*
X137600002Y-72705468D01*
X137656673Y-72700509D01*
X137826692Y-72685635D01*
X138046496Y-72626739D01*
X138252734Y-72530568D01*
X138439139Y-72400047D01*
X138600047Y-72239139D01*
X138730568Y-72052734D01*
X138826739Y-71846496D01*
X138885635Y-71626692D01*
X138905468Y-71400000D01*
X138885635Y-71173308D01*
X138826739Y-70953504D01*
X138730568Y-70747266D01*
X138611338Y-70576986D01*
X138600045Y-70560858D01*
X138439141Y-70399954D01*
X138252734Y-70269432D01*
X138252732Y-70269431D01*
X138046497Y-70173261D01*
X138046488Y-70173258D01*
X137826697Y-70114366D01*
X137826693Y-70114365D01*
X137826692Y-70114365D01*
X137826691Y-70114364D01*
X137826686Y-70114364D01*
X137600002Y-70094532D01*
X137599998Y-70094532D01*
X137373313Y-70114364D01*
X137373302Y-70114366D01*
X137153511Y-70173258D01*
X137153502Y-70173261D01*
X136947267Y-70269431D01*
X136947265Y-70269432D01*
X136760858Y-70399954D01*
X136599954Y-70560858D01*
X136469432Y-70747265D01*
X136469431Y-70747267D01*
X136373261Y-70953502D01*
X136373258Y-70953511D01*
X136314366Y-71173302D01*
X136314364Y-71173313D01*
X136294532Y-71399998D01*
X130639185Y-71399998D01*
X130639141Y-71399954D01*
X130452734Y-71269432D01*
X130452732Y-71269431D01*
X130246495Y-71173260D01*
X130122728Y-71140096D01*
X130063068Y-71103731D01*
X130042441Y-71072727D01*
X130030569Y-71047268D01*
X130007530Y-71014365D01*
X129900047Y-70860861D01*
X129900045Y-70860858D01*
X129739141Y-70699954D01*
X129552734Y-70569432D01*
X129552732Y-70569431D01*
X129346497Y-70473261D01*
X129346488Y-70473258D01*
X129126697Y-70414366D01*
X129126693Y-70414365D01*
X129126692Y-70414365D01*
X129126691Y-70414364D01*
X129126686Y-70414364D01*
X128900002Y-70394532D01*
X128899998Y-70394532D01*
X128673313Y-70414364D01*
X128673299Y-70414367D01*
X128638440Y-70423707D01*
X128568590Y-70422043D01*
X128518668Y-70391614D01*
X128399501Y-70272447D01*
X128399500Y-70272446D01*
X128396389Y-70269335D01*
X128396374Y-70269321D01*
X128267137Y-70140084D01*
X128235043Y-70084495D01*
X128226740Y-70053508D01*
X128226739Y-70053504D01*
X128130568Y-69847267D01*
X128130567Y-69847265D01*
X128000048Y-69660862D01*
X127991918Y-69652732D01*
X127926865Y-69587679D01*
X127893382Y-69526359D01*
X127898366Y-69456667D01*
X127926865Y-69412320D01*
X128000047Y-69339139D01*
X128130568Y-69152734D01*
X128226739Y-68946496D01*
X128239198Y-68899998D01*
X131594532Y-68899998D01*
X131594532Y-68900001D01*
X131614364Y-69126686D01*
X131614366Y-69126697D01*
X131673258Y-69346488D01*
X131673261Y-69346497D01*
X131769431Y-69552732D01*
X131769432Y-69552734D01*
X131899954Y-69739141D01*
X132060858Y-69900045D01*
X132060861Y-69900047D01*
X132247266Y-70030568D01*
X132453504Y-70126739D01*
X132453509Y-70126740D01*
X132453511Y-70126741D01*
X132530204Y-70147291D01*
X132589865Y-70183656D01*
X132599686Y-70195943D01*
X132699953Y-70339140D01*
X132860858Y-70500045D01*
X132860861Y-70500047D01*
X133047266Y-70630568D01*
X133253504Y-70726739D01*
X133473308Y-70785635D01*
X133635230Y-70799801D01*
X133699998Y-70805468D01*
X133700000Y-70805468D01*
X133700002Y-70805468D01*
X133756673Y-70800509D01*
X133926692Y-70785635D01*
X134146496Y-70726739D01*
X134352734Y-70630568D01*
X134539139Y-70500047D01*
X134700047Y-70339139D01*
X134830568Y-70152734D01*
X134926739Y-69946496D01*
X134985635Y-69726692D01*
X135005468Y-69500000D01*
X134985635Y-69273308D01*
X134926739Y-69053504D01*
X134830568Y-68847266D01*
X134700047Y-68660861D01*
X134700045Y-68660858D01*
X134539141Y-68499954D01*
X134352734Y-68369432D01*
X134348043Y-68366724D01*
X134348690Y-68365602D01*
X134300946Y-68323560D01*
X134281797Y-68256365D01*
X134285091Y-68232099D01*
X134284694Y-68232029D01*
X134285631Y-68226704D01*
X134285635Y-68226692D01*
X134305468Y-68000000D01*
X134291673Y-67842325D01*
X134305439Y-67773827D01*
X134354055Y-67723644D01*
X134362772Y-67719148D01*
X134552734Y-67630568D01*
X134739139Y-67500047D01*
X134900047Y-67339139D01*
X135030568Y-67152734D01*
X135115218Y-66971201D01*
X135161390Y-66918763D01*
X135228584Y-66899611D01*
X135238403Y-66900078D01*
X135279153Y-66903644D01*
X135299999Y-66905468D01*
X135300000Y-66905468D01*
X135300002Y-66905468D01*
X135361596Y-66900079D01*
X135526692Y-66885635D01*
X135746496Y-66826739D01*
X135952734Y-66730568D01*
X136139139Y-66600047D01*
X136300047Y-66439139D01*
X136430568Y-66252734D01*
X136526739Y-66046496D01*
X136585635Y-65826692D01*
X136596719Y-65699998D01*
X143994532Y-65699998D01*
X143994532Y-65700001D01*
X144014364Y-65926686D01*
X144014366Y-65926697D01*
X144073258Y-66146488D01*
X144073261Y-66146497D01*
X144169431Y-66352732D01*
X144169432Y-66352734D01*
X144299954Y-66539141D01*
X144460858Y-66700045D01*
X144460861Y-66700047D01*
X144647266Y-66830568D01*
X144853504Y-66926739D01*
X145073308Y-66985635D01*
X145090547Y-66987143D01*
X145155616Y-67012595D01*
X145196595Y-67069186D01*
X145203268Y-67099863D01*
X145214364Y-67226687D01*
X145214366Y-67226697D01*
X145273258Y-67446488D01*
X145273261Y-67446497D01*
X145369431Y-67652732D01*
X145369432Y-67652734D01*
X145499954Y-67839141D01*
X145660861Y-68000048D01*
X145665006Y-68003526D01*
X145663813Y-68004946D01*
X145702297Y-68053092D01*
X145711076Y-68110896D01*
X145694532Y-68299997D01*
X145694532Y-68300001D01*
X145714364Y-68526686D01*
X145714366Y-68526697D01*
X145773258Y-68746488D01*
X145773261Y-68746497D01*
X145869431Y-68952732D01*
X145869432Y-68952734D01*
X145999954Y-69139141D01*
X146160858Y-69300045D01*
X146160861Y-69300047D01*
X146347266Y-69430568D01*
X146553504Y-69526739D01*
X146773308Y-69585635D01*
X146935230Y-69599801D01*
X146999998Y-69605468D01*
X147000000Y-69605468D01*
X147000002Y-69605468D01*
X147056673Y-69600509D01*
X147226692Y-69585635D01*
X147446496Y-69526739D01*
X147652734Y-69430568D01*
X147839139Y-69300047D01*
X148000047Y-69139139D01*
X148130568Y-68952734D01*
X148226739Y-68746496D01*
X148285635Y-68526692D01*
X148305468Y-68300000D01*
X148285635Y-68073308D01*
X148226739Y-67853504D01*
X148130568Y-67647266D01*
X148000047Y-67460861D01*
X148000045Y-67460858D01*
X147839138Y-67299951D01*
X147834994Y-67296474D01*
X147836184Y-67295055D01*
X147797698Y-67246897D01*
X147788923Y-67189104D01*
X147796731Y-67099863D01*
X147799896Y-67063692D01*
X147825349Y-66998623D01*
X147881940Y-66957645D01*
X147923424Y-66950500D01*
X151101583Y-66950500D01*
X151590664Y-66950500D01*
X151657703Y-66970185D01*
X151678345Y-66986819D01*
X153610520Y-68918994D01*
X153644005Y-68980317D01*
X153646523Y-69015518D01*
X153644773Y-69039995D01*
X153644773Y-69040001D01*
X153663657Y-69304027D01*
X153663658Y-69304034D01*
X153719921Y-69562673D01*
X153812426Y-69810690D01*
X153812428Y-69810694D01*
X153939280Y-70043005D01*
X153939285Y-70043013D01*
X154083520Y-70235690D01*
X154107937Y-70301155D01*
X154093085Y-70369427D01*
X154083520Y-70384310D01*
X153939285Y-70576986D01*
X153939280Y-70576994D01*
X153812428Y-70809305D01*
X153812426Y-70809309D01*
X153719921Y-71057326D01*
X153663658Y-71315965D01*
X153663657Y-71315972D01*
X153644773Y-71579998D01*
X153644773Y-71580001D01*
X153663657Y-71844027D01*
X153663658Y-71844034D01*
X153719921Y-72102673D01*
X153812426Y-72350690D01*
X153812428Y-72350694D01*
X153939280Y-72583005D01*
X153939285Y-72583013D01*
X154097906Y-72794907D01*
X154097922Y-72794925D01*
X154285074Y-72982077D01*
X154285092Y-72982093D01*
X154496986Y-73140714D01*
X154496994Y-73140719D01*
X154729305Y-73267571D01*
X154729309Y-73267573D01*
X154729311Y-73267574D01*
X154977322Y-73360077D01*
X154977325Y-73360077D01*
X154977326Y-73360078D01*
X155117386Y-73390546D01*
X155235974Y-73416343D01*
X155479660Y-73433772D01*
X155499999Y-73435227D01*
X155500000Y-73435227D01*
X155500001Y-73435227D01*
X155518885Y-73433876D01*
X155764026Y-73416343D01*
X156022678Y-73360077D01*
X156270689Y-73267574D01*
X156503011Y-73140716D01*
X156714915Y-72982087D01*
X156902087Y-72794915D01*
X157060716Y-72583011D01*
X157187574Y-72350689D01*
X157280077Y-72102678D01*
X157336343Y-71844026D01*
X157355227Y-71580000D01*
X157336343Y-71315974D01*
X157283428Y-71072727D01*
X157280078Y-71057326D01*
X157264054Y-71014365D01*
X157187574Y-70809311D01*
X157153695Y-70747267D01*
X157060719Y-70576994D01*
X157060714Y-70576986D01*
X156916479Y-70384310D01*
X156892062Y-70318846D01*
X156906914Y-70250573D01*
X156916479Y-70235690D01*
X156995172Y-70130568D01*
X157060716Y-70043011D01*
X157187574Y-69810689D01*
X157280077Y-69562678D01*
X157336343Y-69304026D01*
X157355227Y-69040000D01*
X157336343Y-68775974D01*
X157314011Y-68673313D01*
X157280078Y-68517326D01*
X157273616Y-68500001D01*
X157187574Y-68269311D01*
X157167216Y-68232029D01*
X157060719Y-68036994D01*
X157060714Y-68036986D01*
X156916479Y-67844310D01*
X156892062Y-67778846D01*
X156906914Y-67710573D01*
X156916479Y-67695690D01*
X157037676Y-67533789D01*
X157060716Y-67503011D01*
X157187574Y-67270689D01*
X157280077Y-67022678D01*
X157336343Y-66764026D01*
X157353876Y-66518885D01*
X157355227Y-66500001D01*
X157355227Y-66499998D01*
X157350874Y-66439139D01*
X157336343Y-66235974D01*
X157280077Y-65977322D01*
X157187574Y-65729311D01*
X157171569Y-65700001D01*
X157060719Y-65496994D01*
X157060714Y-65496986D01*
X156916479Y-65304310D01*
X156892062Y-65238846D01*
X156906914Y-65170573D01*
X156916479Y-65155690D01*
X156978647Y-65072643D01*
X157060716Y-64963011D01*
X157187574Y-64730689D01*
X157280077Y-64482678D01*
X157336343Y-64224026D01*
X157355227Y-63960000D01*
X157354762Y-63953504D01*
X157349027Y-63873313D01*
X157336343Y-63695974D01*
X157306951Y-63560861D01*
X157280078Y-63437326D01*
X157266139Y-63399954D01*
X157187574Y-63189311D01*
X157179769Y-63175018D01*
X157060719Y-62956994D01*
X157060714Y-62956986D01*
X156902093Y-62745092D01*
X156902084Y-62745082D01*
X156864583Y-62707581D01*
X156815100Y-62658098D01*
X156781617Y-62596778D01*
X156786601Y-62527086D01*
X156792914Y-62513261D01*
X156843597Y-62377376D01*
X156843598Y-62377372D01*
X156849999Y-62317844D01*
X156850000Y-62317827D01*
X156850000Y-61670000D01*
X155933012Y-61670000D01*
X155965925Y-61612993D01*
X156000000Y-61485826D01*
X156000000Y-61354174D01*
X155965925Y-61227007D01*
X155933012Y-61170000D01*
X156850000Y-61170000D01*
X156850000Y-60522172D01*
X156849999Y-60522155D01*
X156843598Y-60462627D01*
X156843596Y-60462620D01*
X156793354Y-60327913D01*
X156793350Y-60327906D01*
X156707190Y-60212812D01*
X156707187Y-60212809D01*
X156592093Y-60126649D01*
X156592086Y-60126645D01*
X156457379Y-60076403D01*
X156457372Y-60076401D01*
X156397844Y-60070000D01*
X155750000Y-60070000D01*
X155750000Y-60986988D01*
X155692993Y-60954075D01*
X155565826Y-60920000D01*
X155434174Y-60920000D01*
X155307007Y-60954075D01*
X155250000Y-60986988D01*
X155250000Y-60070000D01*
X154602155Y-60070000D01*
X154542627Y-60076401D01*
X154542620Y-60076403D01*
X154407913Y-60126645D01*
X154407906Y-60126649D01*
X154292812Y-60212809D01*
X154292809Y-60212812D01*
X154206649Y-60327906D01*
X154206645Y-60327913D01*
X154156403Y-60462620D01*
X154156401Y-60462627D01*
X154150000Y-60522155D01*
X154150000Y-61170000D01*
X155066988Y-61170000D01*
X155034075Y-61227007D01*
X155000000Y-61354174D01*
X155000000Y-61485826D01*
X155034075Y-61612993D01*
X155066988Y-61670000D01*
X154150000Y-61670000D01*
X154150000Y-62317844D01*
X154156401Y-62377372D01*
X154156402Y-62377376D01*
X154209747Y-62520398D01*
X154208219Y-62520967D01*
X154220898Y-62579276D01*
X154196475Y-62644738D01*
X154184898Y-62658098D01*
X154097913Y-62745084D01*
X154097903Y-62745096D01*
X153939285Y-62956986D01*
X153939280Y-62956994D01*
X153812428Y-63189305D01*
X153812426Y-63189309D01*
X153719921Y-63437326D01*
X153663658Y-63695965D01*
X153663657Y-63695972D01*
X153644773Y-63959998D01*
X153644773Y-63960001D01*
X153663657Y-64224027D01*
X153663658Y-64224034D01*
X153719921Y-64482673D01*
X153812426Y-64730690D01*
X153812428Y-64730694D01*
X153939280Y-64963005D01*
X153939285Y-64963013D01*
X154083520Y-65155690D01*
X154107937Y-65221155D01*
X154093085Y-65289427D01*
X154083520Y-65304310D01*
X153939279Y-65496995D01*
X153938806Y-65497731D01*
X153938584Y-65497922D01*
X153936630Y-65500534D01*
X153936061Y-65500108D01*
X153885992Y-65543475D01*
X153816831Y-65553403D01*
X153753282Y-65524364D01*
X153746824Y-65518350D01*
X152974648Y-64746174D01*
X152974646Y-64746172D01*
X152815405Y-64630476D01*
X152807988Y-64626697D01*
X152640030Y-64541117D01*
X152452826Y-64480290D01*
X152258422Y-64449500D01*
X152258417Y-64449500D01*
X151298417Y-64449500D01*
X145674143Y-64449500D01*
X145642050Y-64445275D01*
X145526697Y-64414366D01*
X145526693Y-64414365D01*
X145526692Y-64414365D01*
X145526691Y-64414364D01*
X145526686Y-64414364D01*
X145300002Y-64394532D01*
X145299998Y-64394532D01*
X145073313Y-64414364D01*
X145073302Y-64414366D01*
X144853511Y-64473258D01*
X144853502Y-64473261D01*
X144647267Y-64569431D01*
X144647265Y-64569432D01*
X144460858Y-64699954D01*
X144299954Y-64860858D01*
X144169432Y-65047265D01*
X144169431Y-65047267D01*
X144073261Y-65253502D01*
X144073258Y-65253511D01*
X144014366Y-65473302D01*
X144014364Y-65473313D01*
X143994532Y-65699998D01*
X136596719Y-65699998D01*
X136605468Y-65600000D01*
X136585635Y-65373308D01*
X136526739Y-65153504D01*
X136481803Y-65057140D01*
X136471312Y-64988065D01*
X136499831Y-64924281D01*
X136558308Y-64886041D01*
X136628175Y-64885486D01*
X136665309Y-64903162D01*
X136779498Y-64983117D01*
X136847266Y-65030568D01*
X137053504Y-65126739D01*
X137273308Y-65185635D01*
X137435230Y-65199801D01*
X137499998Y-65205468D01*
X137500000Y-65205468D01*
X137500002Y-65205468D01*
X137563414Y-65199920D01*
X137726692Y-65185635D01*
X137946496Y-65126739D01*
X137997594Y-65102910D01*
X138066670Y-65092418D01*
X138102404Y-65102910D01*
X138153504Y-65126739D01*
X138373308Y-65185635D01*
X138535230Y-65199801D01*
X138599998Y-65205468D01*
X138600000Y-65205468D01*
X138600002Y-65205468D01*
X138663414Y-65199920D01*
X138826692Y-65185635D01*
X139046496Y-65126739D01*
X139252734Y-65030568D01*
X139439139Y-64900047D01*
X139600047Y-64739139D01*
X139730568Y-64552734D01*
X139826739Y-64346496D01*
X139885635Y-64126692D01*
X139905468Y-63900000D01*
X139885635Y-63673308D01*
X139826739Y-63453504D01*
X139730568Y-63247266D01*
X139624535Y-63095834D01*
X139600045Y-63060858D01*
X139439141Y-62899954D01*
X139252734Y-62769432D01*
X139252732Y-62769431D01*
X139046497Y-62673261D01*
X139046488Y-62673258D01*
X138826697Y-62614366D01*
X138826693Y-62614365D01*
X138826692Y-62614365D01*
X138826691Y-62614364D01*
X138826686Y-62614364D01*
X138600002Y-62594532D01*
X138599998Y-62594532D01*
X138373313Y-62614364D01*
X138373302Y-62614366D01*
X138153511Y-62673258D01*
X138153502Y-62673262D01*
X138102405Y-62697089D01*
X138033327Y-62707581D01*
X137997595Y-62697089D01*
X137946496Y-62673261D01*
X137946492Y-62673260D01*
X137946488Y-62673258D01*
X137726697Y-62614366D01*
X137726693Y-62614365D01*
X137726692Y-62614365D01*
X137726691Y-62614364D01*
X137726686Y-62614364D01*
X137500002Y-62594532D01*
X137499998Y-62594532D01*
X137273313Y-62614364D01*
X137273302Y-62614366D01*
X137053511Y-62673258D01*
X137053502Y-62673261D01*
X136847267Y-62769431D01*
X136847265Y-62769432D01*
X136660858Y-62899954D01*
X136499953Y-63060859D01*
X136420019Y-63175018D01*
X136365442Y-63218643D01*
X136295944Y-63225836D01*
X136233589Y-63194314D01*
X136230763Y-63191576D01*
X136139141Y-63099954D01*
X135952734Y-62969432D01*
X135952732Y-62969431D01*
X135746497Y-62873261D01*
X135746488Y-62873258D01*
X135526697Y-62814366D01*
X135526693Y-62814365D01*
X135526692Y-62814365D01*
X135526691Y-62814364D01*
X135526686Y-62814364D01*
X135300002Y-62794532D01*
X135299998Y-62794532D01*
X135073313Y-62814364D01*
X135073302Y-62814366D01*
X134853511Y-62873258D01*
X134853502Y-62873261D01*
X134647267Y-62969431D01*
X134647265Y-62969432D01*
X134460858Y-63099954D01*
X134299954Y-63260858D01*
X134169432Y-63447265D01*
X134169431Y-63447267D01*
X134073261Y-63653502D01*
X134073258Y-63653511D01*
X134014366Y-63873302D01*
X134014364Y-63873313D01*
X133994532Y-64099998D01*
X133994532Y-64100001D01*
X134014364Y-64326686D01*
X134014366Y-64326697D01*
X134073258Y-64546488D01*
X134073261Y-64546497D01*
X134121526Y-64650000D01*
X134163093Y-64739141D01*
X134169434Y-64752738D01*
X134169435Y-64752741D01*
X134187737Y-64778879D01*
X134210064Y-64845085D01*
X134193052Y-64912852D01*
X134187737Y-64921121D01*
X134169436Y-64947258D01*
X134084781Y-65128798D01*
X134038608Y-65181237D01*
X133971414Y-65200388D01*
X133961592Y-65199920D01*
X133900002Y-65194532D01*
X133899998Y-65194532D01*
X133673313Y-65214364D01*
X133673302Y-65214366D01*
X133453511Y-65273258D01*
X133453502Y-65273261D01*
X133247267Y-65369431D01*
X133247265Y-65369432D01*
X133060858Y-65499954D01*
X132899954Y-65660858D01*
X132769432Y-65847265D01*
X132769431Y-65847267D01*
X132673261Y-66053502D01*
X132673258Y-66053511D01*
X132614366Y-66273302D01*
X132614364Y-66273313D01*
X132594532Y-66499998D01*
X132594532Y-66500002D01*
X132608326Y-66657673D01*
X132594559Y-66726173D01*
X132545944Y-66776356D01*
X132537203Y-66780862D01*
X132347267Y-66869431D01*
X132347265Y-66869432D01*
X132160858Y-66999954D01*
X131999954Y-67160858D01*
X131869432Y-67347265D01*
X131869431Y-67347267D01*
X131773261Y-67553502D01*
X131773258Y-67553511D01*
X131714366Y-67773302D01*
X131714364Y-67773313D01*
X131694532Y-67999998D01*
X131694532Y-68000001D01*
X131714364Y-68226686D01*
X131714366Y-68226697D01*
X131726280Y-68271160D01*
X131724617Y-68341010D01*
X131718887Y-68355657D01*
X131673263Y-68453497D01*
X131673258Y-68453511D01*
X131614366Y-68673302D01*
X131614364Y-68673313D01*
X131594532Y-68899998D01*
X128239198Y-68899998D01*
X128285635Y-68726692D01*
X128305468Y-68500000D01*
X128301968Y-68460000D01*
X128293808Y-68366724D01*
X128285635Y-68273308D01*
X128239686Y-68101824D01*
X128241349Y-68031975D01*
X128247079Y-68017326D01*
X128255136Y-68000048D01*
X128326739Y-67846496D01*
X128385635Y-67626692D01*
X128405468Y-67400000D01*
X128385635Y-67173308D01*
X128338198Y-66996269D01*
X128326741Y-66953511D01*
X128326738Y-66953502D01*
X128301608Y-66899611D01*
X128230568Y-66747266D01*
X128127419Y-66599953D01*
X128100045Y-66560858D01*
X127939141Y-66399954D01*
X127752734Y-66269432D01*
X127752732Y-66269431D01*
X127546497Y-66173261D01*
X127546488Y-66173258D01*
X127326697Y-66114366D01*
X127326693Y-66114365D01*
X127326692Y-66114365D01*
X127326691Y-66114364D01*
X127326686Y-66114364D01*
X127100002Y-66094532D01*
X127099998Y-66094532D01*
X126873313Y-66114364D01*
X126873302Y-66114366D01*
X126653511Y-66173258D01*
X126653502Y-66173261D01*
X126447267Y-66269431D01*
X126447265Y-66269432D01*
X126260858Y-66399954D01*
X126099954Y-66560858D01*
X125969432Y-66747265D01*
X125969431Y-66747267D01*
X125873261Y-66953502D01*
X125873258Y-66953511D01*
X125814366Y-67173302D01*
X125814364Y-67173313D01*
X125794532Y-67399998D01*
X125794532Y-67400001D01*
X125814364Y-67626686D01*
X125814366Y-67626697D01*
X125860313Y-67798177D01*
X125858650Y-67868027D01*
X125852920Y-67882675D01*
X125773262Y-68053502D01*
X125773258Y-68053511D01*
X125714366Y-68273302D01*
X125714364Y-68273313D01*
X125694532Y-68499998D01*
X125694532Y-68500001D01*
X125714364Y-68726686D01*
X125714366Y-68726697D01*
X125773258Y-68946488D01*
X125773261Y-68946497D01*
X125869431Y-69152732D01*
X125869432Y-69152734D01*
X125999954Y-69339141D01*
X126073132Y-69412319D01*
X126106617Y-69473642D01*
X126101633Y-69543334D01*
X126073132Y-69587681D01*
X125999954Y-69660858D01*
X125869432Y-69847265D01*
X125869431Y-69847267D01*
X125773261Y-70053502D01*
X125773258Y-70053511D01*
X125729651Y-70216258D01*
X125719294Y-70254915D01*
X125718576Y-70257593D01*
X125682211Y-70317254D01*
X125619364Y-70347783D01*
X125598801Y-70349500D01*
X124595681Y-70349500D01*
X124595657Y-70349499D01*
X124590546Y-70349499D01*
X124409453Y-70349499D01*
X124389029Y-70352734D01*
X124230589Y-70377829D01*
X124058363Y-70433787D01*
X124058360Y-70433788D01*
X123897002Y-70516006D01*
X123750505Y-70622441D01*
X123750500Y-70622445D01*
X123622444Y-70750502D01*
X118932623Y-75440322D01*
X118871300Y-75473807D01*
X118801608Y-75468823D01*
X118773819Y-75454216D01*
X118652734Y-75369432D01*
X118652732Y-75369431D01*
X118446497Y-75273261D01*
X118446488Y-75273258D01*
X118226697Y-75214366D01*
X118226693Y-75214365D01*
X118226692Y-75214365D01*
X118226691Y-75214364D01*
X118226686Y-75214364D01*
X118000002Y-75194532D01*
X117999998Y-75194532D01*
X117773313Y-75214364D01*
X117773302Y-75214366D01*
X117553511Y-75273258D01*
X117553502Y-75273261D01*
X117347267Y-75369431D01*
X117347265Y-75369432D01*
X117160858Y-75499954D01*
X116999954Y-75660858D01*
X116869432Y-75847265D01*
X116869431Y-75847267D01*
X116773261Y-76053502D01*
X116773258Y-76053511D01*
X116714366Y-76273302D01*
X116714364Y-76273313D01*
X116694532Y-76499998D01*
X116694532Y-76500001D01*
X116713315Y-76714693D01*
X116699548Y-76783193D01*
X116650933Y-76833376D01*
X116589787Y-76849500D01*
X114910213Y-76849500D01*
X114843174Y-76829815D01*
X114797419Y-76777011D01*
X114786685Y-76714693D01*
X114805468Y-76500001D01*
X114805468Y-76499998D01*
X114793923Y-76368037D01*
X114785635Y-76273308D01*
X114726739Y-76053504D01*
X114630568Y-75847266D01*
X114532839Y-75707693D01*
X114500045Y-75660858D01*
X114339141Y-75499954D01*
X114152734Y-75369432D01*
X114152732Y-75369431D01*
X113946497Y-75273261D01*
X113946488Y-75273258D01*
X113726697Y-75214366D01*
X113726693Y-75214365D01*
X113726692Y-75214365D01*
X113726691Y-75214364D01*
X113726686Y-75214364D01*
X113500002Y-75194532D01*
X113499998Y-75194532D01*
X113273313Y-75214364D01*
X113273302Y-75214366D01*
X113053511Y-75273258D01*
X113053502Y-75273261D01*
X112847267Y-75369431D01*
X112847265Y-75369432D01*
X112660858Y-75499954D01*
X112499954Y-75660858D01*
X112403360Y-75798811D01*
X112348784Y-75842436D01*
X112279285Y-75849630D01*
X112216930Y-75818107D01*
X112182010Y-75759781D01*
X112178657Y-75747268D01*
X112128710Y-75560861D01*
X112126741Y-75553511D01*
X112126738Y-75553502D01*
X112109661Y-75516880D01*
X112030568Y-75347266D01*
X111932839Y-75207693D01*
X111900045Y-75160858D01*
X111739141Y-74999954D01*
X111552734Y-74869432D01*
X111552732Y-74869431D01*
X111346497Y-74773261D01*
X111346488Y-74773258D01*
X111126697Y-74714366D01*
X111126693Y-74714365D01*
X111126692Y-74714365D01*
X111126691Y-74714364D01*
X111126686Y-74714364D01*
X110900002Y-74694532D01*
X110899998Y-74694532D01*
X110673313Y-74714364D01*
X110673302Y-74714366D01*
X110453511Y-74773258D01*
X110453502Y-74773261D01*
X110247267Y-74869431D01*
X110247265Y-74869432D01*
X110060858Y-74999954D01*
X109899954Y-75160858D01*
X109769432Y-75347265D01*
X109769431Y-75347267D01*
X109673261Y-75553502D01*
X109673258Y-75553511D01*
X109614366Y-75773302D01*
X109614364Y-75773313D01*
X109594532Y-75999998D01*
X109594532Y-76000001D01*
X109614364Y-76226686D01*
X109614366Y-76226697D01*
X109673258Y-76446488D01*
X109673261Y-76446497D01*
X109769430Y-76652731D01*
X109769431Y-76652733D01*
X109769432Y-76652734D01*
X109770582Y-76654377D01*
X109770865Y-76655216D01*
X109772138Y-76657420D01*
X109771695Y-76657675D01*
X109792910Y-76720581D01*
X109775901Y-76788348D01*
X109724954Y-76836162D01*
X109669008Y-76849500D01*
X105900479Y-76849500D01*
X105833440Y-76829815D01*
X105787685Y-76777011D01*
X105777741Y-76707853D01*
X105782718Y-76689250D01*
X105782179Y-76689096D01*
X105800033Y-76626697D01*
X105839886Y-76487418D01*
X105850500Y-76368037D01*
X105850499Y-74551964D01*
X105839886Y-74432582D01*
X105783909Y-74236951D01*
X105689698Y-74056593D01*
X105637684Y-73992803D01*
X105561109Y-73898890D01*
X105445933Y-73804977D01*
X105403407Y-73770302D01*
X105223049Y-73676091D01*
X105223048Y-73676090D01*
X105223045Y-73676089D01*
X105105829Y-73642550D01*
X105027418Y-73620114D01*
X105027415Y-73620113D01*
X105027413Y-73620113D01*
X104961102Y-73614217D01*
X104908037Y-73609500D01*
X104908032Y-73609500D01*
X103091971Y-73609500D01*
X103091965Y-73609500D01*
X103091964Y-73609501D01*
X103080316Y-73610536D01*
X102972584Y-73620113D01*
X102776954Y-73676089D01*
X102686772Y-73723196D01*
X102596593Y-73770302D01*
X102596591Y-73770303D01*
X102596590Y-73770304D01*
X102438890Y-73898890D01*
X102310304Y-74056590D01*
X102216089Y-74236954D01*
X102160114Y-74432583D01*
X102160113Y-74432586D01*
X102149500Y-74551966D01*
X102149500Y-76368028D01*
X102149501Y-76368034D01*
X102160113Y-76487415D01*
X102216089Y-76683045D01*
X102216090Y-76683048D01*
X102216091Y-76683049D01*
X102310302Y-76863407D01*
X102346184Y-76907413D01*
X102378551Y-76947108D01*
X102405660Y-77011505D01*
X102393651Y-77080334D01*
X102391282Y-77084895D01*
X102312426Y-77229309D01*
X102219921Y-77477326D01*
X102163658Y-77735965D01*
X102163657Y-77735972D01*
X102144773Y-77999998D01*
X100000000Y-77999998D01*
X100000000Y-63379998D01*
X102144773Y-63379998D01*
X102144773Y-63380001D01*
X102163657Y-63644027D01*
X102163658Y-63644034D01*
X102219921Y-63902673D01*
X102312426Y-64150690D01*
X102312428Y-64150694D01*
X102439280Y-64383005D01*
X102439285Y-64383013D01*
X102583520Y-64575690D01*
X102607937Y-64641155D01*
X102593085Y-64709427D01*
X102583520Y-64724310D01*
X102439285Y-64916986D01*
X102439280Y-64916994D01*
X102312428Y-65149305D01*
X102312426Y-65149309D01*
X102219921Y-65397326D01*
X102163658Y-65655965D01*
X102163657Y-65655972D01*
X102144773Y-65919998D01*
X102144773Y-65920001D01*
X102163657Y-66184027D01*
X102163658Y-66184034D01*
X102219921Y-66442673D01*
X102312426Y-66690690D01*
X102312428Y-66690694D01*
X102439280Y-66923005D01*
X102439285Y-66923013D01*
X102583520Y-67115690D01*
X102607937Y-67181155D01*
X102593085Y-67249427D01*
X102583520Y-67264310D01*
X102439285Y-67456986D01*
X102439280Y-67456994D01*
X102312428Y-67689305D01*
X102312426Y-67689309D01*
X102219921Y-67937326D01*
X102163658Y-68195965D01*
X102163657Y-68195972D01*
X102144773Y-68459998D01*
X102144773Y-68460001D01*
X102163657Y-68724027D01*
X102163658Y-68724034D01*
X102219921Y-68982673D01*
X102312426Y-69230690D01*
X102312428Y-69230694D01*
X102439280Y-69463005D01*
X102439285Y-69463013D01*
X102583520Y-69655690D01*
X102607937Y-69721155D01*
X102593085Y-69789427D01*
X102583520Y-69804310D01*
X102439285Y-69996986D01*
X102439280Y-69996994D01*
X102312428Y-70229305D01*
X102312426Y-70229309D01*
X102219921Y-70477326D01*
X102163658Y-70735965D01*
X102163657Y-70735972D01*
X102144773Y-70999998D01*
X102144773Y-71000001D01*
X102163657Y-71264027D01*
X102163658Y-71264034D01*
X102219921Y-71522673D01*
X102312426Y-71770690D01*
X102312428Y-71770694D01*
X102439280Y-72003005D01*
X102439285Y-72003013D01*
X102597906Y-72214907D01*
X102597922Y-72214925D01*
X102785074Y-72402077D01*
X102785092Y-72402093D01*
X102996986Y-72560714D01*
X102996994Y-72560719D01*
X103229305Y-72687571D01*
X103229309Y-72687573D01*
X103229311Y-72687574D01*
X103477322Y-72780077D01*
X103477325Y-72780077D01*
X103477326Y-72780078D01*
X103672552Y-72822546D01*
X103735974Y-72836343D01*
X103979660Y-72853772D01*
X103999999Y-72855227D01*
X104000000Y-72855227D01*
X104000001Y-72855227D01*
X104018885Y-72853876D01*
X104264026Y-72836343D01*
X104522678Y-72780077D01*
X104770689Y-72687574D01*
X105003011Y-72560716D01*
X105214915Y-72402087D01*
X105402087Y-72214915D01*
X105560716Y-72003011D01*
X105687574Y-71770689D01*
X105780077Y-71522678D01*
X105836343Y-71264026D01*
X105855227Y-71000000D01*
X105836343Y-70735974D01*
X105801758Y-70576989D01*
X105780078Y-70477326D01*
X105768866Y-70447266D01*
X105687574Y-70229311D01*
X105683675Y-70222171D01*
X105560719Y-69996994D01*
X105560714Y-69996986D01*
X105416479Y-69804310D01*
X105392062Y-69738846D01*
X105406914Y-69670573D01*
X105416479Y-69655690D01*
X105513010Y-69526739D01*
X105560716Y-69463011D01*
X105606798Y-69378619D01*
X105656203Y-69329213D01*
X105724475Y-69314361D01*
X105789940Y-69338778D01*
X105803311Y-69350364D01*
X106299321Y-69846374D01*
X106299335Y-69846389D01*
X106302446Y-69849500D01*
X106302447Y-69849501D01*
X106430499Y-69977553D01*
X106552527Y-70066211D01*
X106564766Y-70075103D01*
X106577004Y-70083995D01*
X106738360Y-70166211D01*
X106738363Y-70166212D01*
X106792052Y-70183656D01*
X106910591Y-70222171D01*
X107089453Y-70250501D01*
X107089454Y-70250501D01*
X107275657Y-70250501D01*
X107275681Y-70250500D01*
X109069008Y-70250500D01*
X109136047Y-70270185D01*
X109181802Y-70322989D01*
X109191746Y-70392147D01*
X109171852Y-70442415D01*
X109172138Y-70442580D01*
X109171022Y-70444512D01*
X109170583Y-70445621D01*
X109169870Y-70446640D01*
X109169430Y-70447268D01*
X109073261Y-70653502D01*
X109073258Y-70653511D01*
X109014366Y-70873302D01*
X109014364Y-70873313D01*
X108994532Y-71099998D01*
X108994532Y-71100001D01*
X109014364Y-71326686D01*
X109014365Y-71326694D01*
X109033995Y-71399953D01*
X109065601Y-71517908D01*
X109065601Y-71582091D01*
X109045826Y-71655893D01*
X109014365Y-71773305D01*
X109014364Y-71773313D01*
X108994532Y-71999998D01*
X108994532Y-72000001D01*
X109014364Y-72226686D01*
X109014366Y-72226697D01*
X109073258Y-72446488D01*
X109073261Y-72446497D01*
X109169431Y-72652732D01*
X109169432Y-72652734D01*
X109299954Y-72839141D01*
X109460858Y-73000045D01*
X109460861Y-73000047D01*
X109647266Y-73130568D01*
X109853504Y-73226739D01*
X109853509Y-73226740D01*
X109853511Y-73226741D01*
X109906415Y-73240916D01*
X110073308Y-73285635D01*
X110235230Y-73299801D01*
X110299998Y-73305468D01*
X110300000Y-73305468D01*
X110300002Y-73305468D01*
X110361985Y-73300045D01*
X110526692Y-73285635D01*
X110746496Y-73226739D01*
X110952734Y-73130568D01*
X111139139Y-73000047D01*
X111300047Y-72839139D01*
X111430568Y-72652734D01*
X111526739Y-72446496D01*
X111585635Y-72226692D01*
X111605468Y-72000000D01*
X111585635Y-71773308D01*
X111534398Y-71582087D01*
X111534398Y-71517912D01*
X111585635Y-71326692D01*
X111605468Y-71100000D01*
X111585635Y-70873308D01*
X111526739Y-70653504D01*
X111430568Y-70447266D01*
X111429417Y-70445622D01*
X111429134Y-70444783D01*
X111427862Y-70442580D01*
X111428304Y-70442324D01*
X111407090Y-70379419D01*
X111424099Y-70311652D01*
X111475046Y-70263838D01*
X111530992Y-70250500D01*
X116642763Y-70250500D01*
X116709802Y-70270185D01*
X116755144Y-70322093D01*
X116767924Y-70349500D01*
X116769432Y-70352734D01*
X116899954Y-70539141D01*
X117060858Y-70700045D01*
X117060861Y-70700047D01*
X117247266Y-70830568D01*
X117312223Y-70860858D01*
X117369609Y-70887618D01*
X117422048Y-70933791D01*
X117441200Y-71000984D01*
X117420984Y-71067865D01*
X117369609Y-71112382D01*
X117247267Y-71169431D01*
X117247265Y-71169432D01*
X117060858Y-71299954D01*
X116899954Y-71460858D01*
X116769432Y-71647265D01*
X116769431Y-71647267D01*
X116673261Y-71853502D01*
X116673258Y-71853511D01*
X116614366Y-72073302D01*
X116614364Y-72073313D01*
X116594532Y-72299998D01*
X116594532Y-72300001D01*
X116614364Y-72526686D01*
X116614366Y-72526697D01*
X116673258Y-72746488D01*
X116673261Y-72746497D01*
X116769431Y-72952732D01*
X116769432Y-72952734D01*
X116899954Y-73139141D01*
X117060858Y-73300045D01*
X117060861Y-73300047D01*
X117247266Y-73430568D01*
X117453504Y-73526739D01*
X117673308Y-73585635D01*
X117835230Y-73599801D01*
X117899998Y-73605468D01*
X117900000Y-73605468D01*
X117900002Y-73605468D01*
X117956673Y-73600509D01*
X118126692Y-73585635D01*
X118346496Y-73526739D01*
X118552734Y-73430568D01*
X118739139Y-73300047D01*
X118900047Y-73139139D01*
X119030568Y-72952734D01*
X119126739Y-72746496D01*
X119185635Y-72526692D01*
X119205468Y-72300000D01*
X119185635Y-72073308D01*
X119126739Y-71853504D01*
X119030568Y-71647266D01*
X118900047Y-71460861D01*
X118900045Y-71460858D01*
X118739141Y-71299954D01*
X118552734Y-71169432D01*
X118552732Y-71169431D01*
X118489823Y-71140096D01*
X118430389Y-71112381D01*
X118377951Y-71066210D01*
X118358799Y-70999016D01*
X118379015Y-70932135D01*
X118430389Y-70887618D01*
X118552734Y-70830568D01*
X118739139Y-70700047D01*
X118900047Y-70539139D01*
X119030568Y-70352734D01*
X119066241Y-70276232D01*
X119112410Y-70223796D01*
X119179603Y-70204643D01*
X119231027Y-70216257D01*
X119253504Y-70226739D01*
X119473308Y-70285635D01*
X119635230Y-70299801D01*
X119699998Y-70305468D01*
X119700000Y-70305468D01*
X119700002Y-70305468D01*
X119756673Y-70300509D01*
X119926692Y-70285635D01*
X120146496Y-70226739D01*
X120352734Y-70130568D01*
X120539139Y-70000047D01*
X120700047Y-69839139D01*
X120830568Y-69652734D01*
X120926739Y-69446496D01*
X120985635Y-69226692D01*
X121005468Y-69000000D01*
X120985682Y-68773849D01*
X120996827Y-68710639D01*
X121026739Y-68646496D01*
X121035043Y-68615501D01*
X121067135Y-68559916D01*
X125842432Y-63784620D01*
X125842439Y-63784614D01*
X125849499Y-63777554D01*
X125849501Y-63777553D01*
X125977553Y-63649501D01*
X126083996Y-63502994D01*
X126085523Y-63499998D01*
X130694532Y-63499998D01*
X130694532Y-63500001D01*
X130714364Y-63726686D01*
X130714366Y-63726697D01*
X130773258Y-63946488D01*
X130773261Y-63946497D01*
X130869431Y-64152732D01*
X130869432Y-64152734D01*
X130999954Y-64339141D01*
X131160858Y-64500045D01*
X131160861Y-64500047D01*
X131347266Y-64630568D01*
X131553504Y-64726739D01*
X131553509Y-64726740D01*
X131553511Y-64726741D01*
X131568249Y-64730690D01*
X131773308Y-64785635D01*
X131935230Y-64799801D01*
X131999998Y-64805468D01*
X132000000Y-64805468D01*
X132000002Y-64805468D01*
X132056673Y-64800509D01*
X132226692Y-64785635D01*
X132446496Y-64726739D01*
X132652734Y-64630568D01*
X132839139Y-64500047D01*
X133000047Y-64339139D01*
X133130568Y-64152734D01*
X133226739Y-63946496D01*
X133285635Y-63726692D01*
X133305468Y-63500000D01*
X133285635Y-63273308D01*
X133228710Y-63060859D01*
X133226741Y-63053511D01*
X133226738Y-63053502D01*
X133216043Y-63030567D01*
X133130568Y-62847266D01*
X133008730Y-62673262D01*
X133000045Y-62660858D01*
X132839141Y-62499954D01*
X132652734Y-62369432D01*
X132652732Y-62369431D01*
X132446497Y-62273261D01*
X132446488Y-62273258D01*
X132226697Y-62214366D01*
X132226693Y-62214365D01*
X132226692Y-62214365D01*
X132226691Y-62214364D01*
X132226686Y-62214364D01*
X132000002Y-62194532D01*
X131999998Y-62194532D01*
X131773313Y-62214364D01*
X131773302Y-62214366D01*
X131553511Y-62273258D01*
X131553502Y-62273261D01*
X131347267Y-62369431D01*
X131347265Y-62369432D01*
X131160858Y-62499954D01*
X130999954Y-62660858D01*
X130869432Y-62847265D01*
X130869431Y-62847267D01*
X130773261Y-63053502D01*
X130773258Y-63053511D01*
X130714366Y-63273302D01*
X130714364Y-63273313D01*
X130694532Y-63499998D01*
X126085523Y-63499998D01*
X126166211Y-63341639D01*
X126222171Y-63169409D01*
X126228929Y-63126739D01*
X126250501Y-62990546D01*
X126250501Y-62809453D01*
X126250501Y-62805052D01*
X126250500Y-62805037D01*
X126250500Y-62237479D01*
X126262118Y-62185074D01*
X126271440Y-62165084D01*
X126326739Y-62046496D01*
X126385635Y-61826692D01*
X126405468Y-61600000D01*
X126405468Y-61599998D01*
X141694532Y-61599998D01*
X141694532Y-61600001D01*
X141714364Y-61826686D01*
X141714366Y-61826697D01*
X141773258Y-62046488D01*
X141773261Y-62046497D01*
X141869431Y-62252732D01*
X141869432Y-62252734D01*
X141999954Y-62439141D01*
X142160858Y-62600045D01*
X142160861Y-62600047D01*
X142347266Y-62730568D01*
X142553504Y-62826739D01*
X142773308Y-62885635D01*
X142935230Y-62899801D01*
X142999998Y-62905468D01*
X143000000Y-62905468D01*
X143000002Y-62905468D01*
X143063025Y-62899954D01*
X143226692Y-62885635D01*
X143446496Y-62826739D01*
X143652734Y-62730568D01*
X143839139Y-62600047D01*
X144000047Y-62439139D01*
X144130568Y-62252734D01*
X144226739Y-62046496D01*
X144265993Y-61899998D01*
X150594532Y-61899998D01*
X150594532Y-61900001D01*
X150614364Y-62126686D01*
X150614366Y-62126697D01*
X150673258Y-62346488D01*
X150673261Y-62346497D01*
X150769431Y-62552732D01*
X150769432Y-62552734D01*
X150899954Y-62739141D01*
X151060858Y-62900045D01*
X151060861Y-62900047D01*
X151247266Y-63030568D01*
X151453504Y-63126739D01*
X151673308Y-63185635D01*
X151835230Y-63199801D01*
X151899998Y-63205468D01*
X151900000Y-63205468D01*
X151900002Y-63205468D01*
X151956673Y-63200509D01*
X152126692Y-63185635D01*
X152346496Y-63126739D01*
X152552734Y-63030568D01*
X152739139Y-62900047D01*
X152900047Y-62739139D01*
X153030568Y-62552734D01*
X153126739Y-62346496D01*
X153185635Y-62126692D01*
X153205468Y-61900000D01*
X153185635Y-61673308D01*
X153126739Y-61453504D01*
X153030568Y-61247266D01*
X152900047Y-61060861D01*
X152900045Y-61060858D01*
X152739141Y-60899954D01*
X152552734Y-60769432D01*
X152552732Y-60769431D01*
X152346497Y-60673261D01*
X152346488Y-60673258D01*
X152126697Y-60614366D01*
X152126693Y-60614365D01*
X152126692Y-60614365D01*
X152126691Y-60614364D01*
X152126686Y-60614364D01*
X151900002Y-60594532D01*
X151899998Y-60594532D01*
X151673313Y-60614364D01*
X151673302Y-60614366D01*
X151453511Y-60673258D01*
X151453502Y-60673261D01*
X151247267Y-60769431D01*
X151247265Y-60769432D01*
X151060858Y-60899954D01*
X150899954Y-61060858D01*
X150769432Y-61247265D01*
X150769431Y-61247267D01*
X150673261Y-61453502D01*
X150673258Y-61453511D01*
X150614366Y-61673302D01*
X150614364Y-61673313D01*
X150594532Y-61899998D01*
X144265993Y-61899998D01*
X144285635Y-61826692D01*
X144305468Y-61600000D01*
X144285635Y-61373308D01*
X144228710Y-61160861D01*
X144226741Y-61153511D01*
X144226738Y-61153502D01*
X144197126Y-61090000D01*
X144130568Y-60947266D01*
X144009369Y-60774174D01*
X144000045Y-60760858D01*
X143839141Y-60599954D01*
X143652734Y-60469432D01*
X143652732Y-60469431D01*
X143446497Y-60373261D01*
X143446488Y-60373258D01*
X143226697Y-60314366D01*
X143226693Y-60314365D01*
X143226692Y-60314365D01*
X143226691Y-60314364D01*
X143226686Y-60314364D01*
X143000002Y-60294532D01*
X142999998Y-60294532D01*
X142773313Y-60314364D01*
X142773302Y-60314366D01*
X142553511Y-60373258D01*
X142553502Y-60373261D01*
X142347267Y-60469431D01*
X142347265Y-60469432D01*
X142160858Y-60599954D01*
X141999954Y-60760858D01*
X141869432Y-60947265D01*
X141869431Y-60947267D01*
X141773261Y-61153502D01*
X141773258Y-61153511D01*
X141714366Y-61373302D01*
X141714364Y-61373313D01*
X141694532Y-61599998D01*
X126405468Y-61599998D01*
X126385635Y-61373308D01*
X126328710Y-61160861D01*
X126326741Y-61153511D01*
X126326738Y-61153502D01*
X126297126Y-61090000D01*
X126230568Y-60947266D01*
X126109369Y-60774174D01*
X126100045Y-60760858D01*
X125939141Y-60599954D01*
X125752734Y-60469432D01*
X125752732Y-60469431D01*
X125546497Y-60373261D01*
X125546488Y-60373258D01*
X125326697Y-60314366D01*
X125326693Y-60314365D01*
X125326692Y-60314365D01*
X125326691Y-60314364D01*
X125326686Y-60314364D01*
X125100002Y-60294532D01*
X125099998Y-60294532D01*
X124873313Y-60314364D01*
X124873302Y-60314366D01*
X124653511Y-60373258D01*
X124653502Y-60373261D01*
X124447267Y-60469431D01*
X124447265Y-60469432D01*
X124260858Y-60599954D01*
X124099954Y-60760858D01*
X123969432Y-60947265D01*
X123969431Y-60947267D01*
X123873261Y-61153502D01*
X123873258Y-61153511D01*
X123814366Y-61373302D01*
X123814364Y-61373313D01*
X123794532Y-61599998D01*
X123794532Y-61600001D01*
X123814364Y-61826686D01*
X123814366Y-61826697D01*
X123873258Y-62046488D01*
X123873261Y-62046497D01*
X123937882Y-62185074D01*
X123949500Y-62237479D01*
X123949500Y-62372084D01*
X123929815Y-62439123D01*
X123913181Y-62459765D01*
X119440083Y-66932862D01*
X119384500Y-66964955D01*
X119353502Y-66973261D01*
X119147267Y-67069431D01*
X119147265Y-67069432D01*
X118960858Y-67199954D01*
X118799954Y-67360858D01*
X118669432Y-67547265D01*
X118669431Y-67547267D01*
X118573261Y-67753502D01*
X118573258Y-67753511D01*
X118572165Y-67757593D01*
X118535800Y-67817254D01*
X118472953Y-67847783D01*
X118452390Y-67849500D01*
X118435023Y-67849500D01*
X118367984Y-67829815D01*
X118347342Y-67813181D01*
X118256606Y-67722445D01*
X118256601Y-67722441D01*
X118110104Y-67616006D01*
X118110103Y-67616005D01*
X118110101Y-67616004D01*
X118058407Y-67589664D01*
X117948746Y-67533788D01*
X117948743Y-67533787D01*
X117776517Y-67477829D01*
X117774503Y-67477510D01*
X117686077Y-67463504D01*
X117597653Y-67449499D01*
X117416561Y-67449499D01*
X117411450Y-67449499D01*
X117411426Y-67449500D01*
X115247610Y-67449500D01*
X115180571Y-67429815D01*
X115134816Y-67377011D01*
X115127835Y-67357593D01*
X115126741Y-67353511D01*
X115126738Y-67353502D01*
X115118720Y-67336308D01*
X115030568Y-67147266D01*
X114917393Y-66985634D01*
X114900045Y-66960858D01*
X114739141Y-66799954D01*
X114552734Y-66669432D01*
X114552732Y-66669431D01*
X114346497Y-66573261D01*
X114346488Y-66573258D01*
X114126697Y-66514366D01*
X114126693Y-66514365D01*
X114126692Y-66514365D01*
X114126691Y-66514364D01*
X114126686Y-66514364D01*
X113900002Y-66494532D01*
X113900000Y-66494532D01*
X113891651Y-66495262D01*
X113883972Y-66495934D01*
X113815472Y-66482164D01*
X113802046Y-66473980D01*
X113652734Y-66369432D01*
X113652732Y-66369431D01*
X113446497Y-66273261D01*
X113446488Y-66273258D01*
X113226697Y-66214366D01*
X113226693Y-66214365D01*
X113226692Y-66214365D01*
X113226691Y-66214364D01*
X113226686Y-66214364D01*
X113000002Y-66194532D01*
X112999998Y-66194532D01*
X112773313Y-66214364D01*
X112773302Y-66214366D01*
X112553511Y-66273258D01*
X112553502Y-66273261D01*
X112347267Y-66369431D01*
X112347265Y-66369432D01*
X112160858Y-66499954D01*
X111999954Y-66660858D01*
X111869432Y-66847265D01*
X111869431Y-66847267D01*
X111773261Y-67053502D01*
X111773258Y-67053511D01*
X111714366Y-67273302D01*
X111714364Y-67273312D01*
X111708853Y-67336308D01*
X111683400Y-67401377D01*
X111626809Y-67442355D01*
X111585325Y-67449500D01*
X108227914Y-67449500D01*
X108160875Y-67429815D01*
X108140233Y-67413181D01*
X107967137Y-67240085D01*
X107935043Y-67184496D01*
X107926740Y-67153507D01*
X107926739Y-67153504D01*
X107887535Y-67069431D01*
X107830568Y-66947266D01*
X107710897Y-66776356D01*
X107700045Y-66760858D01*
X107539141Y-66599954D01*
X107352734Y-66469432D01*
X107352732Y-66469431D01*
X107146497Y-66373261D01*
X107146488Y-66373258D01*
X106926697Y-66314366D01*
X106926693Y-66314365D01*
X106926692Y-66314365D01*
X106926691Y-66314364D01*
X106926686Y-66314364D01*
X106700002Y-66294532D01*
X106699998Y-66294532D01*
X106473313Y-66314364D01*
X106473302Y-66314366D01*
X106253511Y-66373258D01*
X106253506Y-66373260D01*
X106214078Y-66391645D01*
X106145000Y-66402135D01*
X106081217Y-66373613D01*
X106073995Y-66366942D01*
X105880039Y-66172986D01*
X105846554Y-66111663D01*
X105844036Y-66076458D01*
X105855227Y-65919999D01*
X105855227Y-65919998D01*
X105850025Y-65847265D01*
X105836343Y-65655974D01*
X105814030Y-65553403D01*
X105780078Y-65397326D01*
X105769674Y-65369432D01*
X105687574Y-65149311D01*
X105658978Y-65096942D01*
X105560719Y-64916994D01*
X105560714Y-64916986D01*
X105416479Y-64724310D01*
X105392062Y-64658846D01*
X105406914Y-64590573D01*
X105416479Y-64575690D01*
X105537244Y-64414366D01*
X105560716Y-64383011D01*
X105687574Y-64150689D01*
X105706481Y-64099998D01*
X113994532Y-64099998D01*
X113994532Y-64100001D01*
X114014364Y-64326686D01*
X114014366Y-64326697D01*
X114073258Y-64546488D01*
X114073261Y-64546497D01*
X114169431Y-64752732D01*
X114169432Y-64752734D01*
X114299954Y-64939141D01*
X114460858Y-65100045D01*
X114460861Y-65100047D01*
X114647266Y-65230568D01*
X114853504Y-65326739D01*
X115073308Y-65385635D01*
X115206937Y-65397326D01*
X115299998Y-65405468D01*
X115300000Y-65405468D01*
X115300002Y-65405468D01*
X115361985Y-65400045D01*
X115526692Y-65385635D01*
X115746496Y-65326739D01*
X115952734Y-65230568D01*
X116135049Y-65102911D01*
X116143574Y-65096942D01*
X116144355Y-65098058D01*
X116202404Y-65072643D01*
X116271398Y-65083672D01*
X116319696Y-65124520D01*
X116399953Y-65239140D01*
X116560858Y-65400045D01*
X116560861Y-65400047D01*
X116747266Y-65530568D01*
X116953504Y-65626739D01*
X116953509Y-65626740D01*
X116953511Y-65626741D01*
X117006415Y-65640916D01*
X117173308Y-65685635D01*
X117335230Y-65699801D01*
X117399998Y-65705468D01*
X117400000Y-65705468D01*
X117400002Y-65705468D01*
X117462522Y-65699998D01*
X117626692Y-65685635D01*
X117817912Y-65634398D01*
X117882088Y-65634398D01*
X118073308Y-65685635D01*
X118235230Y-65699801D01*
X118299998Y-65705468D01*
X118300000Y-65705468D01*
X118300002Y-65705468D01*
X118362522Y-65699998D01*
X118526692Y-65685635D01*
X118746496Y-65626739D01*
X118952734Y-65530568D01*
X119139139Y-65400047D01*
X119300047Y-65239139D01*
X119430568Y-65052734D01*
X119526739Y-64846496D01*
X119585635Y-64626692D01*
X119605468Y-64400000D01*
X119585635Y-64173308D01*
X119526739Y-63953504D01*
X119430568Y-63747266D01*
X119300047Y-63560861D01*
X119300045Y-63560858D01*
X119139141Y-63399954D01*
X118952734Y-63269432D01*
X118952732Y-63269431D01*
X118746497Y-63173261D01*
X118746488Y-63173258D01*
X118526697Y-63114366D01*
X118526693Y-63114365D01*
X118526692Y-63114365D01*
X118526691Y-63114364D01*
X118526686Y-63114364D01*
X118300002Y-63094532D01*
X118299998Y-63094532D01*
X118073313Y-63114364D01*
X118073305Y-63114365D01*
X117965945Y-63143132D01*
X117882092Y-63165601D01*
X117817908Y-63165601D01*
X117687163Y-63130568D01*
X117626694Y-63114365D01*
X117626687Y-63114364D01*
X117414886Y-63095834D01*
X117349818Y-63070381D01*
X117313313Y-63024712D01*
X117230568Y-62847266D01*
X117108730Y-62673262D01*
X117100045Y-62660858D01*
X116939141Y-62499954D01*
X116752734Y-62369432D01*
X116752732Y-62369431D01*
X116546497Y-62273261D01*
X116546488Y-62273258D01*
X116326697Y-62214366D01*
X116326693Y-62214365D01*
X116326692Y-62214365D01*
X116326691Y-62214364D01*
X116326686Y-62214364D01*
X116100002Y-62194532D01*
X116099998Y-62194532D01*
X115873313Y-62214364D01*
X115873302Y-62214366D01*
X115653511Y-62273258D01*
X115653502Y-62273261D01*
X115447267Y-62369431D01*
X115447265Y-62369432D01*
X115260862Y-62499951D01*
X115099953Y-62660861D01*
X114999684Y-62804058D01*
X114945107Y-62847682D01*
X114930206Y-62852707D01*
X114853505Y-62873260D01*
X114853504Y-62873260D01*
X114647267Y-62969431D01*
X114647265Y-62969432D01*
X114460858Y-63099954D01*
X114299954Y-63260858D01*
X114169432Y-63447265D01*
X114169431Y-63447267D01*
X114073261Y-63653502D01*
X114073258Y-63653511D01*
X114014366Y-63873302D01*
X114014364Y-63873313D01*
X113994532Y-64099998D01*
X105706481Y-64099998D01*
X105780077Y-63902678D01*
X105836343Y-63644026D01*
X105855227Y-63380000D01*
X105836343Y-63115974D01*
X105801758Y-62956989D01*
X105780078Y-62857326D01*
X105778355Y-62852707D01*
X105687574Y-62609311D01*
X105682515Y-62600047D01*
X105560719Y-62376994D01*
X105560714Y-62376986D01*
X105402093Y-62165092D01*
X105402084Y-62165082D01*
X105360659Y-62123657D01*
X105315100Y-62078098D01*
X105281617Y-62016778D01*
X105282817Y-61999998D01*
X106694532Y-61999998D01*
X106694532Y-62000001D01*
X106714364Y-62226686D01*
X106714366Y-62226697D01*
X106773258Y-62446488D01*
X106773261Y-62446497D01*
X106869431Y-62652732D01*
X106869432Y-62652734D01*
X106999954Y-62839141D01*
X107160858Y-63000045D01*
X107160861Y-63000047D01*
X107347266Y-63130568D01*
X107553504Y-63226739D01*
X107773308Y-63285635D01*
X107935230Y-63299801D01*
X107999998Y-63305468D01*
X108000000Y-63305468D01*
X108000002Y-63305468D01*
X108056673Y-63300509D01*
X108226692Y-63285635D01*
X108446496Y-63226739D01*
X108652734Y-63130568D01*
X108839139Y-63000047D01*
X109000047Y-62839139D01*
X109130568Y-62652734D01*
X109226739Y-62446496D01*
X109285635Y-62226692D01*
X109305468Y-62000000D01*
X109300253Y-61940398D01*
X109290305Y-61826686D01*
X109285635Y-61773308D01*
X109226739Y-61553504D01*
X109130568Y-61347266D01*
X109000047Y-61160861D01*
X109000045Y-61160858D01*
X108839141Y-60999954D01*
X108652734Y-60869432D01*
X108652732Y-60869431D01*
X108446497Y-60773261D01*
X108446488Y-60773258D01*
X108226697Y-60714366D01*
X108226693Y-60714365D01*
X108226692Y-60714365D01*
X108226691Y-60714364D01*
X108226686Y-60714364D01*
X108000002Y-60694532D01*
X107999998Y-60694532D01*
X107773313Y-60714364D01*
X107773302Y-60714366D01*
X107553511Y-60773258D01*
X107553502Y-60773261D01*
X107347267Y-60869431D01*
X107347265Y-60869432D01*
X107160858Y-60999954D01*
X106999954Y-61160858D01*
X106869432Y-61347265D01*
X106869431Y-61347267D01*
X106773261Y-61553502D01*
X106773258Y-61553511D01*
X106714366Y-61773302D01*
X106714364Y-61773313D01*
X106694532Y-61999998D01*
X105282817Y-61999998D01*
X105286601Y-61947086D01*
X105292914Y-61933261D01*
X105343597Y-61797376D01*
X105343598Y-61797372D01*
X105349999Y-61737844D01*
X105350000Y-61737827D01*
X105350000Y-61090000D01*
X104433012Y-61090000D01*
X104465925Y-61032993D01*
X104500000Y-60905826D01*
X104500000Y-60774174D01*
X104465925Y-60647007D01*
X104433012Y-60590000D01*
X105350000Y-60590000D01*
X105350000Y-59942172D01*
X105349999Y-59942155D01*
X105343598Y-59882627D01*
X105343596Y-59882620D01*
X105293354Y-59747913D01*
X105293350Y-59747906D01*
X105207190Y-59632812D01*
X105207187Y-59632809D01*
X105092093Y-59546649D01*
X105092086Y-59546645D01*
X104957379Y-59496403D01*
X104957372Y-59496401D01*
X104897844Y-59490000D01*
X104250000Y-59490000D01*
X104250000Y-60406988D01*
X104192993Y-60374075D01*
X104065826Y-60340000D01*
X103934174Y-60340000D01*
X103807007Y-60374075D01*
X103750000Y-60406988D01*
X103750000Y-59490000D01*
X103102155Y-59490000D01*
X103042627Y-59496401D01*
X103042620Y-59496403D01*
X102907913Y-59546645D01*
X102907906Y-59546649D01*
X102792812Y-59632809D01*
X102792809Y-59632812D01*
X102706649Y-59747906D01*
X102706645Y-59747913D01*
X102656403Y-59882620D01*
X102656401Y-59882627D01*
X102650000Y-59942155D01*
X102650000Y-60590000D01*
X103566988Y-60590000D01*
X103534075Y-60647007D01*
X103500000Y-60774174D01*
X103500000Y-60905826D01*
X103534075Y-61032993D01*
X103566988Y-61090000D01*
X102650000Y-61090000D01*
X102650000Y-61737844D01*
X102656401Y-61797372D01*
X102656402Y-61797376D01*
X102709747Y-61940398D01*
X102708219Y-61940967D01*
X102720898Y-61999276D01*
X102696475Y-62064738D01*
X102684898Y-62078098D01*
X102597913Y-62165084D01*
X102597903Y-62165096D01*
X102439285Y-62376986D01*
X102439280Y-62376994D01*
X102312428Y-62609305D01*
X102312426Y-62609309D01*
X102219921Y-62857326D01*
X102163658Y-63115965D01*
X102163657Y-63115972D01*
X102144773Y-63379998D01*
X100000000Y-63379998D01*
X100000000Y-57799998D01*
X115594532Y-57799998D01*
X115594532Y-57800001D01*
X115614364Y-58026686D01*
X115614366Y-58026697D01*
X115673258Y-58246488D01*
X115673261Y-58246497D01*
X115769431Y-58452732D01*
X115769432Y-58452734D01*
X115899954Y-58639141D01*
X116060858Y-58800045D01*
X116060861Y-58800047D01*
X116247266Y-58930568D01*
X116453504Y-59026739D01*
X116673308Y-59085635D01*
X116835230Y-59099801D01*
X116899998Y-59105468D01*
X116900000Y-59105468D01*
X116900002Y-59105468D01*
X116956673Y-59100509D01*
X117126692Y-59085635D01*
X117346496Y-59026739D01*
X117552734Y-58930568D01*
X117739139Y-58800047D01*
X117900047Y-58639139D01*
X118030568Y-58452734D01*
X118126739Y-58246496D01*
X118185635Y-58026692D01*
X118205468Y-57800000D01*
X118185635Y-57573308D01*
X118126739Y-57353504D01*
X118030568Y-57147266D01*
X117900047Y-56960861D01*
X117900045Y-56960858D01*
X117739141Y-56799954D01*
X117552734Y-56669432D01*
X117552732Y-56669431D01*
X117346497Y-56573261D01*
X117346488Y-56573258D01*
X117126697Y-56514366D01*
X117126693Y-56514365D01*
X117126692Y-56514365D01*
X117126691Y-56514364D01*
X117126686Y-56514364D01*
X116962480Y-56499998D01*
X121294532Y-56499998D01*
X121294532Y-56500001D01*
X121314364Y-56726686D01*
X121314366Y-56726697D01*
X121373258Y-56946488D01*
X121373261Y-56946497D01*
X121469431Y-57152732D01*
X121469432Y-57152734D01*
X121599954Y-57339141D01*
X121760858Y-57500045D01*
X121760861Y-57500047D01*
X121947266Y-57630568D01*
X122153504Y-57726739D01*
X122373308Y-57785635D01*
X122535230Y-57799801D01*
X122599998Y-57805468D01*
X122600000Y-57805468D01*
X122600002Y-57805468D01*
X122662522Y-57799998D01*
X122826692Y-57785635D01*
X123046496Y-57726739D01*
X123252734Y-57630568D01*
X123439139Y-57500047D01*
X123600047Y-57339139D01*
X123730568Y-57152734D01*
X123826739Y-56946496D01*
X123885635Y-56726692D01*
X123905468Y-56500000D01*
X123885635Y-56273308D01*
X123826739Y-56053504D01*
X123730568Y-55847266D01*
X123600047Y-55660861D01*
X123600045Y-55660858D01*
X123439141Y-55499954D01*
X123252734Y-55369432D01*
X123252732Y-55369431D01*
X123046497Y-55273261D01*
X123046488Y-55273258D01*
X122826697Y-55214366D01*
X122826693Y-55214365D01*
X122826692Y-55214365D01*
X122826691Y-55214364D01*
X122826686Y-55214364D01*
X122600002Y-55194532D01*
X122599998Y-55194532D01*
X122373313Y-55214364D01*
X122373302Y-55214366D01*
X122153511Y-55273258D01*
X122153502Y-55273261D01*
X121947267Y-55369431D01*
X121947265Y-55369432D01*
X121760858Y-55499954D01*
X121599954Y-55660858D01*
X121469432Y-55847265D01*
X121469431Y-55847267D01*
X121373261Y-56053502D01*
X121373258Y-56053511D01*
X121314366Y-56273302D01*
X121314364Y-56273313D01*
X121294532Y-56499998D01*
X116962480Y-56499998D01*
X116900002Y-56494532D01*
X116899998Y-56494532D01*
X116673313Y-56514364D01*
X116673302Y-56514366D01*
X116453511Y-56573258D01*
X116453502Y-56573261D01*
X116247267Y-56669431D01*
X116247265Y-56669432D01*
X116060858Y-56799954D01*
X115899954Y-56960858D01*
X115769432Y-57147265D01*
X115769431Y-57147267D01*
X115673261Y-57353502D01*
X115673258Y-57353511D01*
X115614366Y-57573302D01*
X115614364Y-57573313D01*
X115594532Y-57799998D01*
X100000000Y-57799998D01*
X100000000Y-50381025D01*
X100019685Y-50313986D01*
X100072489Y-50268231D01*
X100141647Y-50258287D01*
X100205203Y-50287312D01*
X100233989Y-50323768D01*
X100405253Y-50652765D01*
X100405257Y-50652771D01*
X100405259Y-50652775D01*
X100431861Y-50694532D01*
X100653950Y-51043142D01*
X100935707Y-51410335D01*
X100935711Y-51410340D01*
X101248408Y-51751588D01*
X101248411Y-51751591D01*
X101589659Y-52064288D01*
X101589664Y-52064292D01*
X101956857Y-52346049D01*
X101956862Y-52346052D01*
X102347225Y-52594741D01*
X102347231Y-52594744D01*
X102347234Y-52594746D01*
X102757773Y-52808459D01*
X102757778Y-52808461D01*
X103185395Y-52985586D01*
X103626823Y-53124768D01*
X104078701Y-53224947D01*
X104537591Y-53285361D01*
X105000000Y-53305550D01*
X105462409Y-53285361D01*
X105921299Y-53224947D01*
X106373177Y-53124768D01*
X106814605Y-52985586D01*
X107242222Y-52808461D01*
X107258476Y-52800000D01*
X107258480Y-52799998D01*
X114294532Y-52799998D01*
X114294532Y-52800001D01*
X114314364Y-53026686D01*
X114314366Y-53026697D01*
X114373258Y-53246488D01*
X114373261Y-53246497D01*
X114469431Y-53452732D01*
X114469432Y-53452734D01*
X114599954Y-53639141D01*
X114760858Y-53800045D01*
X114760861Y-53800047D01*
X114947266Y-53930568D01*
X115153504Y-54026739D01*
X115373308Y-54085635D01*
X115535230Y-54099801D01*
X115599998Y-54105468D01*
X115600000Y-54105468D01*
X115600002Y-54105468D01*
X115656673Y-54100509D01*
X115826692Y-54085635D01*
X116046496Y-54026739D01*
X116252734Y-53930568D01*
X116439139Y-53800047D01*
X116439188Y-53799998D01*
X123794532Y-53799998D01*
X123794532Y-53800001D01*
X123814364Y-54026686D01*
X123814366Y-54026697D01*
X123873258Y-54246488D01*
X123873261Y-54246497D01*
X123969431Y-54452732D01*
X123969432Y-54452734D01*
X124099954Y-54639141D01*
X124260858Y-54800045D01*
X124260861Y-54800047D01*
X124447266Y-54930568D01*
X124653504Y-55026739D01*
X124873308Y-55085635D01*
X125035230Y-55099801D01*
X125099998Y-55105468D01*
X125100000Y-55105468D01*
X125100002Y-55105468D01*
X125156673Y-55100509D01*
X125326692Y-55085635D01*
X125546496Y-55026739D01*
X125752734Y-54930568D01*
X125939139Y-54800047D01*
X126100047Y-54639139D01*
X126230568Y-54452734D01*
X126326739Y-54246496D01*
X126385635Y-54026692D01*
X126405468Y-53800000D01*
X126385635Y-53573308D01*
X126335348Y-53385633D01*
X126326741Y-53353511D01*
X126326738Y-53353502D01*
X126309459Y-53316447D01*
X126230568Y-53147266D01*
X126127419Y-52999953D01*
X126100045Y-52960858D01*
X125939185Y-52799998D01*
X140294532Y-52799998D01*
X140294532Y-52800001D01*
X140314364Y-53026686D01*
X140314366Y-53026697D01*
X140373258Y-53246488D01*
X140373261Y-53246497D01*
X140469431Y-53452732D01*
X140469432Y-53452734D01*
X140599954Y-53639141D01*
X140760858Y-53800045D01*
X140760861Y-53800047D01*
X140947266Y-53930568D01*
X141153504Y-54026739D01*
X141373308Y-54085635D01*
X141535230Y-54099801D01*
X141599998Y-54105468D01*
X141600000Y-54105468D01*
X141600002Y-54105468D01*
X141656673Y-54100509D01*
X141826692Y-54085635D01*
X142046496Y-54026739D01*
X142103842Y-53999998D01*
X144694532Y-53999998D01*
X144694532Y-54000001D01*
X144714364Y-54226686D01*
X144714366Y-54226697D01*
X144773258Y-54446488D01*
X144773261Y-54446497D01*
X144869431Y-54652732D01*
X144869432Y-54652734D01*
X144999954Y-54839141D01*
X145160858Y-55000045D01*
X145160861Y-55000047D01*
X145347266Y-55130568D01*
X145553504Y-55226739D01*
X145773308Y-55285635D01*
X145935230Y-55299801D01*
X145999998Y-55305468D01*
X146000000Y-55305468D01*
X146000002Y-55305468D01*
X146056673Y-55300509D01*
X146226692Y-55285635D01*
X146446496Y-55226739D01*
X146652734Y-55130568D01*
X146839139Y-55000047D01*
X147000047Y-54839139D01*
X147130568Y-54652734D01*
X147226739Y-54446496D01*
X147285635Y-54226692D01*
X147305468Y-54000000D01*
X147285635Y-53773308D01*
X147232047Y-53573313D01*
X147226741Y-53553511D01*
X147226738Y-53553502D01*
X147178151Y-53449308D01*
X147167659Y-53380231D01*
X147196179Y-53316447D01*
X147254655Y-53278207D01*
X147258428Y-53277131D01*
X147446496Y-53226739D01*
X147652734Y-53130568D01*
X147839139Y-53000047D01*
X148000047Y-52839139D01*
X148130568Y-52652734D01*
X148226739Y-52446496D01*
X148285635Y-52226692D01*
X148305468Y-52000000D01*
X148285635Y-51773308D01*
X148226739Y-51553504D01*
X148130568Y-51347266D01*
X148000047Y-51160861D01*
X148000045Y-51160858D01*
X147839141Y-50999954D01*
X147652734Y-50869432D01*
X147652732Y-50869431D01*
X147446497Y-50773261D01*
X147446488Y-50773258D01*
X147226697Y-50714366D01*
X147226693Y-50714365D01*
X147226692Y-50714365D01*
X147226691Y-50714364D01*
X147226686Y-50714364D01*
X147000002Y-50694532D01*
X146999998Y-50694532D01*
X146773313Y-50714364D01*
X146773302Y-50714366D01*
X146553511Y-50773258D01*
X146553502Y-50773261D01*
X146347267Y-50869431D01*
X146347265Y-50869432D01*
X146160858Y-50999954D01*
X145999954Y-51160858D01*
X145869432Y-51347265D01*
X145869431Y-51347267D01*
X145773261Y-51553502D01*
X145773258Y-51553511D01*
X145714366Y-51773302D01*
X145714364Y-51773313D01*
X145694532Y-51999998D01*
X145694532Y-52000001D01*
X145714364Y-52226686D01*
X145714366Y-52226697D01*
X145773258Y-52446488D01*
X145773260Y-52446492D01*
X145773261Y-52446496D01*
X145804909Y-52514364D01*
X145821848Y-52550691D01*
X145832340Y-52619769D01*
X145803820Y-52683553D01*
X145745344Y-52721792D01*
X145741560Y-52722871D01*
X145553509Y-52773259D01*
X145553502Y-52773261D01*
X145347267Y-52869431D01*
X145347265Y-52869432D01*
X145160858Y-52999954D01*
X144999954Y-53160858D01*
X144869432Y-53347265D01*
X144869431Y-53347267D01*
X144773261Y-53553502D01*
X144773258Y-53553511D01*
X144714366Y-53773302D01*
X144714364Y-53773313D01*
X144694532Y-53999998D01*
X142103842Y-53999998D01*
X142252734Y-53930568D01*
X142439139Y-53800047D01*
X142600047Y-53639139D01*
X142730568Y-53452734D01*
X142826739Y-53246496D01*
X142885635Y-53026692D01*
X142905468Y-52800000D01*
X142903128Y-52773259D01*
X142892584Y-52652734D01*
X142885635Y-52573308D01*
X142835163Y-52384943D01*
X142836826Y-52315095D01*
X142875988Y-52257232D01*
X142922847Y-52233076D01*
X142946483Y-52226743D01*
X142946488Y-52226740D01*
X142946496Y-52226739D01*
X143152734Y-52130568D01*
X143339139Y-52000047D01*
X143500047Y-51839139D01*
X143630568Y-51652734D01*
X143726739Y-51446496D01*
X143785635Y-51226692D01*
X143805468Y-51000000D01*
X143785635Y-50773308D01*
X143726739Y-50553504D01*
X143662118Y-50414924D01*
X143650500Y-50362519D01*
X143650500Y-46137479D01*
X143662118Y-46085074D01*
X143671094Y-46065826D01*
X143726739Y-45946496D01*
X143785635Y-45726692D01*
X143802634Y-45532384D01*
X143805468Y-45500001D01*
X143805468Y-45499998D01*
X143794576Y-45375507D01*
X143785635Y-45273308D01*
X143772555Y-45224493D01*
X148450464Y-45224493D01*
X148450464Y-45375507D01*
X148489550Y-45521377D01*
X148489551Y-45521380D01*
X148507322Y-45552159D01*
X148565057Y-45652159D01*
X148671841Y-45758943D01*
X148763767Y-45812016D01*
X148802619Y-45834448D01*
X148802620Y-45834448D01*
X148802623Y-45834450D01*
X148948493Y-45873536D01*
X149099504Y-45873536D01*
X149099507Y-45873536D01*
X149245377Y-45834450D01*
X149376159Y-45758943D01*
X149482943Y-45652159D01*
X149558450Y-45521377D01*
X149597536Y-45375507D01*
X149600000Y-45300000D01*
X149597536Y-45224493D01*
X149558450Y-45078623D01*
X149482943Y-44947841D01*
X149376159Y-44841057D01*
X149337303Y-44818623D01*
X149245380Y-44765551D01*
X149245381Y-44765551D01*
X149233419Y-44762345D01*
X149099507Y-44726464D01*
X149099504Y-44726464D01*
X148948496Y-44726464D01*
X148948493Y-44726464D01*
X148814580Y-44762345D01*
X148802619Y-44765551D01*
X148671844Y-44841055D01*
X148671838Y-44841059D01*
X148565059Y-44947838D01*
X148565055Y-44947844D01*
X148489551Y-45078619D01*
X148489550Y-45078623D01*
X148450464Y-45224493D01*
X143772555Y-45224493D01*
X143726739Y-45053504D01*
X143630568Y-44847266D01*
X143532839Y-44707693D01*
X143500045Y-44660858D01*
X143339141Y-44499954D01*
X143152734Y-44369432D01*
X143152732Y-44369431D01*
X142946497Y-44273261D01*
X142946488Y-44273258D01*
X142726697Y-44214366D01*
X142726693Y-44214365D01*
X142726692Y-44214365D01*
X142726691Y-44214364D01*
X142726686Y-44214364D01*
X142500002Y-44194532D01*
X142499998Y-44194532D01*
X142273313Y-44214364D01*
X142273302Y-44214366D01*
X142053511Y-44273258D01*
X142053502Y-44273261D01*
X141847267Y-44369431D01*
X141847265Y-44369432D01*
X141660858Y-44499954D01*
X141499954Y-44660858D01*
X141369432Y-44847265D01*
X141369431Y-44847267D01*
X141273261Y-45053502D01*
X141273258Y-45053511D01*
X141214366Y-45273302D01*
X141214364Y-45273313D01*
X141194532Y-45499998D01*
X141194532Y-45500001D01*
X141214364Y-45726686D01*
X141214366Y-45726697D01*
X141273258Y-45946488D01*
X141273261Y-45946497D01*
X141337882Y-46085074D01*
X141349500Y-46137479D01*
X141349500Y-50362519D01*
X141337882Y-50414924D01*
X141273262Y-50553502D01*
X141273258Y-50553511D01*
X141214366Y-50773302D01*
X141214364Y-50773313D01*
X141194532Y-50999998D01*
X141194532Y-51000001D01*
X141214364Y-51226686D01*
X141214366Y-51226697D01*
X141264836Y-51415056D01*
X141263173Y-51484906D01*
X141224010Y-51542768D01*
X141177157Y-51566923D01*
X141153503Y-51573261D01*
X140947267Y-51669431D01*
X140947265Y-51669432D01*
X140760858Y-51799954D01*
X140599954Y-51960858D01*
X140469432Y-52147265D01*
X140469431Y-52147267D01*
X140373261Y-52353502D01*
X140373258Y-52353511D01*
X140314366Y-52573302D01*
X140314364Y-52573313D01*
X140294532Y-52799998D01*
X125939185Y-52799998D01*
X125939141Y-52799954D01*
X125752734Y-52669432D01*
X125752732Y-52669431D01*
X125546497Y-52573261D01*
X125546488Y-52573258D01*
X125326697Y-52514366D01*
X125326693Y-52514365D01*
X125326692Y-52514365D01*
X125326691Y-52514364D01*
X125326686Y-52514364D01*
X125100002Y-52494532D01*
X125099998Y-52494532D01*
X124873313Y-52514364D01*
X124873302Y-52514366D01*
X124653511Y-52573258D01*
X124653502Y-52573261D01*
X124447267Y-52669431D01*
X124447265Y-52669432D01*
X124260858Y-52799954D01*
X124099954Y-52960858D01*
X123969432Y-53147265D01*
X123969431Y-53147267D01*
X123873261Y-53353502D01*
X123873258Y-53353511D01*
X123814366Y-53573302D01*
X123814364Y-53573313D01*
X123794532Y-53799998D01*
X116439188Y-53799998D01*
X116600047Y-53639139D01*
X116730568Y-53452734D01*
X116826739Y-53246496D01*
X116885635Y-53026692D01*
X116905468Y-52800000D01*
X116903128Y-52773259D01*
X116892584Y-52652734D01*
X116885635Y-52573308D01*
X116835163Y-52384943D01*
X116836826Y-52315095D01*
X116875988Y-52257232D01*
X116922847Y-52233076D01*
X116946483Y-52226743D01*
X116946488Y-52226740D01*
X116946496Y-52226739D01*
X117152734Y-52130568D01*
X117339139Y-52000047D01*
X117500047Y-51839139D01*
X117630568Y-51652734D01*
X117701790Y-51499998D01*
X118194532Y-51499998D01*
X118194532Y-51500001D01*
X118214364Y-51726686D01*
X118214366Y-51726697D01*
X118273258Y-51946488D01*
X118273261Y-51946497D01*
X118369431Y-52152732D01*
X118369432Y-52152734D01*
X118499954Y-52339141D01*
X118660858Y-52500045D01*
X118660861Y-52500047D01*
X118847266Y-52630568D01*
X119053504Y-52726739D01*
X119273308Y-52785635D01*
X119435230Y-52799801D01*
X119499998Y-52805468D01*
X119500000Y-52805468D01*
X119500002Y-52805468D01*
X119531421Y-52802719D01*
X119726692Y-52785635D01*
X119776212Y-52772366D01*
X119782411Y-52770705D01*
X119852261Y-52772366D01*
X119910124Y-52811528D01*
X119916081Y-52819356D01*
X119999954Y-52939141D01*
X120160858Y-53100045D01*
X120160861Y-53100047D01*
X120347266Y-53230568D01*
X120553504Y-53326739D01*
X120773308Y-53385635D01*
X120935230Y-53399801D01*
X120999998Y-53405468D01*
X121000000Y-53405468D01*
X121000002Y-53405468D01*
X121056673Y-53400509D01*
X121226692Y-53385635D01*
X121446496Y-53326739D01*
X121652734Y-53230568D01*
X121839139Y-53100047D01*
X122000047Y-52939139D01*
X122130568Y-52752734D01*
X122226739Y-52546496D01*
X122285635Y-52326692D01*
X122305468Y-52100000D01*
X122285635Y-51873308D01*
X122226739Y-51653504D01*
X122130568Y-51447266D01*
X122000047Y-51260861D01*
X122000045Y-51260858D01*
X121839141Y-51099954D01*
X121652734Y-50969432D01*
X121652732Y-50969431D01*
X121446497Y-50873261D01*
X121446488Y-50873258D01*
X121226697Y-50814366D01*
X121226693Y-50814365D01*
X121226692Y-50814365D01*
X121226691Y-50814364D01*
X121226686Y-50814364D01*
X121000002Y-50794532D01*
X120999998Y-50794532D01*
X120773313Y-50814364D01*
X120773299Y-50814367D01*
X120717585Y-50829295D01*
X120647735Y-50827632D01*
X120589873Y-50788468D01*
X120583918Y-50780643D01*
X120578782Y-50773308D01*
X120500047Y-50660861D01*
X120500045Y-50660858D01*
X120339141Y-50499954D01*
X120152734Y-50369432D01*
X120152732Y-50369431D01*
X119946497Y-50273261D01*
X119946488Y-50273258D01*
X119726697Y-50214366D01*
X119726693Y-50214365D01*
X119726692Y-50214365D01*
X119726691Y-50214364D01*
X119726686Y-50214364D01*
X119500002Y-50194532D01*
X119499998Y-50194532D01*
X119273313Y-50214364D01*
X119273302Y-50214366D01*
X119053511Y-50273258D01*
X119053502Y-50273261D01*
X118847267Y-50369431D01*
X118847265Y-50369432D01*
X118660858Y-50499954D01*
X118499954Y-50660858D01*
X118369432Y-50847265D01*
X118369431Y-50847267D01*
X118273261Y-51053502D01*
X118273258Y-51053511D01*
X118214366Y-51273302D01*
X118214364Y-51273313D01*
X118194532Y-51499998D01*
X117701790Y-51499998D01*
X117726739Y-51446496D01*
X117785635Y-51226692D01*
X117805468Y-51000000D01*
X117785635Y-50773308D01*
X117726739Y-50553504D01*
X117662118Y-50414924D01*
X117650500Y-50362519D01*
X117650500Y-46137479D01*
X117662118Y-46085074D01*
X117671094Y-46065826D01*
X117726739Y-45946496D01*
X117785635Y-45726692D01*
X117802634Y-45532384D01*
X117805468Y-45500001D01*
X117805468Y-45499998D01*
X117794576Y-45375507D01*
X117785635Y-45273308D01*
X117739775Y-45102155D01*
X125350000Y-45102155D01*
X125350000Y-45750000D01*
X126266988Y-45750000D01*
X126234075Y-45807007D01*
X126200000Y-45934174D01*
X126200000Y-46065826D01*
X126234075Y-46192993D01*
X126266988Y-46250000D01*
X125350000Y-46250000D01*
X125350000Y-46897844D01*
X125356401Y-46957372D01*
X125356403Y-46957379D01*
X125406645Y-47092086D01*
X125406649Y-47092093D01*
X125492809Y-47207187D01*
X125492812Y-47207190D01*
X125607906Y-47293350D01*
X125607913Y-47293354D01*
X125742620Y-47343596D01*
X125742627Y-47343598D01*
X125802155Y-47349999D01*
X125802172Y-47350000D01*
X126450000Y-47350000D01*
X126450000Y-46433012D01*
X126507007Y-46465925D01*
X126634174Y-46500000D01*
X126765826Y-46500000D01*
X126892993Y-46465925D01*
X126950000Y-46433012D01*
X126950000Y-47350000D01*
X127597828Y-47350000D01*
X127597844Y-47349999D01*
X127657372Y-47343598D01*
X127657376Y-47343597D01*
X127800398Y-47290253D01*
X127800968Y-47291782D01*
X127859256Y-47279098D01*
X127924722Y-47303511D01*
X127938093Y-47315095D01*
X128015060Y-47392062D01*
X128025082Y-47402084D01*
X128025092Y-47402093D01*
X128236986Y-47560714D01*
X128236994Y-47560719D01*
X128469305Y-47687571D01*
X128469309Y-47687573D01*
X128469311Y-47687574D01*
X128717322Y-47780077D01*
X128717325Y-47780077D01*
X128717326Y-47780078D01*
X128912552Y-47822546D01*
X128975974Y-47836343D01*
X129219660Y-47853772D01*
X129239999Y-47855227D01*
X129240000Y-47855227D01*
X129240001Y-47855227D01*
X129258885Y-47853876D01*
X129504026Y-47836343D01*
X129762678Y-47780077D01*
X130010689Y-47687574D01*
X130243011Y-47560716D01*
X130353155Y-47478263D01*
X130435690Y-47416479D01*
X130501154Y-47392062D01*
X130569427Y-47406914D01*
X130584310Y-47416479D01*
X130776986Y-47560714D01*
X130776994Y-47560719D01*
X131009305Y-47687571D01*
X131009309Y-47687573D01*
X131009311Y-47687574D01*
X131257322Y-47780077D01*
X131257325Y-47780077D01*
X131257326Y-47780078D01*
X131452552Y-47822546D01*
X131515974Y-47836343D01*
X131759660Y-47853772D01*
X131779999Y-47855227D01*
X131780000Y-47855227D01*
X131780001Y-47855227D01*
X131798885Y-47853876D01*
X132044026Y-47836343D01*
X132302678Y-47780077D01*
X132550689Y-47687574D01*
X132783011Y-47560716D01*
X132893155Y-47478263D01*
X132975690Y-47416479D01*
X133041154Y-47392062D01*
X133109427Y-47406914D01*
X133124310Y-47416479D01*
X133316986Y-47560714D01*
X133316994Y-47560719D01*
X133549305Y-47687571D01*
X133549309Y-47687573D01*
X133549311Y-47687574D01*
X133797322Y-47780077D01*
X133797325Y-47780077D01*
X133797326Y-47780078D01*
X133992552Y-47822546D01*
X134055974Y-47836343D01*
X134299660Y-47853772D01*
X134319999Y-47855227D01*
X134320000Y-47855227D01*
X134320001Y-47855227D01*
X134338885Y-47853876D01*
X134584026Y-47836343D01*
X134842678Y-47780077D01*
X135090689Y-47687574D01*
X135323011Y-47560716D01*
X135534915Y-47402087D01*
X135722087Y-47214915D01*
X135880716Y-47003011D01*
X136007574Y-46770689D01*
X136100077Y-46522678D01*
X136156343Y-46264026D01*
X136175227Y-46000000D01*
X136156343Y-45735974D01*
X136107904Y-45513303D01*
X136100078Y-45477326D01*
X136079211Y-45421380D01*
X136007574Y-45229311D01*
X135938141Y-45102155D01*
X135880719Y-44996994D01*
X135880714Y-44996986D01*
X135722093Y-44785092D01*
X135722077Y-44785074D01*
X135534925Y-44597922D01*
X135534907Y-44597906D01*
X135323013Y-44439285D01*
X135323005Y-44439280D01*
X135090694Y-44312428D01*
X135090690Y-44312426D01*
X134842673Y-44219921D01*
X134584034Y-44163658D01*
X134584027Y-44163657D01*
X134320001Y-44144773D01*
X134319999Y-44144773D01*
X134055972Y-44163657D01*
X134055965Y-44163658D01*
X133797326Y-44219921D01*
X133549309Y-44312426D01*
X133549305Y-44312428D01*
X133316994Y-44439280D01*
X133316986Y-44439285D01*
X133124310Y-44583520D01*
X133058845Y-44607937D01*
X132990573Y-44593085D01*
X132975690Y-44583520D01*
X132783013Y-44439285D01*
X132783005Y-44439280D01*
X132550694Y-44312428D01*
X132550690Y-44312426D01*
X132302673Y-44219921D01*
X132044034Y-44163658D01*
X132044027Y-44163657D01*
X131780001Y-44144773D01*
X131779999Y-44144773D01*
X131515972Y-44163657D01*
X131515965Y-44163658D01*
X131257326Y-44219921D01*
X131009309Y-44312426D01*
X131009305Y-44312428D01*
X130776994Y-44439280D01*
X130776986Y-44439285D01*
X130584310Y-44583520D01*
X130518845Y-44607937D01*
X130450573Y-44593085D01*
X130435690Y-44583520D01*
X130243013Y-44439285D01*
X130243005Y-44439280D01*
X130010694Y-44312428D01*
X130010690Y-44312426D01*
X129762673Y-44219921D01*
X129504034Y-44163658D01*
X129504027Y-44163657D01*
X129240001Y-44144773D01*
X129239999Y-44144773D01*
X128975972Y-44163657D01*
X128975965Y-44163658D01*
X128717326Y-44219921D01*
X128469309Y-44312426D01*
X128469305Y-44312428D01*
X128236994Y-44439280D01*
X128236986Y-44439285D01*
X128025096Y-44597903D01*
X128025084Y-44597913D01*
X127938098Y-44684898D01*
X127876774Y-44718382D01*
X127807083Y-44713396D01*
X127793267Y-44707087D01*
X127657376Y-44656402D01*
X127657372Y-44656401D01*
X127597844Y-44650000D01*
X126950000Y-44650000D01*
X126950000Y-45566988D01*
X126892993Y-45534075D01*
X126765826Y-45500000D01*
X126634174Y-45500000D01*
X126507007Y-45534075D01*
X126450000Y-45566988D01*
X126450000Y-44650000D01*
X125802155Y-44650000D01*
X125742627Y-44656401D01*
X125742620Y-44656403D01*
X125607913Y-44706645D01*
X125607906Y-44706649D01*
X125492812Y-44792809D01*
X125492809Y-44792812D01*
X125406649Y-44907906D01*
X125406645Y-44907913D01*
X125356403Y-45042620D01*
X125356401Y-45042627D01*
X125350000Y-45102155D01*
X117739775Y-45102155D01*
X117726739Y-45053504D01*
X117630568Y-44847266D01*
X117532839Y-44707693D01*
X117500045Y-44660858D01*
X117339141Y-44499954D01*
X117152734Y-44369432D01*
X117152732Y-44369431D01*
X116946497Y-44273261D01*
X116946488Y-44273258D01*
X116726697Y-44214366D01*
X116726693Y-44214365D01*
X116726692Y-44214365D01*
X116726691Y-44214364D01*
X116726686Y-44214364D01*
X116500002Y-44194532D01*
X116499998Y-44194532D01*
X116273313Y-44214364D01*
X116273302Y-44214366D01*
X116053511Y-44273258D01*
X116053502Y-44273261D01*
X115847267Y-44369431D01*
X115847265Y-44369432D01*
X115660858Y-44499954D01*
X115499954Y-44660858D01*
X115369432Y-44847265D01*
X115369431Y-44847267D01*
X115273261Y-45053502D01*
X115273258Y-45053511D01*
X115214366Y-45273302D01*
X115214364Y-45273313D01*
X115194532Y-45499998D01*
X115194532Y-45500001D01*
X115214364Y-45726686D01*
X115214366Y-45726697D01*
X115273258Y-45946488D01*
X115273261Y-45946497D01*
X115337882Y-46085074D01*
X115349500Y-46137479D01*
X115349500Y-50362519D01*
X115337882Y-50414924D01*
X115273262Y-50553502D01*
X115273258Y-50553511D01*
X115214366Y-50773302D01*
X115214364Y-50773313D01*
X115194532Y-50999998D01*
X115194532Y-51000001D01*
X115214364Y-51226686D01*
X115214366Y-51226697D01*
X115264836Y-51415056D01*
X115263173Y-51484906D01*
X115224010Y-51542768D01*
X115177157Y-51566923D01*
X115153503Y-51573261D01*
X114947267Y-51669431D01*
X114947265Y-51669432D01*
X114760858Y-51799954D01*
X114599954Y-51960858D01*
X114469432Y-52147265D01*
X114469431Y-52147267D01*
X114373261Y-52353502D01*
X114373258Y-52353511D01*
X114314366Y-52573302D01*
X114314364Y-52573313D01*
X114294532Y-52799998D01*
X107258480Y-52799998D01*
X107482168Y-52683553D01*
X107652775Y-52594741D01*
X108043138Y-52346052D01*
X108068369Y-52326692D01*
X108302201Y-52147266D01*
X108410342Y-52064287D01*
X108751590Y-51751590D01*
X109064287Y-51410342D01*
X109346052Y-51043138D01*
X109594741Y-50652775D01*
X109808461Y-50242222D01*
X109985586Y-49814605D01*
X110124768Y-49373177D01*
X110224947Y-48921299D01*
X110285361Y-48462409D01*
X110305550Y-48000000D01*
X110285361Y-47537591D01*
X110224947Y-47078701D01*
X110124768Y-46626823D01*
X109985586Y-46185395D01*
X109808461Y-45757778D01*
X109808459Y-45757773D01*
X109594746Y-45347234D01*
X109594744Y-45347231D01*
X109594741Y-45347225D01*
X109452845Y-45124493D01*
X110226464Y-45124493D01*
X110226464Y-45275507D01*
X110253259Y-45375507D01*
X110265551Y-45421380D01*
X110318623Y-45513303D01*
X110341057Y-45552159D01*
X110447841Y-45658943D01*
X110539767Y-45712016D01*
X110578619Y-45734448D01*
X110578620Y-45734448D01*
X110578623Y-45734450D01*
X110724493Y-45773536D01*
X110875504Y-45773536D01*
X110875507Y-45773536D01*
X111021377Y-45734450D01*
X111152159Y-45658943D01*
X111258943Y-45552159D01*
X111334450Y-45421377D01*
X111373536Y-45275507D01*
X111376000Y-45200000D01*
X111373536Y-45124493D01*
X111334450Y-44978623D01*
X111321883Y-44956857D01*
X111312016Y-44939767D01*
X111258943Y-44847841D01*
X111152159Y-44741057D01*
X111092556Y-44706645D01*
X111021380Y-44665551D01*
X111021381Y-44665551D01*
X110987236Y-44656402D01*
X110875507Y-44626464D01*
X110875504Y-44626464D01*
X110724496Y-44626464D01*
X110724493Y-44626464D01*
X110612764Y-44656402D01*
X110578619Y-44665551D01*
X110447844Y-44741055D01*
X110447838Y-44741059D01*
X110341059Y-44847838D01*
X110341055Y-44847844D01*
X110265551Y-44978619D01*
X110265550Y-44978623D01*
X110226464Y-45124493D01*
X109452845Y-45124493D01*
X109346052Y-44956862D01*
X109346049Y-44956857D01*
X109064292Y-44589664D01*
X109064288Y-44589659D01*
X108751591Y-44248411D01*
X108751588Y-44248408D01*
X108410340Y-43935711D01*
X108410335Y-43935707D01*
X108043142Y-43653950D01*
X107810238Y-43505574D01*
X107652775Y-43405259D01*
X107652771Y-43405257D01*
X107652765Y-43405253D01*
X107323769Y-43233989D01*
X107273394Y-43185574D01*
X107257191Y-43117609D01*
X107280305Y-43051673D01*
X107335397Y-43008700D01*
X107381026Y-43000000D01*
X152618974Y-43000000D01*
X152686013Y-43019685D01*
G37*
%TD.AperFunction*%
%TD*%
M02*
