%TF.GenerationSoftware,KiCad,Pcbnew,8.0.6*%
%TF.CreationDate,2024-12-26T00:35:44-06:00*%
%TF.ProjectId,KiCAD_MCPtest,4b694341-445f-44d4-9350-746573742e6b,rev?*%
%TF.SameCoordinates,Original*%
%TF.FileFunction,Copper,L2,Inr*%
%TF.FilePolarity,Positive*%
%FSLAX46Y46*%
G04 Gerber Fmt 4.6, Leading zero omitted, Abs format (unit mm)*
G04 Created by KiCad (PCBNEW 8.0.6) date 2024-12-26 00:35:44*
%MOMM*%
%LPD*%
G01*
G04 APERTURE LIST*
%TA.AperFunction,ComponentPad*%
%ADD10C,0.900000*%
%TD*%
%TA.AperFunction,ComponentPad*%
%ADD11C,8.600000*%
%TD*%
%TA.AperFunction,ComponentPad*%
%ADD12R,1.700000X1.700000*%
%TD*%
%TA.AperFunction,ComponentPad*%
%ADD13O,1.700000X1.700000*%
%TD*%
%TA.AperFunction,ComponentPad*%
%ADD14O,1.000000X2.100000*%
%TD*%
%TA.AperFunction,ComponentPad*%
%ADD15O,1.000000X1.600000*%
%TD*%
%TA.AperFunction,ViaPad*%
%ADD16C,0.600000*%
%TD*%
G04 APERTURE END LIST*
D10*
%TO.N,GND*%
%TO.C,H1*%
X101775000Y-48000000D03*
X102719581Y-45719581D03*
X102719581Y-50280419D03*
X105000000Y-44775000D03*
D11*
X105000000Y-48000000D03*
D10*
X105000000Y-51225000D03*
X107280419Y-45719581D03*
X107280419Y-50280419D03*
X108225000Y-48000000D03*
%TD*%
%TO.N,GND*%
%TO.C,H3*%
X151775000Y-103000000D03*
X152719581Y-100719581D03*
X152719581Y-105280419D03*
X155000000Y-99775000D03*
D11*
X155000000Y-103000000D03*
D10*
X155000000Y-106225000D03*
X157280419Y-100719581D03*
X157280419Y-105280419D03*
X158225000Y-103000000D03*
%TD*%
D12*
%TO.N,+5V*%
%TO.C,J1*%
X126700000Y-46000000D03*
D13*
%TO.N,CANH*%
X129240000Y-46000000D03*
%TO.N,CANL*%
X131780000Y-46000000D03*
%TO.N,GND*%
X134320000Y-46000000D03*
%TD*%
D12*
%TO.N,+5V*%
%TO.C,J3*%
X104000000Y-60840000D03*
D13*
%TO.N,+3V3*%
X104000000Y-63380000D03*
%TO.N,SWDIO*%
X104000000Y-65920000D03*
%TO.N,SWCLK*%
X104000000Y-68460000D03*
%TO.N,GND*%
X104000000Y-71000000D03*
%TD*%
D14*
%TO.N,GND*%
%TO.C,J7*%
X116280000Y-101670000D03*
D15*
X116280000Y-105850000D03*
D14*
X124920000Y-101670000D03*
D15*
X124920000Y-105850000D03*
%TD*%
D12*
%TO.N,+5V*%
%TO.C,J5*%
X155500000Y-61420000D03*
D13*
%TO.N,+3V3*%
X155500000Y-63960000D03*
%TO.N,SWDIO2*%
X155500000Y-66500000D03*
%TO.N,SWCLK2*%
X155500000Y-69040000D03*
%TO.N,GND*%
X155500000Y-71580000D03*
%TD*%
D12*
%TO.N,+3V3*%
%TO.C,J6*%
X155500000Y-75880000D03*
D13*
%TO.N,USART1_TX2*%
X155500000Y-78420000D03*
%TO.N,USART1_RX2*%
X155500000Y-80960000D03*
%TO.N,GND*%
X155500000Y-83500000D03*
%TD*%
D10*
%TO.N,GND*%
%TO.C,H2*%
X151775000Y-48000000D03*
X152719581Y-45719581D03*
X152719581Y-50280419D03*
X155000000Y-44775000D03*
D11*
X155000000Y-48000000D03*
D10*
X155000000Y-51225000D03*
X157280419Y-45719581D03*
X157280419Y-50280419D03*
X158225000Y-48000000D03*
%TD*%
D12*
%TO.N,+3V3*%
%TO.C,J4*%
X104000000Y-75460000D03*
D13*
%TO.N,USART1_TX*%
X104000000Y-78000000D03*
%TO.N,USART1_RX*%
X104000000Y-80540000D03*
%TO.N,GND*%
X104000000Y-83080000D03*
%TD*%
D12*
%TO.N,+3V3*%
%TO.C,J2*%
X104000000Y-87200000D03*
D13*
%TO.N,I2C1_SCL*%
X104000000Y-89740000D03*
%TO.N,I2C1_SDA*%
X104000000Y-92280000D03*
%TO.N,GND*%
X104000000Y-94820000D03*
%TD*%
D10*
%TO.N,GND*%
%TO.C,H4*%
X101775000Y-103000000D03*
X102719581Y-100719581D03*
X102719581Y-105280419D03*
X105000000Y-99775000D03*
D11*
X105000000Y-103000000D03*
D10*
X105000000Y-106225000D03*
X107280419Y-100719581D03*
X107280419Y-105280419D03*
X108225000Y-103000000D03*
%TD*%
D16*
%TO.N,+3V3*%
X134000000Y-101100000D03*
X124000000Y-77000000D03*
X144000000Y-76400000D03*
X131100000Y-76500000D03*
X117400000Y-64400000D03*
X133200000Y-100000000D03*
X109500000Y-92200000D03*
X125100000Y-53800000D03*
X141100000Y-78500000D03*
X121600000Y-77000000D03*
X110900000Y-76000000D03*
X146500000Y-67000000D03*
X127100000Y-67400000D03*
X133200000Y-97700000D03*
X146800000Y-92000000D03*
X113900000Y-67800000D03*
X134000000Y-96300000D03*
X135300000Y-65600000D03*
X119500000Y-51500000D03*
X137500000Y-63900000D03*
X146000000Y-54000000D03*
%TO.N,GND*%
X110300000Y-71100000D03*
X111300000Y-100000000D03*
X124100000Y-100000000D03*
X140700000Y-84900000D03*
X117100000Y-100000000D03*
X137800000Y-99500000D03*
X108000000Y-62000000D03*
X149700000Y-89200000D03*
X133900000Y-66500000D03*
X118000000Y-76500000D03*
X137600000Y-71400000D03*
X115600000Y-52800000D03*
X147000000Y-68300000D03*
X137800000Y-100400000D03*
X121000000Y-52100000D03*
X122600000Y-56500000D03*
X133700000Y-69500000D03*
X132900000Y-68900000D03*
X135300000Y-64100000D03*
X141600000Y-52800000D03*
X121600000Y-94300000D03*
X143000000Y-61600000D03*
X137800000Y-96900000D03*
X138700000Y-76800000D03*
X140700000Y-86200000D03*
X133000000Y-68000000D03*
X132000000Y-63500000D03*
X144000000Y-94000000D03*
X115300000Y-64100000D03*
X127000000Y-68500000D03*
X133500000Y-77000000D03*
X116900000Y-57800000D03*
X151900000Y-61900000D03*
X116100000Y-63500000D03*
X130000000Y-88500000D03*
X137800000Y-98000000D03*
X111200000Y-102400000D03*
X138600000Y-63900000D03*
X110300000Y-72000000D03*
X113000000Y-67500000D03*
X132500000Y-77000000D03*
X131000000Y-74000000D03*
X147000000Y-52000000D03*
X118300000Y-64400000D03*
X117900000Y-72300000D03*
X130800000Y-73000000D03*
X151200000Y-93900000D03*
X142500000Y-77100000D03*
X113500000Y-76500000D03*
%TO.N,SWCLK*%
X106700000Y-67600000D03*
X119700000Y-69000000D03*
%TO.N,SWDIO*%
X117900000Y-69700000D03*
%TO.N,+5V*%
X121500000Y-92200000D03*
X145800000Y-89175000D03*
X147500000Y-88500000D03*
X126100000Y-95600000D03*
X125000000Y-95600000D03*
X144100000Y-57800000D03*
X118135000Y-57800000D03*
%TO.N,SWCLK2*%
X145300000Y-65700000D03*
%TO.N,I2C1_SDA*%
X127300000Y-79200000D03*
X129800000Y-72400000D03*
%TO.N,I2C1_SCL*%
X127300000Y-77000000D03*
X128900000Y-71700000D03*
%TO.N,USART1_RX*%
X127000000Y-70500000D03*
%TO.N,USART1_TX*%
X127000000Y-71500000D03*
%TO.N,CANH*%
X116500000Y-51000000D03*
X142500000Y-51000000D03*
X142500000Y-45500000D03*
X116500000Y-45500000D03*
%TO.N,Net-(F1-Pad1)*%
X118200000Y-99100000D03*
X123100000Y-99100000D03*
%TO.N,BOOT0*%
X119800000Y-68200000D03*
X125100000Y-61600000D03*
%TD*%
%TA.AperFunction,Conductor*%
%TO.N,GND*%
G36*
X154359371Y-43019685D02*
G01*
X154405126Y-43072489D01*
X154415070Y-43141647D01*
X154386045Y-43205203D01*
X154327267Y-43242977D01*
X154314473Y-43246007D01*
X153930816Y-43315630D01*
X153515234Y-43430324D01*
X153515209Y-43430332D01*
X153111583Y-43581815D01*
X153111569Y-43581821D01*
X152723146Y-43768876D01*
X152723140Y-43768879D01*
X152353024Y-43990013D01*
X152004235Y-44243423D01*
X151786877Y-44433322D01*
X151786877Y-44433323D01*
X153666651Y-46313098D01*
X153579365Y-46380076D01*
X153380076Y-46579365D01*
X153313098Y-46666651D01*
X151432223Y-44785777D01*
X151381624Y-44838699D01*
X151381612Y-44838712D01*
X151112800Y-45175791D01*
X151112799Y-45175792D01*
X150875294Y-45535600D01*
X150670989Y-45915261D01*
X150670985Y-45915269D01*
X150501545Y-46311695D01*
X150501542Y-46311703D01*
X150368313Y-46721741D01*
X150272378Y-47142061D01*
X150214505Y-47569298D01*
X150214504Y-47569307D01*
X150195162Y-47999996D01*
X150195162Y-48000003D01*
X150214504Y-48430692D01*
X150214505Y-48430701D01*
X150272378Y-48857938D01*
X150368313Y-49278258D01*
X150501542Y-49688296D01*
X150501545Y-49688304D01*
X150670985Y-50084730D01*
X150670989Y-50084738D01*
X150875294Y-50464399D01*
X151112799Y-50824207D01*
X151112800Y-50824208D01*
X151381608Y-51161282D01*
X151432223Y-51214221D01*
X153313097Y-49333347D01*
X153380076Y-49420635D01*
X153579365Y-49619924D01*
X153666651Y-49686901D01*
X151786877Y-51566675D01*
X152004227Y-51756569D01*
X152004244Y-51756582D01*
X152353024Y-52009986D01*
X152723140Y-52231120D01*
X152723146Y-52231123D01*
X153111569Y-52418178D01*
X153111583Y-52418184D01*
X153515209Y-52569667D01*
X153515234Y-52569675D01*
X153930816Y-52684369D01*
X154355023Y-52761351D01*
X154784435Y-52799999D01*
X154784438Y-52800000D01*
X155215562Y-52800000D01*
X155215564Y-52799999D01*
X155644976Y-52761351D01*
X156069183Y-52684369D01*
X156484765Y-52569675D01*
X156484790Y-52569667D01*
X156888416Y-52418184D01*
X156888430Y-52418178D01*
X157276853Y-52231123D01*
X157276859Y-52231120D01*
X157646975Y-52009986D01*
X157995755Y-51756582D01*
X157995772Y-51756569D01*
X158213121Y-51566675D01*
X156333348Y-49686901D01*
X156420635Y-49619924D01*
X156619924Y-49420635D01*
X156686901Y-49333348D01*
X158567776Y-51214222D01*
X158618386Y-51161289D01*
X158618386Y-51161288D01*
X158887199Y-50824208D01*
X158887200Y-50824207D01*
X159124705Y-50464399D01*
X159329010Y-50084738D01*
X159329014Y-50084730D01*
X159498454Y-49688304D01*
X159498457Y-49688296D01*
X159631686Y-49278258D01*
X159727621Y-48857938D01*
X159753122Y-48669685D01*
X159781628Y-48605895D01*
X159840095Y-48567642D01*
X159909963Y-48567072D01*
X159969047Y-48604365D01*
X159998590Y-48667682D01*
X160000000Y-48686330D01*
X160000000Y-102313669D01*
X159980315Y-102380708D01*
X159927511Y-102426463D01*
X159858353Y-102436407D01*
X159794797Y-102407382D01*
X159757023Y-102348604D01*
X159753122Y-102330314D01*
X159727621Y-102142061D01*
X159631686Y-101721741D01*
X159498457Y-101311703D01*
X159498454Y-101311695D01*
X159329014Y-100915269D01*
X159329010Y-100915261D01*
X159124705Y-100535600D01*
X158887200Y-100175792D01*
X158887199Y-100175791D01*
X158618391Y-99838717D01*
X158567774Y-99785776D01*
X156686900Y-101666650D01*
X156619924Y-101579365D01*
X156420635Y-101380076D01*
X156333346Y-101313097D01*
X158213121Y-99433323D01*
X157995772Y-99243430D01*
X157995755Y-99243417D01*
X157646975Y-98990013D01*
X157276859Y-98768879D01*
X157276853Y-98768876D01*
X156888430Y-98581821D01*
X156888416Y-98581815D01*
X156484790Y-98430332D01*
X156484765Y-98430324D01*
X156069183Y-98315630D01*
X155644976Y-98238648D01*
X155215564Y-98200000D01*
X154784435Y-98200000D01*
X154355023Y-98238648D01*
X153930816Y-98315630D01*
X153515234Y-98430324D01*
X153515209Y-98430332D01*
X153111583Y-98581815D01*
X153111569Y-98581821D01*
X152723146Y-98768876D01*
X152723140Y-98768879D01*
X152353024Y-98990013D01*
X152004235Y-99243423D01*
X151786877Y-99433322D01*
X151786877Y-99433323D01*
X153666652Y-101313098D01*
X153579365Y-101380076D01*
X153380076Y-101579365D01*
X153313098Y-101666651D01*
X151432223Y-99785777D01*
X151381624Y-99838699D01*
X151381612Y-99838712D01*
X151112800Y-100175791D01*
X151112799Y-100175792D01*
X150875294Y-100535600D01*
X150670989Y-100915261D01*
X150670985Y-100915269D01*
X150501545Y-101311695D01*
X150501542Y-101311703D01*
X150368313Y-101721741D01*
X150272378Y-102142061D01*
X150214505Y-102569298D01*
X150214504Y-102569307D01*
X150195162Y-102999996D01*
X150195162Y-103000003D01*
X150214504Y-103430692D01*
X150214505Y-103430701D01*
X150272378Y-103857938D01*
X150368313Y-104278258D01*
X150501542Y-104688296D01*
X150501545Y-104688304D01*
X150670985Y-105084730D01*
X150670989Y-105084738D01*
X150875294Y-105464399D01*
X151112799Y-105824207D01*
X151112800Y-105824208D01*
X151381608Y-106161282D01*
X151432223Y-106214221D01*
X153313097Y-104333347D01*
X153380076Y-104420635D01*
X153579365Y-104619924D01*
X153666651Y-104686901D01*
X151786877Y-106566675D01*
X152004227Y-106756569D01*
X152004244Y-106756582D01*
X152353024Y-107009986D01*
X152723140Y-107231120D01*
X152723146Y-107231123D01*
X153111569Y-107418178D01*
X153111583Y-107418184D01*
X153515209Y-107569667D01*
X153515234Y-107569675D01*
X153930816Y-107684369D01*
X154314473Y-107753993D01*
X154376920Y-107785331D01*
X154412511Y-107845457D01*
X154409946Y-107915279D01*
X154370040Y-107972631D01*
X154305461Y-107999303D01*
X154292332Y-108000000D01*
X105707668Y-108000000D01*
X105640629Y-107980315D01*
X105594874Y-107927511D01*
X105584930Y-107858353D01*
X105613955Y-107794797D01*
X105672733Y-107757023D01*
X105685527Y-107753993D01*
X106069183Y-107684369D01*
X106484765Y-107569675D01*
X106484790Y-107569667D01*
X106888416Y-107418184D01*
X106888430Y-107418178D01*
X107276853Y-107231123D01*
X107276859Y-107231120D01*
X107646975Y-107009986D01*
X107995755Y-106756582D01*
X107995772Y-106756569D01*
X108213121Y-106566675D01*
X106333348Y-104686901D01*
X106420635Y-104619924D01*
X106619924Y-104420635D01*
X106686901Y-104333347D01*
X108567775Y-106214222D01*
X108567776Y-106214222D01*
X108618386Y-106161289D01*
X108618386Y-106161288D01*
X108887199Y-105824208D01*
X108887200Y-105824207D01*
X109124705Y-105464399D01*
X109131644Y-105451504D01*
X115280000Y-105451504D01*
X115280000Y-105600000D01*
X115980000Y-105600000D01*
X115980000Y-106100000D01*
X115280000Y-106100000D01*
X115280000Y-106248495D01*
X115318427Y-106441681D01*
X115318430Y-106441693D01*
X115393807Y-106623671D01*
X115393814Y-106623684D01*
X115503248Y-106787462D01*
X115503251Y-106787466D01*
X115642533Y-106926748D01*
X115642537Y-106926751D01*
X115806315Y-107036185D01*
X115806328Y-107036192D01*
X115988308Y-107111569D01*
X116030000Y-107119862D01*
X116030000Y-106316988D01*
X116039940Y-106334205D01*
X116095795Y-106390060D01*
X116164204Y-106429556D01*
X116240504Y-106450000D01*
X116319496Y-106450000D01*
X116395796Y-106429556D01*
X116464205Y-106390060D01*
X116520060Y-106334205D01*
X116530000Y-106316988D01*
X116530000Y-107119862D01*
X116571690Y-107111569D01*
X116571692Y-107111569D01*
X116753671Y-107036192D01*
X116753684Y-107036185D01*
X116917462Y-106926751D01*
X116917466Y-106926748D01*
X117056748Y-106787466D01*
X117056751Y-106787462D01*
X117166185Y-106623684D01*
X117166192Y-106623671D01*
X117241569Y-106441693D01*
X117241572Y-106441681D01*
X117279999Y-106248495D01*
X117280000Y-106248492D01*
X117280000Y-106100000D01*
X116580000Y-106100000D01*
X116580000Y-105600000D01*
X117280000Y-105600000D01*
X117280000Y-105451508D01*
X117279999Y-105451504D01*
X123920000Y-105451504D01*
X123920000Y-105600000D01*
X124620000Y-105600000D01*
X124620000Y-106100000D01*
X123920000Y-106100000D01*
X123920000Y-106248495D01*
X123958427Y-106441681D01*
X123958430Y-106441693D01*
X124033807Y-106623671D01*
X124033814Y-106623684D01*
X124143248Y-106787462D01*
X124143251Y-106787466D01*
X124282533Y-106926748D01*
X124282537Y-106926751D01*
X124446315Y-107036185D01*
X124446328Y-107036192D01*
X124628308Y-107111569D01*
X124670000Y-107119862D01*
X124670000Y-106316988D01*
X124679940Y-106334205D01*
X124735795Y-106390060D01*
X124804204Y-106429556D01*
X124880504Y-106450000D01*
X124959496Y-106450000D01*
X125035796Y-106429556D01*
X125104205Y-106390060D01*
X125160060Y-106334205D01*
X125170000Y-106316988D01*
X125170000Y-107119862D01*
X125211690Y-107111569D01*
X125211692Y-107111569D01*
X125393671Y-107036192D01*
X125393684Y-107036185D01*
X125557462Y-106926751D01*
X125557466Y-106926748D01*
X125696748Y-106787466D01*
X125696751Y-106787462D01*
X125806185Y-106623684D01*
X125806192Y-106623671D01*
X125881569Y-106441693D01*
X125881572Y-106441681D01*
X125919999Y-106248495D01*
X125920000Y-106248492D01*
X125920000Y-106100000D01*
X125220000Y-106100000D01*
X125220000Y-105600000D01*
X125920000Y-105600000D01*
X125920000Y-105451508D01*
X125919999Y-105451504D01*
X125881572Y-105258318D01*
X125881569Y-105258306D01*
X125806192Y-105076328D01*
X125806185Y-105076315D01*
X125696751Y-104912537D01*
X125696748Y-104912533D01*
X125557466Y-104773251D01*
X125557462Y-104773248D01*
X125393684Y-104663814D01*
X125393671Y-104663807D01*
X125211691Y-104588429D01*
X125211683Y-104588427D01*
X125170000Y-104580135D01*
X125170000Y-105383011D01*
X125160060Y-105365795D01*
X125104205Y-105309940D01*
X125035796Y-105270444D01*
X124959496Y-105250000D01*
X124880504Y-105250000D01*
X124804204Y-105270444D01*
X124735795Y-105309940D01*
X124679940Y-105365795D01*
X124670000Y-105383011D01*
X124670000Y-104580136D01*
X124669999Y-104580135D01*
X124628316Y-104588427D01*
X124628308Y-104588429D01*
X124446328Y-104663807D01*
X124446315Y-104663814D01*
X124282537Y-104773248D01*
X124282533Y-104773251D01*
X124143251Y-104912533D01*
X124143248Y-104912537D01*
X124033814Y-105076315D01*
X124033807Y-105076328D01*
X123958430Y-105258306D01*
X123958427Y-105258318D01*
X123920000Y-105451504D01*
X117279999Y-105451504D01*
X117241572Y-105258318D01*
X117241569Y-105258306D01*
X117166192Y-105076328D01*
X117166185Y-105076315D01*
X117056751Y-104912537D01*
X117056748Y-104912533D01*
X116917466Y-104773251D01*
X116917462Y-104773248D01*
X116753684Y-104663814D01*
X116753671Y-104663807D01*
X116571691Y-104588429D01*
X116571683Y-104588427D01*
X116530000Y-104580135D01*
X116530000Y-105383011D01*
X116520060Y-105365795D01*
X116464205Y-105309940D01*
X116395796Y-105270444D01*
X116319496Y-105250000D01*
X116240504Y-105250000D01*
X116164204Y-105270444D01*
X116095795Y-105309940D01*
X116039940Y-105365795D01*
X116030000Y-105383011D01*
X116030000Y-104580136D01*
X116029999Y-104580135D01*
X115988316Y-104588427D01*
X115988308Y-104588429D01*
X115806328Y-104663807D01*
X115806315Y-104663814D01*
X115642537Y-104773248D01*
X115642533Y-104773251D01*
X115503251Y-104912533D01*
X115503248Y-104912537D01*
X115393814Y-105076315D01*
X115393807Y-105076328D01*
X115318430Y-105258306D01*
X115318427Y-105258318D01*
X115280000Y-105451504D01*
X109131644Y-105451504D01*
X109329010Y-105084738D01*
X109329014Y-105084730D01*
X109498454Y-104688304D01*
X109498457Y-104688296D01*
X109631686Y-104278258D01*
X109727621Y-103857938D01*
X109785494Y-103430701D01*
X109785495Y-103430692D01*
X109804838Y-103000003D01*
X109804838Y-102999996D01*
X109785495Y-102569307D01*
X109785494Y-102569298D01*
X109727621Y-102142061D01*
X109631686Y-101721741D01*
X109498457Y-101311703D01*
X109498454Y-101311695D01*
X109374421Y-101021504D01*
X115280000Y-101021504D01*
X115280000Y-101420000D01*
X115980000Y-101420000D01*
X115980000Y-101920000D01*
X115280000Y-101920000D01*
X115280000Y-102318495D01*
X115318427Y-102511681D01*
X115318430Y-102511693D01*
X115393807Y-102693671D01*
X115393814Y-102693684D01*
X115503248Y-102857462D01*
X115503251Y-102857466D01*
X115642533Y-102996748D01*
X115642537Y-102996751D01*
X115806315Y-103106185D01*
X115806328Y-103106192D01*
X115988308Y-103181569D01*
X116030000Y-103189862D01*
X116030000Y-102386988D01*
X116039940Y-102404205D01*
X116095795Y-102460060D01*
X116164204Y-102499556D01*
X116240504Y-102520000D01*
X116319496Y-102520000D01*
X116395796Y-102499556D01*
X116464205Y-102460060D01*
X116520060Y-102404205D01*
X116530000Y-102386988D01*
X116530000Y-103189862D01*
X116571690Y-103181569D01*
X116571692Y-103181569D01*
X116753671Y-103106192D01*
X116753684Y-103106185D01*
X116917462Y-102996751D01*
X116917466Y-102996748D01*
X117056748Y-102857466D01*
X117056751Y-102857462D01*
X117169574Y-102688613D01*
X117171007Y-102689570D01*
X117214198Y-102645580D01*
X117282332Y-102630103D01*
X117348018Y-102653919D01*
X117350089Y-102655697D01*
X117350189Y-102655568D01*
X117356630Y-102660510D01*
X117356635Y-102660515D01*
X117487865Y-102736281D01*
X117634234Y-102775500D01*
X117634236Y-102775500D01*
X117785764Y-102775500D01*
X117785766Y-102775500D01*
X117932135Y-102736281D01*
X118063365Y-102660515D01*
X118170515Y-102553365D01*
X118246281Y-102422135D01*
X118285500Y-102275766D01*
X118285500Y-102124234D01*
X122914500Y-102124234D01*
X122914500Y-102275765D01*
X122953719Y-102422136D01*
X122961959Y-102436407D01*
X123029485Y-102553365D01*
X123136635Y-102660515D01*
X123267865Y-102736281D01*
X123414234Y-102775500D01*
X123414236Y-102775500D01*
X123565764Y-102775500D01*
X123565766Y-102775500D01*
X123712135Y-102736281D01*
X123843365Y-102660515D01*
X123843372Y-102660507D01*
X123849811Y-102655568D01*
X123852044Y-102658478D01*
X123898258Y-102632865D01*
X123967980Y-102637411D01*
X124024176Y-102678930D01*
X124030394Y-102688634D01*
X124030426Y-102688613D01*
X124143248Y-102857462D01*
X124143251Y-102857466D01*
X124282533Y-102996748D01*
X124282537Y-102996751D01*
X124446315Y-103106185D01*
X124446328Y-103106192D01*
X124628308Y-103181569D01*
X124670000Y-103189862D01*
X124670000Y-102386988D01*
X124679940Y-102404205D01*
X124735795Y-102460060D01*
X124804204Y-102499556D01*
X124880504Y-102520000D01*
X124959496Y-102520000D01*
X125035796Y-102499556D01*
X125104205Y-102460060D01*
X125160060Y-102404205D01*
X125170000Y-102386988D01*
X125170000Y-103189862D01*
X125211690Y-103181569D01*
X125211692Y-103181569D01*
X125393671Y-103106192D01*
X125393684Y-103106185D01*
X125557462Y-102996751D01*
X125557466Y-102996748D01*
X125696748Y-102857466D01*
X125696751Y-102857462D01*
X125806185Y-102693684D01*
X125806192Y-102693671D01*
X125881569Y-102511693D01*
X125881572Y-102511681D01*
X125919999Y-102318495D01*
X125920000Y-102318492D01*
X125920000Y-101920000D01*
X125220000Y-101920000D01*
X125220000Y-101420000D01*
X125920000Y-101420000D01*
X125920000Y-101021508D01*
X125919999Y-101021504D01*
X125881572Y-100828318D01*
X125881569Y-100828306D01*
X125806192Y-100646328D01*
X125806185Y-100646315D01*
X125696751Y-100482537D01*
X125696748Y-100482533D01*
X125557466Y-100343251D01*
X125557461Y-100343247D01*
X125393684Y-100233814D01*
X125393671Y-100233807D01*
X125211691Y-100158429D01*
X125211683Y-100158427D01*
X125170000Y-100150135D01*
X125170000Y-100953011D01*
X125160060Y-100935795D01*
X125104205Y-100879940D01*
X125035796Y-100840444D01*
X124959496Y-100820000D01*
X124880504Y-100820000D01*
X124804204Y-100840444D01*
X124735795Y-100879940D01*
X124679940Y-100935795D01*
X124670000Y-100953011D01*
X124670000Y-100150136D01*
X124669999Y-100150135D01*
X124628316Y-100158427D01*
X124628308Y-100158429D01*
X124446328Y-100233807D01*
X124446315Y-100233814D01*
X124282539Y-100343247D01*
X124282533Y-100343251D01*
X124143251Y-100482533D01*
X124143248Y-100482537D01*
X124033814Y-100646315D01*
X124033807Y-100646328D01*
X123958430Y-100828306D01*
X123958427Y-100828318D01*
X123920000Y-101021504D01*
X123920000Y-101568955D01*
X123900315Y-101635994D01*
X123847511Y-101681749D01*
X123778353Y-101691693D01*
X123734000Y-101676342D01*
X123712138Y-101663720D01*
X123712135Y-101663719D01*
X123565766Y-101624500D01*
X123414234Y-101624500D01*
X123267863Y-101663719D01*
X123136635Y-101739485D01*
X123136632Y-101739487D01*
X123029487Y-101846632D01*
X123029485Y-101846635D01*
X122953719Y-101977863D01*
X122914500Y-102124234D01*
X118285500Y-102124234D01*
X118246281Y-101977865D01*
X118170515Y-101846635D01*
X118063365Y-101739485D01*
X117953999Y-101676342D01*
X117932136Y-101663719D01*
X117858950Y-101644109D01*
X117785766Y-101624500D01*
X117634234Y-101624500D01*
X117487865Y-101663719D01*
X117487864Y-101663719D01*
X117487862Y-101663720D01*
X117487861Y-101663720D01*
X117466000Y-101676342D01*
X117398099Y-101692815D01*
X117332073Y-101669962D01*
X117288882Y-101615041D01*
X117280000Y-101568955D01*
X117280000Y-101021508D01*
X117279999Y-101021504D01*
X117241572Y-100828318D01*
X117241569Y-100828306D01*
X117166192Y-100646328D01*
X117166185Y-100646315D01*
X117056751Y-100482537D01*
X117056748Y-100482533D01*
X116917466Y-100343251D01*
X116917461Y-100343247D01*
X116753684Y-100233814D01*
X116753671Y-100233807D01*
X116571691Y-100158429D01*
X116571683Y-100158427D01*
X116530000Y-100150135D01*
X116530000Y-100953011D01*
X116520060Y-100935795D01*
X116464205Y-100879940D01*
X116395796Y-100840444D01*
X116319496Y-100820000D01*
X116240504Y-100820000D01*
X116164204Y-100840444D01*
X116095795Y-100879940D01*
X116039940Y-100935795D01*
X116030000Y-100953011D01*
X116030000Y-100150136D01*
X116029999Y-100150135D01*
X115988316Y-100158427D01*
X115988308Y-100158429D01*
X115806328Y-100233807D01*
X115806315Y-100233814D01*
X115642539Y-100343247D01*
X115642533Y-100343251D01*
X115503251Y-100482533D01*
X115503248Y-100482537D01*
X115393814Y-100646315D01*
X115393807Y-100646328D01*
X115318430Y-100828306D01*
X115318427Y-100828318D01*
X115280000Y-101021504D01*
X109374421Y-101021504D01*
X109329014Y-100915269D01*
X109329010Y-100915261D01*
X109124705Y-100535600D01*
X108887200Y-100175792D01*
X108887199Y-100175791D01*
X108747007Y-99999996D01*
X132394435Y-99999996D01*
X132394435Y-100000003D01*
X132414630Y-100179249D01*
X132414631Y-100179254D01*
X132474211Y-100349523D01*
X132489724Y-100374211D01*
X132570184Y-100502262D01*
X132697738Y-100629816D01*
X132850478Y-100725789D01*
X133020745Y-100785368D01*
X133020750Y-100785369D01*
X133086330Y-100792757D01*
X133104041Y-100794753D01*
X133168455Y-100821819D01*
X133208011Y-100879413D01*
X133213379Y-100931856D01*
X133194435Y-101099996D01*
X133194435Y-101100003D01*
X133214630Y-101279249D01*
X133214631Y-101279254D01*
X133274211Y-101449523D01*
X133319362Y-101521380D01*
X133370184Y-101602262D01*
X133497738Y-101729816D01*
X133650478Y-101825789D01*
X133786931Y-101873536D01*
X133820745Y-101885368D01*
X133820750Y-101885369D01*
X133999996Y-101905565D01*
X134000000Y-101905565D01*
X134000004Y-101905565D01*
X134179249Y-101885369D01*
X134179252Y-101885368D01*
X134179255Y-101885368D01*
X134349522Y-101825789D01*
X134502262Y-101729816D01*
X134629816Y-101602262D01*
X134725789Y-101449522D01*
X134785368Y-101279255D01*
X134791538Y-101224493D01*
X148250464Y-101224493D01*
X148250464Y-101375507D01*
X148270297Y-101449523D01*
X148289551Y-101521380D01*
X148317019Y-101568955D01*
X148365057Y-101652159D01*
X148471841Y-101758943D01*
X148563767Y-101812016D01*
X148602619Y-101834448D01*
X148602620Y-101834448D01*
X148602623Y-101834450D01*
X148748493Y-101873536D01*
X148899504Y-101873536D01*
X148899507Y-101873536D01*
X149045377Y-101834450D01*
X149176159Y-101758943D01*
X149282943Y-101652159D01*
X149358450Y-101521377D01*
X149397536Y-101375507D01*
X149400000Y-101300000D01*
X149397536Y-101224493D01*
X149358450Y-101078623D01*
X149282943Y-100947841D01*
X149176159Y-100841057D01*
X149137303Y-100818623D01*
X149045380Y-100765551D01*
X149045381Y-100765551D01*
X149033419Y-100762345D01*
X148899507Y-100726464D01*
X148899504Y-100726464D01*
X148748496Y-100726464D01*
X148748493Y-100726464D01*
X148614580Y-100762345D01*
X148602619Y-100765551D01*
X148471844Y-100841055D01*
X148471838Y-100841059D01*
X148365059Y-100947838D01*
X148365055Y-100947844D01*
X148289551Y-101078619D01*
X148289550Y-101078623D01*
X148250464Y-101224493D01*
X134791538Y-101224493D01*
X134805565Y-101100000D01*
X134803368Y-101080504D01*
X134785369Y-100920750D01*
X134785368Y-100920745D01*
X134737998Y-100785369D01*
X134725789Y-100750478D01*
X134629816Y-100597738D01*
X134502262Y-100470184D01*
X134349523Y-100374211D01*
X134179254Y-100314631D01*
X134179249Y-100314630D01*
X134095957Y-100305246D01*
X134031543Y-100278180D01*
X133991987Y-100220585D01*
X133986620Y-100168142D01*
X133987715Y-100158429D01*
X134005565Y-100000000D01*
X133992649Y-99885369D01*
X133985369Y-99820750D01*
X133985368Y-99820745D01*
X133973132Y-99785776D01*
X133925789Y-99650478D01*
X133829816Y-99497738D01*
X133702262Y-99370184D01*
X133549523Y-99274211D01*
X133379254Y-99214631D01*
X133379249Y-99214630D01*
X133200004Y-99194435D01*
X133199996Y-99194435D01*
X133020750Y-99214630D01*
X133020745Y-99214631D01*
X132850476Y-99274211D01*
X132697737Y-99370184D01*
X132570184Y-99497737D01*
X132474211Y-99650476D01*
X132414631Y-99820745D01*
X132414630Y-99820750D01*
X132394435Y-99999996D01*
X108747007Y-99999996D01*
X108618391Y-99838717D01*
X108567774Y-99785776D01*
X106686900Y-101666650D01*
X106619924Y-101579365D01*
X106420635Y-101380076D01*
X106333346Y-101313097D01*
X108213121Y-99433323D01*
X107995772Y-99243430D01*
X107995755Y-99243417D01*
X107798353Y-99099996D01*
X117394435Y-99099996D01*
X117394435Y-99100003D01*
X117414630Y-99279249D01*
X117414631Y-99279254D01*
X117474211Y-99449523D01*
X117504507Y-99497738D01*
X117570184Y-99602262D01*
X117697738Y-99729816D01*
X117786798Y-99785776D01*
X117842450Y-99820745D01*
X117850478Y-99825789D01*
X118020745Y-99885368D01*
X118020750Y-99885369D01*
X118199996Y-99905565D01*
X118200000Y-99905565D01*
X118200004Y-99905565D01*
X118379249Y-99885369D01*
X118379252Y-99885368D01*
X118379255Y-99885368D01*
X118549522Y-99825789D01*
X118702262Y-99729816D01*
X118829816Y-99602262D01*
X118925789Y-99449522D01*
X118985368Y-99279255D01*
X118985369Y-99279249D01*
X119005565Y-99100003D01*
X119005565Y-99099996D01*
X122294435Y-99099996D01*
X122294435Y-99100003D01*
X122314630Y-99279249D01*
X122314631Y-99279254D01*
X122374211Y-99449523D01*
X122404507Y-99497738D01*
X122470184Y-99602262D01*
X122597738Y-99729816D01*
X122686798Y-99785776D01*
X122742450Y-99820745D01*
X122750478Y-99825789D01*
X122920745Y-99885368D01*
X122920750Y-99885369D01*
X123099996Y-99905565D01*
X123100000Y-99905565D01*
X123100004Y-99905565D01*
X123279249Y-99885369D01*
X123279252Y-99885368D01*
X123279255Y-99885368D01*
X123449522Y-99825789D01*
X123602262Y-99729816D01*
X123729816Y-99602262D01*
X123825789Y-99449522D01*
X123885368Y-99279255D01*
X123885369Y-99279249D01*
X123905565Y-99100003D01*
X123905565Y-99099996D01*
X123885369Y-98920750D01*
X123885368Y-98920745D01*
X123832228Y-98768879D01*
X123825789Y-98750478D01*
X123729816Y-98597738D01*
X123602262Y-98470184D01*
X123538838Y-98430332D01*
X123449523Y-98374211D01*
X123279254Y-98314631D01*
X123279249Y-98314630D01*
X123100004Y-98294435D01*
X123099996Y-98294435D01*
X122920750Y-98314630D01*
X122920745Y-98314631D01*
X122750476Y-98374211D01*
X122597737Y-98470184D01*
X122470184Y-98597737D01*
X122374211Y-98750476D01*
X122314631Y-98920745D01*
X122314630Y-98920750D01*
X122294435Y-99099996D01*
X119005565Y-99099996D01*
X118985369Y-98920750D01*
X118985368Y-98920745D01*
X118932228Y-98768879D01*
X118925789Y-98750478D01*
X118829816Y-98597738D01*
X118702262Y-98470184D01*
X118638838Y-98430332D01*
X118549523Y-98374211D01*
X118379254Y-98314631D01*
X118379249Y-98314630D01*
X118200004Y-98294435D01*
X118199996Y-98294435D01*
X118020750Y-98314630D01*
X118020745Y-98314631D01*
X117850476Y-98374211D01*
X117697737Y-98470184D01*
X117570184Y-98597737D01*
X117474211Y-98750476D01*
X117414631Y-98920745D01*
X117414630Y-98920750D01*
X117394435Y-99099996D01*
X107798353Y-99099996D01*
X107646975Y-98990013D01*
X107276859Y-98768879D01*
X107276853Y-98768876D01*
X106888430Y-98581821D01*
X106888416Y-98581815D01*
X106484790Y-98430332D01*
X106484765Y-98430324D01*
X106069183Y-98315630D01*
X105644976Y-98238648D01*
X105215564Y-98200000D01*
X104784435Y-98200000D01*
X104355023Y-98238648D01*
X103930816Y-98315630D01*
X103515234Y-98430324D01*
X103515209Y-98430332D01*
X103111583Y-98581815D01*
X103111569Y-98581821D01*
X102723146Y-98768876D01*
X102723140Y-98768879D01*
X102353024Y-98990013D01*
X102004235Y-99243423D01*
X101786877Y-99433322D01*
X101786877Y-99433323D01*
X103666652Y-101313098D01*
X103579365Y-101380076D01*
X103380076Y-101579365D01*
X103313098Y-101666651D01*
X101432224Y-99785777D01*
X101432223Y-99785777D01*
X101381624Y-99838699D01*
X101381612Y-99838712D01*
X101112800Y-100175791D01*
X101112799Y-100175792D01*
X100875294Y-100535600D01*
X100670989Y-100915261D01*
X100670985Y-100915269D01*
X100501545Y-101311695D01*
X100501542Y-101311703D01*
X100368313Y-101721741D01*
X100272378Y-102142061D01*
X100246878Y-102330314D01*
X100218372Y-102394104D01*
X100159904Y-102432357D01*
X100090037Y-102432927D01*
X100030953Y-102395634D01*
X100001410Y-102332317D01*
X100000000Y-102313669D01*
X100000000Y-97699996D01*
X132394435Y-97699996D01*
X132394435Y-97700003D01*
X132414630Y-97879249D01*
X132414631Y-97879254D01*
X132474211Y-98049523D01*
X132568763Y-98200000D01*
X132570184Y-98202262D01*
X132697738Y-98329816D01*
X132850478Y-98425789D01*
X132977352Y-98470184D01*
X133020745Y-98485368D01*
X133020750Y-98485369D01*
X133199996Y-98505565D01*
X133200000Y-98505565D01*
X133200004Y-98505565D01*
X133379249Y-98485369D01*
X133379252Y-98485368D01*
X133379255Y-98485368D01*
X133549522Y-98425789D01*
X133702262Y-98329816D01*
X133829816Y-98202262D01*
X133925789Y-98049522D01*
X133985368Y-97879255D01*
X134005565Y-97700000D01*
X133985368Y-97520745D01*
X133925789Y-97350478D01*
X133925788Y-97350476D01*
X133925788Y-97350475D01*
X133891268Y-97295538D01*
X133872267Y-97228301D01*
X133892634Y-97161466D01*
X133945902Y-97116251D01*
X133996261Y-97105565D01*
X134000004Y-97105565D01*
X134179249Y-97085369D01*
X134179252Y-97085368D01*
X134179255Y-97085368D01*
X134349522Y-97025789D01*
X134502262Y-96929816D01*
X134629816Y-96802262D01*
X134725789Y-96649522D01*
X134785368Y-96479255D01*
X134793671Y-96405565D01*
X134805565Y-96300003D01*
X134805565Y-96299996D01*
X134785369Y-96120750D01*
X134785368Y-96120745D01*
X134725789Y-95950478D01*
X134725188Y-95949522D01*
X134629815Y-95797737D01*
X134502262Y-95670184D01*
X134349523Y-95574211D01*
X134179254Y-95514631D01*
X134179249Y-95514630D01*
X134000004Y-95494435D01*
X133999996Y-95494435D01*
X133820750Y-95514630D01*
X133820745Y-95514631D01*
X133650476Y-95574211D01*
X133497737Y-95670184D01*
X133370184Y-95797737D01*
X133274211Y-95950476D01*
X133214631Y-96120745D01*
X133214630Y-96120750D01*
X133194435Y-96299996D01*
X133194435Y-96300003D01*
X133214630Y-96479249D01*
X133214631Y-96479254D01*
X133274211Y-96649524D01*
X133308732Y-96704462D01*
X133327733Y-96771699D01*
X133307366Y-96838534D01*
X133254098Y-96883749D01*
X133203739Y-96894435D01*
X133199996Y-96894435D01*
X133020750Y-96914630D01*
X133020745Y-96914631D01*
X132850476Y-96974211D01*
X132697737Y-97070184D01*
X132570184Y-97197737D01*
X132474211Y-97350476D01*
X132414631Y-97520745D01*
X132414630Y-97520750D01*
X132394435Y-97699996D01*
X100000000Y-97699996D01*
X100000000Y-89739999D01*
X102644341Y-89739999D01*
X102644341Y-89740000D01*
X102664936Y-89975403D01*
X102664938Y-89975413D01*
X102726094Y-90203655D01*
X102726096Y-90203659D01*
X102726097Y-90203663D01*
X102825965Y-90417830D01*
X102825967Y-90417834D01*
X102961501Y-90611395D01*
X102961506Y-90611402D01*
X103128597Y-90778493D01*
X103128603Y-90778498D01*
X103314158Y-90908425D01*
X103357783Y-90963002D01*
X103364977Y-91032500D01*
X103333454Y-91094855D01*
X103314158Y-91111575D01*
X103128597Y-91241505D01*
X102961505Y-91408597D01*
X102825965Y-91602169D01*
X102825964Y-91602171D01*
X102726098Y-91816335D01*
X102726094Y-91816344D01*
X102664938Y-92044586D01*
X102664936Y-92044596D01*
X102644341Y-92279999D01*
X102644341Y-92280000D01*
X102664936Y-92515403D01*
X102664938Y-92515413D01*
X102726094Y-92743655D01*
X102726096Y-92743659D01*
X102726097Y-92743663D01*
X102766271Y-92829816D01*
X102825965Y-92957830D01*
X102825967Y-92957834D01*
X102961501Y-93151395D01*
X102961506Y-93151402D01*
X103128597Y-93318493D01*
X103128603Y-93318498D01*
X103314594Y-93448730D01*
X103358219Y-93503307D01*
X103365413Y-93572805D01*
X103333890Y-93635160D01*
X103314595Y-93651880D01*
X103128922Y-93781890D01*
X103128920Y-93781891D01*
X102961891Y-93948920D01*
X102961886Y-93948926D01*
X102826400Y-94142420D01*
X102826399Y-94142422D01*
X102726570Y-94356507D01*
X102726567Y-94356513D01*
X102669364Y-94569999D01*
X102669364Y-94570000D01*
X103566988Y-94570000D01*
X103534075Y-94627007D01*
X103500000Y-94754174D01*
X103500000Y-94885826D01*
X103534075Y-95012993D01*
X103566988Y-95070000D01*
X102669364Y-95070000D01*
X102726567Y-95283486D01*
X102726570Y-95283492D01*
X102826399Y-95497578D01*
X102961894Y-95691082D01*
X103128917Y-95858105D01*
X103322421Y-95993600D01*
X103536507Y-96093429D01*
X103536516Y-96093433D01*
X103750000Y-96150634D01*
X103750000Y-95253012D01*
X103807007Y-95285925D01*
X103934174Y-95320000D01*
X104065826Y-95320000D01*
X104192993Y-95285925D01*
X104250000Y-95253012D01*
X104250000Y-96150633D01*
X104463483Y-96093433D01*
X104463492Y-96093429D01*
X104677578Y-95993600D01*
X104871082Y-95858105D01*
X105038105Y-95691082D01*
X105101885Y-95599996D01*
X124194435Y-95599996D01*
X124194435Y-95600003D01*
X124214630Y-95779249D01*
X124214631Y-95779254D01*
X124274211Y-95949523D01*
X124301907Y-95993600D01*
X124370184Y-96102262D01*
X124497738Y-96229816D01*
X124650478Y-96325789D01*
X124820745Y-96385368D01*
X124820750Y-96385369D01*
X124999996Y-96405565D01*
X125000000Y-96405565D01*
X125000004Y-96405565D01*
X125179249Y-96385369D01*
X125179252Y-96385368D01*
X125179255Y-96385368D01*
X125349522Y-96325789D01*
X125484029Y-96241272D01*
X125551264Y-96222272D01*
X125615970Y-96241272D01*
X125680720Y-96281957D01*
X125750475Y-96325788D01*
X125920745Y-96385368D01*
X125920750Y-96385369D01*
X126099996Y-96405565D01*
X126100000Y-96405565D01*
X126100004Y-96405565D01*
X126279249Y-96385369D01*
X126279252Y-96385368D01*
X126279255Y-96385368D01*
X126449522Y-96325789D01*
X126602262Y-96229816D01*
X126729816Y-96102262D01*
X126825789Y-95949522D01*
X126885368Y-95779255D01*
X126895303Y-95691082D01*
X126905565Y-95600003D01*
X126905565Y-95599996D01*
X126885369Y-95420750D01*
X126885368Y-95420745D01*
X126825788Y-95250476D01*
X126729815Y-95097737D01*
X126602262Y-94970184D01*
X126449523Y-94874211D01*
X126279254Y-94814631D01*
X126279249Y-94814630D01*
X126100004Y-94794435D01*
X126099996Y-94794435D01*
X125920750Y-94814630D01*
X125920745Y-94814631D01*
X125750476Y-94874211D01*
X125615972Y-94958727D01*
X125548736Y-94977727D01*
X125484028Y-94958727D01*
X125349523Y-94874211D01*
X125179254Y-94814631D01*
X125179249Y-94814630D01*
X125000004Y-94794435D01*
X124999996Y-94794435D01*
X124820750Y-94814630D01*
X124820745Y-94814631D01*
X124650476Y-94874211D01*
X124497737Y-94970184D01*
X124370184Y-95097737D01*
X124274211Y-95250476D01*
X124214631Y-95420745D01*
X124214630Y-95420750D01*
X124194435Y-95599996D01*
X105101885Y-95599996D01*
X105173600Y-95497578D01*
X105273429Y-95283492D01*
X105273432Y-95283486D01*
X105330636Y-95070000D01*
X104433012Y-95070000D01*
X104465925Y-95012993D01*
X104500000Y-94885826D01*
X104500000Y-94754174D01*
X104465925Y-94627007D01*
X104433012Y-94570000D01*
X105330636Y-94570000D01*
X105330635Y-94569999D01*
X105273432Y-94356513D01*
X105273429Y-94356507D01*
X105173600Y-94142422D01*
X105173599Y-94142420D01*
X105038113Y-93948926D01*
X105038108Y-93948920D01*
X104871078Y-93781890D01*
X104685405Y-93651879D01*
X104641780Y-93597302D01*
X104634588Y-93527804D01*
X104666110Y-93465449D01*
X104685406Y-93448730D01*
X104871401Y-93318495D01*
X105038495Y-93151401D01*
X105174035Y-92957830D01*
X105273903Y-92743663D01*
X105335063Y-92515408D01*
X105355659Y-92280000D01*
X105348659Y-92199996D01*
X108694435Y-92199996D01*
X108694435Y-92200003D01*
X108714630Y-92379249D01*
X108714631Y-92379254D01*
X108774211Y-92549523D01*
X108824662Y-92629815D01*
X108870184Y-92702262D01*
X108997738Y-92829816D01*
X109150478Y-92925789D01*
X109320745Y-92985368D01*
X109320750Y-92985369D01*
X109499996Y-93005565D01*
X109500000Y-93005565D01*
X109500004Y-93005565D01*
X109679249Y-92985369D01*
X109679252Y-92985368D01*
X109679255Y-92985368D01*
X109849522Y-92925789D01*
X110002262Y-92829816D01*
X110129816Y-92702262D01*
X110225789Y-92549522D01*
X110285368Y-92379255D01*
X110288718Y-92349522D01*
X110305565Y-92200003D01*
X110305565Y-92199996D01*
X120694435Y-92199996D01*
X120694435Y-92200003D01*
X120714630Y-92379249D01*
X120714631Y-92379254D01*
X120774211Y-92549523D01*
X120824662Y-92629815D01*
X120870184Y-92702262D01*
X120997738Y-92829816D01*
X121150478Y-92925789D01*
X121320745Y-92985368D01*
X121320750Y-92985369D01*
X121499996Y-93005565D01*
X121500000Y-93005565D01*
X121500004Y-93005565D01*
X121679249Y-92985369D01*
X121679252Y-92985368D01*
X121679255Y-92985368D01*
X121849522Y-92925789D01*
X122002262Y-92829816D01*
X122129816Y-92702262D01*
X122225789Y-92549522D01*
X122285368Y-92379255D01*
X122288718Y-92349522D01*
X122305565Y-92200003D01*
X122305565Y-92199996D01*
X122285369Y-92020750D01*
X122285368Y-92020745D01*
X122278108Y-91999996D01*
X145994435Y-91999996D01*
X145994435Y-92000003D01*
X146014630Y-92179249D01*
X146014631Y-92179254D01*
X146074211Y-92349523D01*
X146170184Y-92502262D01*
X146297738Y-92629816D01*
X146450478Y-92725789D01*
X146501562Y-92743664D01*
X146620745Y-92785368D01*
X146620750Y-92785369D01*
X146799996Y-92805565D01*
X146800000Y-92805565D01*
X146800004Y-92805565D01*
X146979249Y-92785369D01*
X146979252Y-92785368D01*
X146979255Y-92785368D01*
X147149522Y-92725789D01*
X147302262Y-92629816D01*
X147429816Y-92502262D01*
X147525789Y-92349522D01*
X147585368Y-92179255D01*
X147585369Y-92179249D01*
X147605565Y-92000003D01*
X147605565Y-91999996D01*
X147585369Y-91820750D01*
X147585368Y-91820745D01*
X147542326Y-91697738D01*
X147525789Y-91650478D01*
X147429816Y-91497738D01*
X147302262Y-91370184D01*
X147149523Y-91274211D01*
X146979254Y-91214631D01*
X146979249Y-91214630D01*
X146800004Y-91194435D01*
X146799996Y-91194435D01*
X146620750Y-91214630D01*
X146620745Y-91214631D01*
X146450476Y-91274211D01*
X146297737Y-91370184D01*
X146170184Y-91497737D01*
X146074211Y-91650476D01*
X146014631Y-91820745D01*
X146014630Y-91820750D01*
X145994435Y-91999996D01*
X122278108Y-91999996D01*
X122225788Y-91850476D01*
X122129815Y-91697737D01*
X122002262Y-91570184D01*
X121849523Y-91474211D01*
X121679254Y-91414631D01*
X121679249Y-91414630D01*
X121500004Y-91394435D01*
X121499996Y-91394435D01*
X121320750Y-91414630D01*
X121320745Y-91414631D01*
X121150476Y-91474211D01*
X120997737Y-91570184D01*
X120870184Y-91697737D01*
X120774211Y-91850476D01*
X120714631Y-92020745D01*
X120714630Y-92020750D01*
X120694435Y-92199996D01*
X110305565Y-92199996D01*
X110285369Y-92020750D01*
X110285368Y-92020745D01*
X110225788Y-91850476D01*
X110129815Y-91697737D01*
X110002262Y-91570184D01*
X109849523Y-91474211D01*
X109679254Y-91414631D01*
X109679249Y-91414630D01*
X109500004Y-91394435D01*
X109499996Y-91394435D01*
X109320750Y-91414630D01*
X109320745Y-91414631D01*
X109150476Y-91474211D01*
X108997737Y-91570184D01*
X108870184Y-91697737D01*
X108774211Y-91850476D01*
X108714631Y-92020745D01*
X108714630Y-92020750D01*
X108694435Y-92199996D01*
X105348659Y-92199996D01*
X105335063Y-92044592D01*
X105283050Y-91850476D01*
X105273905Y-91816344D01*
X105273904Y-91816343D01*
X105273903Y-91816337D01*
X105174035Y-91602171D01*
X105042720Y-91414632D01*
X105038494Y-91408597D01*
X104871402Y-91241506D01*
X104871396Y-91241501D01*
X104685842Y-91111575D01*
X104642217Y-91056998D01*
X104635023Y-90987500D01*
X104666546Y-90925145D01*
X104685842Y-90908425D01*
X104708026Y-90892891D01*
X104871401Y-90778495D01*
X105038495Y-90611401D01*
X105174035Y-90417830D01*
X105273903Y-90203663D01*
X105335063Y-89975408D01*
X105355659Y-89740000D01*
X105335063Y-89504592D01*
X105273903Y-89276337D01*
X105226647Y-89174996D01*
X144994435Y-89174996D01*
X144994435Y-89175003D01*
X145014630Y-89354249D01*
X145014631Y-89354254D01*
X145074211Y-89524523D01*
X145170184Y-89677262D01*
X145297738Y-89804816D01*
X145450478Y-89900789D01*
X145620745Y-89960368D01*
X145620750Y-89960369D01*
X145799996Y-89980565D01*
X145800000Y-89980565D01*
X145800004Y-89980565D01*
X145979249Y-89960369D01*
X145979252Y-89960368D01*
X145979255Y-89960368D01*
X146149522Y-89900789D01*
X146302262Y-89804816D01*
X146429816Y-89677262D01*
X146525789Y-89524522D01*
X146585368Y-89354255D01*
X146593130Y-89285368D01*
X146605565Y-89175003D01*
X146605565Y-89174997D01*
X146584859Y-88991227D01*
X146596913Y-88922405D01*
X146644262Y-88871025D01*
X146711873Y-88853401D01*
X146778279Y-88875127D01*
X146813072Y-88911370D01*
X146870182Y-89002260D01*
X146870184Y-89002262D01*
X146997738Y-89129816D01*
X147150478Y-89225789D01*
X147294930Y-89276335D01*
X147320745Y-89285368D01*
X147320750Y-89285369D01*
X147499996Y-89305565D01*
X147500000Y-89305565D01*
X147500004Y-89305565D01*
X147679249Y-89285369D01*
X147679252Y-89285368D01*
X147679255Y-89285368D01*
X147849522Y-89225789D01*
X148002262Y-89129816D01*
X148129816Y-89002262D01*
X148225789Y-88849522D01*
X148285368Y-88679255D01*
X148285369Y-88679249D01*
X148305565Y-88500003D01*
X148305565Y-88499996D01*
X148285369Y-88320750D01*
X148285368Y-88320745D01*
X148275427Y-88292335D01*
X148225789Y-88150478D01*
X148129816Y-87997738D01*
X148002262Y-87870184D01*
X147849523Y-87774211D01*
X147679254Y-87714631D01*
X147679249Y-87714630D01*
X147500004Y-87694435D01*
X147499996Y-87694435D01*
X147320750Y-87714630D01*
X147320745Y-87714631D01*
X147150476Y-87774211D01*
X146997737Y-87870184D01*
X146870184Y-87997737D01*
X146774211Y-88150476D01*
X146714631Y-88320745D01*
X146714630Y-88320750D01*
X146694435Y-88499996D01*
X146694435Y-88500003D01*
X146715140Y-88683773D01*
X146703085Y-88752595D01*
X146655736Y-88803974D01*
X146588126Y-88821598D01*
X146521720Y-88799871D01*
X146486926Y-88763628D01*
X146429816Y-88672738D01*
X146302262Y-88545184D01*
X146230357Y-88500003D01*
X146149523Y-88449211D01*
X145979254Y-88389631D01*
X145979249Y-88389630D01*
X145800004Y-88369435D01*
X145799996Y-88369435D01*
X145620750Y-88389630D01*
X145620745Y-88389631D01*
X145450476Y-88449211D01*
X145297737Y-88545184D01*
X145170184Y-88672737D01*
X145074211Y-88825476D01*
X145014631Y-88995745D01*
X145014630Y-88995750D01*
X144994435Y-89174996D01*
X105226647Y-89174996D01*
X105174035Y-89062171D01*
X105132086Y-89002262D01*
X105038496Y-88868600D01*
X104991494Y-88821598D01*
X104916567Y-88746671D01*
X104883084Y-88685351D01*
X104888068Y-88615659D01*
X104929939Y-88559725D01*
X104960915Y-88542810D01*
X105092331Y-88493796D01*
X105207546Y-88407546D01*
X105293796Y-88292331D01*
X105344091Y-88157483D01*
X105350500Y-88097873D01*
X105350499Y-86302128D01*
X105344091Y-86242517D01*
X105293796Y-86107669D01*
X105293795Y-86107668D01*
X105293793Y-86107664D01*
X105207547Y-85992455D01*
X105207544Y-85992452D01*
X105092335Y-85906206D01*
X105092328Y-85906202D01*
X104957482Y-85855908D01*
X104957483Y-85855908D01*
X104897883Y-85849501D01*
X104897881Y-85849500D01*
X104897873Y-85849500D01*
X104897864Y-85849500D01*
X103102129Y-85849500D01*
X103102123Y-85849501D01*
X103042516Y-85855908D01*
X102907671Y-85906202D01*
X102907664Y-85906206D01*
X102792455Y-85992452D01*
X102792452Y-85992455D01*
X102706206Y-86107664D01*
X102706202Y-86107671D01*
X102655908Y-86242517D01*
X102649501Y-86302116D01*
X102649501Y-86302123D01*
X102649500Y-86302135D01*
X102649500Y-88097870D01*
X102649501Y-88097876D01*
X102655908Y-88157483D01*
X102706202Y-88292328D01*
X102706206Y-88292335D01*
X102792452Y-88407544D01*
X102792455Y-88407547D01*
X102907664Y-88493793D01*
X102907671Y-88493797D01*
X103039081Y-88542810D01*
X103095015Y-88584681D01*
X103119432Y-88650145D01*
X103104580Y-88718418D01*
X103083430Y-88746673D01*
X102961503Y-88868600D01*
X102825965Y-89062169D01*
X102825964Y-89062171D01*
X102726098Y-89276335D01*
X102726094Y-89276344D01*
X102664938Y-89504586D01*
X102664936Y-89504596D01*
X102644341Y-89739999D01*
X100000000Y-89739999D01*
X100000000Y-77999999D01*
X102644341Y-77999999D01*
X102644341Y-78000000D01*
X102664936Y-78235403D01*
X102664938Y-78235413D01*
X102726094Y-78463655D01*
X102726096Y-78463659D01*
X102726097Y-78463663D01*
X102743043Y-78500003D01*
X102825965Y-78677830D01*
X102825967Y-78677834D01*
X102961501Y-78871395D01*
X102961506Y-78871402D01*
X103128597Y-79038493D01*
X103128603Y-79038498D01*
X103314158Y-79168425D01*
X103357783Y-79223002D01*
X103364977Y-79292500D01*
X103333454Y-79354855D01*
X103314158Y-79371575D01*
X103128597Y-79501505D01*
X102961505Y-79668597D01*
X102825965Y-79862169D01*
X102825964Y-79862171D01*
X102726098Y-80076335D01*
X102726094Y-80076344D01*
X102664938Y-80304586D01*
X102664936Y-80304596D01*
X102644341Y-80539999D01*
X102644341Y-80540000D01*
X102664936Y-80775403D01*
X102664938Y-80775413D01*
X102726094Y-81003655D01*
X102726096Y-81003659D01*
X102726097Y-81003663D01*
X102815507Y-81195403D01*
X102825965Y-81217830D01*
X102825967Y-81217834D01*
X102961501Y-81411395D01*
X102961506Y-81411402D01*
X103128597Y-81578493D01*
X103128603Y-81578498D01*
X103314594Y-81708730D01*
X103358219Y-81763307D01*
X103365413Y-81832805D01*
X103333890Y-81895160D01*
X103314595Y-81911880D01*
X103128922Y-82041890D01*
X103128920Y-82041891D01*
X102961891Y-82208920D01*
X102961886Y-82208926D01*
X102826400Y-82402420D01*
X102826399Y-82402422D01*
X102726570Y-82616507D01*
X102726567Y-82616513D01*
X102669364Y-82829999D01*
X102669364Y-82830000D01*
X103566988Y-82830000D01*
X103534075Y-82887007D01*
X103500000Y-83014174D01*
X103500000Y-83145826D01*
X103534075Y-83272993D01*
X103566988Y-83330000D01*
X102669364Y-83330000D01*
X102726567Y-83543486D01*
X102726570Y-83543492D01*
X102826399Y-83757578D01*
X102961894Y-83951082D01*
X103128917Y-84118105D01*
X103322421Y-84253600D01*
X103536507Y-84353429D01*
X103536516Y-84353433D01*
X103750000Y-84410634D01*
X103750000Y-83513012D01*
X103807007Y-83545925D01*
X103934174Y-83580000D01*
X104065826Y-83580000D01*
X104192993Y-83545925D01*
X104250000Y-83513012D01*
X104250000Y-84410633D01*
X104463483Y-84353433D01*
X104463492Y-84353429D01*
X104677578Y-84253600D01*
X104871082Y-84118105D01*
X105038105Y-83951082D01*
X105173600Y-83757578D01*
X105273429Y-83543492D01*
X105273432Y-83543486D01*
X105330636Y-83330000D01*
X104433012Y-83330000D01*
X104465925Y-83272993D01*
X104500000Y-83145826D01*
X104500000Y-83014174D01*
X104465925Y-82887007D01*
X104433012Y-82830000D01*
X105330636Y-82830000D01*
X105330635Y-82829999D01*
X105273432Y-82616513D01*
X105273429Y-82616507D01*
X105173600Y-82402422D01*
X105173599Y-82402420D01*
X105038113Y-82208926D01*
X105038108Y-82208920D01*
X104871078Y-82041890D01*
X104685405Y-81911879D01*
X104641780Y-81857302D01*
X104634588Y-81787804D01*
X104666110Y-81725449D01*
X104685406Y-81708730D01*
X104786656Y-81637834D01*
X104871401Y-81578495D01*
X105038495Y-81411401D01*
X105174035Y-81217830D01*
X105273903Y-81003663D01*
X105335063Y-80775408D01*
X105355659Y-80540000D01*
X105335063Y-80304592D01*
X105273903Y-80076337D01*
X105174035Y-79862171D01*
X105151380Y-79829815D01*
X105038494Y-79668597D01*
X104871402Y-79501506D01*
X104871396Y-79501501D01*
X104685842Y-79371575D01*
X104642217Y-79316998D01*
X104635023Y-79247500D01*
X104659038Y-79199996D01*
X126494435Y-79199996D01*
X126494435Y-79200003D01*
X126514630Y-79379249D01*
X126514631Y-79379254D01*
X126574211Y-79549523D01*
X126649031Y-79668597D01*
X126670184Y-79702262D01*
X126797738Y-79829816D01*
X126849231Y-79862171D01*
X126943661Y-79921506D01*
X126950478Y-79925789D01*
X127120745Y-79985368D01*
X127120750Y-79985369D01*
X127299996Y-80005565D01*
X127300000Y-80005565D01*
X127300004Y-80005565D01*
X127479249Y-79985369D01*
X127479252Y-79985368D01*
X127479255Y-79985368D01*
X127649522Y-79925789D01*
X127802262Y-79829816D01*
X127929816Y-79702262D01*
X128025789Y-79549522D01*
X128085368Y-79379255D01*
X128085369Y-79379249D01*
X128105565Y-79200003D01*
X128105565Y-79199996D01*
X128085369Y-79020750D01*
X128085368Y-79020745D01*
X128025789Y-78850478D01*
X128025188Y-78849522D01*
X127929815Y-78697737D01*
X127802262Y-78570184D01*
X127690559Y-78499996D01*
X140294435Y-78499996D01*
X140294435Y-78500003D01*
X140314630Y-78679249D01*
X140314631Y-78679254D01*
X140374211Y-78849523D01*
X140470184Y-79002262D01*
X140597738Y-79129816D01*
X140659184Y-79168425D01*
X140746042Y-79223002D01*
X140750478Y-79225789D01*
X140876826Y-79270000D01*
X140920745Y-79285368D01*
X140920750Y-79285369D01*
X141099996Y-79305565D01*
X141100000Y-79305565D01*
X141100004Y-79305565D01*
X141279249Y-79285369D01*
X141279252Y-79285368D01*
X141279255Y-79285368D01*
X141449522Y-79225789D01*
X141602262Y-79129816D01*
X141729816Y-79002262D01*
X141825789Y-78849522D01*
X141885368Y-78679255D01*
X141885529Y-78677830D01*
X141905565Y-78500003D01*
X141905565Y-78499996D01*
X141896552Y-78419999D01*
X154144341Y-78419999D01*
X154144341Y-78420000D01*
X154164936Y-78655403D01*
X154164938Y-78655413D01*
X154226094Y-78883655D01*
X154226096Y-78883659D01*
X154226097Y-78883663D01*
X154281401Y-79002262D01*
X154325965Y-79097830D01*
X154325967Y-79097834D01*
X154397502Y-79199996D01*
X154457281Y-79285369D01*
X154461501Y-79291395D01*
X154461506Y-79291402D01*
X154628597Y-79458493D01*
X154628603Y-79458498D01*
X154814158Y-79588425D01*
X154857783Y-79643002D01*
X154864977Y-79712500D01*
X154833454Y-79774855D01*
X154814158Y-79791575D01*
X154628597Y-79921505D01*
X154461505Y-80088597D01*
X154325965Y-80282169D01*
X154325964Y-80282171D01*
X154226098Y-80496335D01*
X154226094Y-80496344D01*
X154164938Y-80724586D01*
X154164936Y-80724596D01*
X154144341Y-80959999D01*
X154144341Y-80960000D01*
X154164936Y-81195403D01*
X154164938Y-81195413D01*
X154226094Y-81423655D01*
X154226096Y-81423659D01*
X154226097Y-81423663D01*
X154298296Y-81578493D01*
X154325965Y-81637830D01*
X154325967Y-81637834D01*
X154461501Y-81831395D01*
X154461506Y-81831402D01*
X154628597Y-81998493D01*
X154628603Y-81998498D01*
X154814594Y-82128730D01*
X154858219Y-82183307D01*
X154865413Y-82252805D01*
X154833890Y-82315160D01*
X154814595Y-82331880D01*
X154628922Y-82461890D01*
X154628920Y-82461891D01*
X154461891Y-82628920D01*
X154461886Y-82628926D01*
X154326400Y-82822420D01*
X154326399Y-82822422D01*
X154226570Y-83036507D01*
X154226567Y-83036513D01*
X154169364Y-83249999D01*
X154169364Y-83250000D01*
X155066988Y-83250000D01*
X155034075Y-83307007D01*
X155000000Y-83434174D01*
X155000000Y-83565826D01*
X155034075Y-83692993D01*
X155066988Y-83750000D01*
X154169364Y-83750000D01*
X154226567Y-83963486D01*
X154226570Y-83963492D01*
X154326399Y-84177578D01*
X154461894Y-84371082D01*
X154628917Y-84538105D01*
X154822421Y-84673600D01*
X155036507Y-84773429D01*
X155036516Y-84773433D01*
X155250000Y-84830634D01*
X155250000Y-83933012D01*
X155307007Y-83965925D01*
X155434174Y-84000000D01*
X155565826Y-84000000D01*
X155692993Y-83965925D01*
X155750000Y-83933012D01*
X155750000Y-84830633D01*
X155963483Y-84773433D01*
X155963492Y-84773429D01*
X156177578Y-84673600D01*
X156371082Y-84538105D01*
X156538105Y-84371082D01*
X156673600Y-84177578D01*
X156773429Y-83963492D01*
X156773432Y-83963486D01*
X156830636Y-83750000D01*
X155933012Y-83750000D01*
X155965925Y-83692993D01*
X156000000Y-83565826D01*
X156000000Y-83434174D01*
X155965925Y-83307007D01*
X155933012Y-83250000D01*
X156830636Y-83250000D01*
X156830635Y-83249999D01*
X156773432Y-83036513D01*
X156773429Y-83036507D01*
X156673600Y-82822422D01*
X156673599Y-82822420D01*
X156538113Y-82628926D01*
X156538108Y-82628920D01*
X156371078Y-82461890D01*
X156185405Y-82331879D01*
X156141780Y-82277302D01*
X156134588Y-82207804D01*
X156166110Y-82145449D01*
X156185406Y-82128730D01*
X156309425Y-82041891D01*
X156371401Y-81998495D01*
X156538495Y-81831401D01*
X156674035Y-81637830D01*
X156773903Y-81423663D01*
X156835063Y-81195408D01*
X156855659Y-80960000D01*
X156835063Y-80724592D01*
X156773903Y-80496337D01*
X156674035Y-80282171D01*
X156538495Y-80088599D01*
X156538494Y-80088597D01*
X156371402Y-79921506D01*
X156371396Y-79921501D01*
X156185842Y-79791575D01*
X156142217Y-79736998D01*
X156135023Y-79667500D01*
X156166546Y-79605145D01*
X156185842Y-79588425D01*
X156309982Y-79501501D01*
X156371401Y-79458495D01*
X156538495Y-79291401D01*
X156674035Y-79097830D01*
X156773903Y-78883663D01*
X156835063Y-78655408D01*
X156855659Y-78420000D01*
X156835063Y-78184592D01*
X156773903Y-77956337D01*
X156674035Y-77742171D01*
X156662564Y-77725789D01*
X156538496Y-77548600D01*
X156492158Y-77502262D01*
X156416567Y-77426671D01*
X156383084Y-77365351D01*
X156388068Y-77295659D01*
X156429939Y-77239725D01*
X156460915Y-77222810D01*
X156592331Y-77173796D01*
X156707546Y-77087546D01*
X156793796Y-76972331D01*
X156844091Y-76837483D01*
X156850500Y-76777873D01*
X156850499Y-74982128D01*
X156844091Y-74922517D01*
X156793796Y-74787669D01*
X156793795Y-74787668D01*
X156793793Y-74787664D01*
X156707547Y-74672455D01*
X156707544Y-74672452D01*
X156592335Y-74586206D01*
X156592328Y-74586202D01*
X156457482Y-74535908D01*
X156457483Y-74535908D01*
X156397883Y-74529501D01*
X156397881Y-74529500D01*
X156397873Y-74529500D01*
X156397864Y-74529500D01*
X154602129Y-74529500D01*
X154602123Y-74529501D01*
X154542516Y-74535908D01*
X154407671Y-74586202D01*
X154407664Y-74586206D01*
X154292455Y-74672452D01*
X154292452Y-74672455D01*
X154206206Y-74787664D01*
X154206202Y-74787671D01*
X154155908Y-74922517D01*
X154149501Y-74982116D01*
X154149501Y-74982123D01*
X154149500Y-74982135D01*
X154149500Y-76777870D01*
X154149501Y-76777876D01*
X154155908Y-76837483D01*
X154206202Y-76972328D01*
X154206206Y-76972335D01*
X154292452Y-77087544D01*
X154292455Y-77087547D01*
X154407664Y-77173793D01*
X154407671Y-77173797D01*
X154539081Y-77222810D01*
X154595015Y-77264681D01*
X154619432Y-77330145D01*
X154604580Y-77398418D01*
X154583430Y-77426673D01*
X154461503Y-77548600D01*
X154325965Y-77742169D01*
X154325964Y-77742171D01*
X154226098Y-77956335D01*
X154226094Y-77956344D01*
X154164938Y-78184586D01*
X154164936Y-78184596D01*
X154144341Y-78419999D01*
X141896552Y-78419999D01*
X141885369Y-78320750D01*
X141885368Y-78320745D01*
X141855507Y-78235408D01*
X141825789Y-78150478D01*
X141729816Y-77997738D01*
X141602262Y-77870184D01*
X141499422Y-77805565D01*
X141449523Y-77774211D01*
X141279254Y-77714631D01*
X141279249Y-77714630D01*
X141100004Y-77694435D01*
X141099996Y-77694435D01*
X140920750Y-77714630D01*
X140920745Y-77714631D01*
X140750476Y-77774211D01*
X140597737Y-77870184D01*
X140470184Y-77997737D01*
X140374211Y-78150476D01*
X140314631Y-78320745D01*
X140314630Y-78320750D01*
X140294435Y-78499996D01*
X127690559Y-78499996D01*
X127649523Y-78474211D01*
X127479254Y-78414631D01*
X127479249Y-78414630D01*
X127300004Y-78394435D01*
X127299996Y-78394435D01*
X127120750Y-78414630D01*
X127120745Y-78414631D01*
X126950476Y-78474211D01*
X126797737Y-78570184D01*
X126670184Y-78697737D01*
X126574211Y-78850476D01*
X126514631Y-79020745D01*
X126514630Y-79020750D01*
X126494435Y-79199996D01*
X104659038Y-79199996D01*
X104666546Y-79185145D01*
X104685842Y-79168425D01*
X104786662Y-79097830D01*
X104871401Y-79038495D01*
X105038495Y-78871401D01*
X105174035Y-78677830D01*
X105273903Y-78463663D01*
X105335063Y-78235408D01*
X105355659Y-78000000D01*
X105335063Y-77764592D01*
X105273903Y-77536337D01*
X105174035Y-77322171D01*
X105162407Y-77305565D01*
X105038496Y-77128600D01*
X104997440Y-77087544D01*
X104916567Y-77006671D01*
X104912922Y-76999996D01*
X120794435Y-76999996D01*
X120794435Y-77000003D01*
X120814630Y-77179249D01*
X120814631Y-77179254D01*
X120874211Y-77349523D01*
X120894307Y-77381505D01*
X120970184Y-77502262D01*
X121097738Y-77629816D01*
X121188080Y-77686582D01*
X121232721Y-77714632D01*
X121250478Y-77725789D01*
X121361371Y-77764592D01*
X121420745Y-77785368D01*
X121420750Y-77785369D01*
X121599996Y-77805565D01*
X121600000Y-77805565D01*
X121600004Y-77805565D01*
X121779249Y-77785369D01*
X121779252Y-77785368D01*
X121779255Y-77785368D01*
X121949522Y-77725789D01*
X122102262Y-77629816D01*
X122229816Y-77502262D01*
X122325789Y-77349522D01*
X122385368Y-77179255D01*
X122385983Y-77173796D01*
X122405565Y-77000003D01*
X122405565Y-76999996D01*
X123194435Y-76999996D01*
X123194435Y-77000003D01*
X123214630Y-77179249D01*
X123214631Y-77179254D01*
X123274211Y-77349523D01*
X123294307Y-77381505D01*
X123370184Y-77502262D01*
X123497738Y-77629816D01*
X123588080Y-77686582D01*
X123632721Y-77714632D01*
X123650478Y-77725789D01*
X123761371Y-77764592D01*
X123820745Y-77785368D01*
X123820750Y-77785369D01*
X123999996Y-77805565D01*
X124000000Y-77805565D01*
X124000004Y-77805565D01*
X124179249Y-77785369D01*
X124179252Y-77785368D01*
X124179255Y-77785368D01*
X124349522Y-77725789D01*
X124502262Y-77629816D01*
X124629816Y-77502262D01*
X124725789Y-77349522D01*
X124785368Y-77179255D01*
X124785983Y-77173796D01*
X124805565Y-77000003D01*
X124805565Y-76999996D01*
X126494435Y-76999996D01*
X126494435Y-77000003D01*
X126514630Y-77179249D01*
X126514631Y-77179254D01*
X126574211Y-77349523D01*
X126594307Y-77381505D01*
X126670184Y-77502262D01*
X126797738Y-77629816D01*
X126888080Y-77686582D01*
X126932721Y-77714632D01*
X126950478Y-77725789D01*
X127061371Y-77764592D01*
X127120745Y-77785368D01*
X127120750Y-77785369D01*
X127299996Y-77805565D01*
X127300000Y-77805565D01*
X127300004Y-77805565D01*
X127479249Y-77785369D01*
X127479252Y-77785368D01*
X127479255Y-77785368D01*
X127649522Y-77725789D01*
X127802262Y-77629816D01*
X127929816Y-77502262D01*
X128025789Y-77349522D01*
X128085368Y-77179255D01*
X128085983Y-77173796D01*
X128105565Y-77000003D01*
X128105565Y-76999996D01*
X128085369Y-76820750D01*
X128085368Y-76820745D01*
X128080056Y-76805565D01*
X128025789Y-76650478D01*
X127931235Y-76499996D01*
X130294435Y-76499996D01*
X130294435Y-76500003D01*
X130314630Y-76679249D01*
X130314631Y-76679254D01*
X130374211Y-76849523D01*
X130455202Y-76978418D01*
X130470184Y-77002262D01*
X130597738Y-77129816D01*
X130667727Y-77173793D01*
X130747775Y-77224091D01*
X130750478Y-77225789D01*
X130790305Y-77239725D01*
X130920745Y-77285368D01*
X130920750Y-77285369D01*
X131099996Y-77305565D01*
X131100000Y-77305565D01*
X131100004Y-77305565D01*
X131279249Y-77285369D01*
X131279252Y-77285368D01*
X131279255Y-77285368D01*
X131449522Y-77225789D01*
X131602262Y-77129816D01*
X131729816Y-77002262D01*
X131825789Y-76849522D01*
X131885368Y-76679255D01*
X131886687Y-76667547D01*
X131905565Y-76500003D01*
X131905565Y-76499996D01*
X131894298Y-76399996D01*
X143194435Y-76399996D01*
X143194435Y-76400003D01*
X143214630Y-76579249D01*
X143214631Y-76579254D01*
X143274211Y-76749523D01*
X143334003Y-76844681D01*
X143370184Y-76902262D01*
X143497738Y-77029816D01*
X143650478Y-77125789D01*
X143661984Y-77129815D01*
X143820745Y-77185368D01*
X143820750Y-77185369D01*
X143999996Y-77205565D01*
X144000000Y-77205565D01*
X144000004Y-77205565D01*
X144179249Y-77185369D01*
X144179252Y-77185368D01*
X144179255Y-77185368D01*
X144349522Y-77125789D01*
X144502262Y-77029816D01*
X144629816Y-76902262D01*
X144725789Y-76749522D01*
X144785368Y-76579255D01*
X144794043Y-76502262D01*
X144805565Y-76400003D01*
X144805565Y-76399996D01*
X144785369Y-76220750D01*
X144785368Y-76220745D01*
X144770848Y-76179249D01*
X144725789Y-76050478D01*
X144629816Y-75897738D01*
X144502262Y-75770184D01*
X144413852Y-75714632D01*
X144349523Y-75674211D01*
X144179254Y-75614631D01*
X144179249Y-75614630D01*
X144000004Y-75594435D01*
X143999996Y-75594435D01*
X143820750Y-75614630D01*
X143820745Y-75614631D01*
X143650476Y-75674211D01*
X143497737Y-75770184D01*
X143370184Y-75897737D01*
X143274211Y-76050476D01*
X143214631Y-76220745D01*
X143214630Y-76220750D01*
X143194435Y-76399996D01*
X131894298Y-76399996D01*
X131885369Y-76320750D01*
X131885368Y-76320745D01*
X131841170Y-76194435D01*
X131825789Y-76150478D01*
X131729816Y-75997738D01*
X131602262Y-75870184D01*
X131449523Y-75774211D01*
X131279254Y-75714631D01*
X131279249Y-75714630D01*
X131100004Y-75694435D01*
X131099996Y-75694435D01*
X130920750Y-75714630D01*
X130920745Y-75714631D01*
X130750476Y-75774211D01*
X130597737Y-75870184D01*
X130470184Y-75997737D01*
X130374211Y-76150476D01*
X130314631Y-76320745D01*
X130314630Y-76320750D01*
X130294435Y-76499996D01*
X127931235Y-76499996D01*
X127929816Y-76497738D01*
X127802262Y-76370184D01*
X127782668Y-76357872D01*
X127649523Y-76274211D01*
X127479254Y-76214631D01*
X127479249Y-76214630D01*
X127300004Y-76194435D01*
X127299996Y-76194435D01*
X127120750Y-76214630D01*
X127120745Y-76214631D01*
X126950476Y-76274211D01*
X126797737Y-76370184D01*
X126670184Y-76497737D01*
X126574211Y-76650476D01*
X126514631Y-76820745D01*
X126514630Y-76820750D01*
X126494435Y-76999996D01*
X124805565Y-76999996D01*
X124785369Y-76820750D01*
X124785368Y-76820745D01*
X124780056Y-76805565D01*
X124725789Y-76650478D01*
X124629816Y-76497738D01*
X124502262Y-76370184D01*
X124482668Y-76357872D01*
X124349523Y-76274211D01*
X124179254Y-76214631D01*
X124179249Y-76214630D01*
X124000004Y-76194435D01*
X123999996Y-76194435D01*
X123820750Y-76214630D01*
X123820745Y-76214631D01*
X123650476Y-76274211D01*
X123497737Y-76370184D01*
X123370184Y-76497737D01*
X123274211Y-76650476D01*
X123214631Y-76820745D01*
X123214630Y-76820750D01*
X123194435Y-76999996D01*
X122405565Y-76999996D01*
X122385369Y-76820750D01*
X122385368Y-76820745D01*
X122380056Y-76805565D01*
X122325789Y-76650478D01*
X122229816Y-76497738D01*
X122102262Y-76370184D01*
X122082668Y-76357872D01*
X121949523Y-76274211D01*
X121779254Y-76214631D01*
X121779249Y-76214630D01*
X121600004Y-76194435D01*
X121599996Y-76194435D01*
X121420750Y-76214630D01*
X121420745Y-76214631D01*
X121250476Y-76274211D01*
X121097737Y-76370184D01*
X120970184Y-76497737D01*
X120874211Y-76650476D01*
X120814631Y-76820745D01*
X120814630Y-76820750D01*
X120794435Y-76999996D01*
X104912922Y-76999996D01*
X104883084Y-76945351D01*
X104888068Y-76875659D01*
X104929939Y-76819725D01*
X104960915Y-76802810D01*
X105092331Y-76753796D01*
X105207546Y-76667546D01*
X105293796Y-76552331D01*
X105344091Y-76417483D01*
X105350500Y-76357873D01*
X105350500Y-75999996D01*
X110094435Y-75999996D01*
X110094435Y-76000003D01*
X110114630Y-76179249D01*
X110114631Y-76179254D01*
X110174211Y-76349523D01*
X110267341Y-76497737D01*
X110270184Y-76502262D01*
X110397738Y-76629816D01*
X110550478Y-76725789D01*
X110699300Y-76777864D01*
X110720745Y-76785368D01*
X110720750Y-76785369D01*
X110899996Y-76805565D01*
X110900000Y-76805565D01*
X110900004Y-76805565D01*
X111079249Y-76785369D01*
X111079252Y-76785368D01*
X111079255Y-76785368D01*
X111249522Y-76725789D01*
X111402262Y-76629816D01*
X111529816Y-76502262D01*
X111625789Y-76349522D01*
X111685368Y-76179255D01*
X111685369Y-76179249D01*
X111705565Y-76000003D01*
X111705565Y-75999996D01*
X111685369Y-75820750D01*
X111685368Y-75820745D01*
X111641170Y-75694435D01*
X111625789Y-75650478D01*
X111603265Y-75614632D01*
X111529815Y-75497737D01*
X111402262Y-75370184D01*
X111249523Y-75274211D01*
X111079254Y-75214631D01*
X111079249Y-75214630D01*
X110900004Y-75194435D01*
X110899996Y-75194435D01*
X110720750Y-75214630D01*
X110720745Y-75214631D01*
X110550476Y-75274211D01*
X110397737Y-75370184D01*
X110270184Y-75497737D01*
X110174211Y-75650476D01*
X110114631Y-75820745D01*
X110114630Y-75820750D01*
X110094435Y-75999996D01*
X105350500Y-75999996D01*
X105350499Y-74562128D01*
X105344091Y-74502517D01*
X105293796Y-74367669D01*
X105293795Y-74367668D01*
X105293793Y-74367664D01*
X105207547Y-74252455D01*
X105207544Y-74252452D01*
X105092335Y-74166206D01*
X105092328Y-74166202D01*
X104957482Y-74115908D01*
X104957483Y-74115908D01*
X104897883Y-74109501D01*
X104897881Y-74109500D01*
X104897873Y-74109500D01*
X104897864Y-74109500D01*
X103102129Y-74109500D01*
X103102123Y-74109501D01*
X103042516Y-74115908D01*
X102907671Y-74166202D01*
X102907664Y-74166206D01*
X102792455Y-74252452D01*
X102792452Y-74252455D01*
X102706206Y-74367664D01*
X102706202Y-74367671D01*
X102655908Y-74502517D01*
X102649501Y-74562116D01*
X102649501Y-74562123D01*
X102649500Y-74562135D01*
X102649500Y-76357870D01*
X102649501Y-76357876D01*
X102655908Y-76417483D01*
X102706202Y-76552328D01*
X102706206Y-76552335D01*
X102792452Y-76667544D01*
X102792455Y-76667547D01*
X102907664Y-76753793D01*
X102907671Y-76753797D01*
X103039081Y-76802810D01*
X103095015Y-76844681D01*
X103119432Y-76910145D01*
X103104580Y-76978418D01*
X103083430Y-77006673D01*
X102961503Y-77128600D01*
X102825965Y-77322169D01*
X102825964Y-77322171D01*
X102726098Y-77536335D01*
X102726094Y-77536344D01*
X102664938Y-77764586D01*
X102664936Y-77764596D01*
X102644341Y-77999999D01*
X100000000Y-77999999D01*
X100000000Y-63379999D01*
X102644341Y-63379999D01*
X102644341Y-63380000D01*
X102664936Y-63615403D01*
X102664938Y-63615411D01*
X102726094Y-63843655D01*
X102726096Y-63843659D01*
X102726097Y-63843663D01*
X102752369Y-63900003D01*
X102825965Y-64057830D01*
X102825967Y-64057834D01*
X102922295Y-64195403D01*
X102960189Y-64249522D01*
X102961501Y-64251395D01*
X102961506Y-64251402D01*
X103128597Y-64418493D01*
X103128603Y-64418498D01*
X103314158Y-64548425D01*
X103357783Y-64603002D01*
X103364977Y-64672500D01*
X103333454Y-64734855D01*
X103314158Y-64751575D01*
X103128597Y-64881505D01*
X102961505Y-65048597D01*
X102825965Y-65242169D01*
X102825964Y-65242171D01*
X102726098Y-65456335D01*
X102726094Y-65456344D01*
X102664938Y-65684586D01*
X102664936Y-65684596D01*
X102644341Y-65919999D01*
X102644341Y-65920000D01*
X102664936Y-66155403D01*
X102664938Y-66155413D01*
X102726094Y-66383655D01*
X102726096Y-66383659D01*
X102726097Y-66383663D01*
X102779291Y-66497737D01*
X102825965Y-66597830D01*
X102825967Y-66597834D01*
X102961501Y-66791395D01*
X102961506Y-66791402D01*
X103128597Y-66958493D01*
X103128603Y-66958498D01*
X103314158Y-67088425D01*
X103357783Y-67143002D01*
X103364977Y-67212500D01*
X103333454Y-67274855D01*
X103314158Y-67291575D01*
X103128597Y-67421505D01*
X102961505Y-67588597D01*
X102825965Y-67782169D01*
X102825964Y-67782171D01*
X102726098Y-67996335D01*
X102726094Y-67996344D01*
X102664938Y-68224586D01*
X102664936Y-68224596D01*
X102644341Y-68459999D01*
X102644341Y-68460000D01*
X102664936Y-68695403D01*
X102664938Y-68695413D01*
X102726094Y-68923655D01*
X102726096Y-68923659D01*
X102726097Y-68923663D01*
X102749668Y-68974211D01*
X102825965Y-69137830D01*
X102825967Y-69137834D01*
X102961501Y-69331395D01*
X102961506Y-69331402D01*
X103128597Y-69498493D01*
X103128603Y-69498498D01*
X103314594Y-69628730D01*
X103358219Y-69683307D01*
X103365413Y-69752805D01*
X103333890Y-69815160D01*
X103314595Y-69831880D01*
X103128922Y-69961890D01*
X103128920Y-69961891D01*
X102961891Y-70128920D01*
X102961886Y-70128926D01*
X102826400Y-70322420D01*
X102826399Y-70322422D01*
X102726570Y-70536507D01*
X102726567Y-70536513D01*
X102669364Y-70749999D01*
X102669364Y-70750000D01*
X103566988Y-70750000D01*
X103534075Y-70807007D01*
X103500000Y-70934174D01*
X103500000Y-71065826D01*
X103534075Y-71192993D01*
X103566988Y-71250000D01*
X102669364Y-71250000D01*
X102726567Y-71463486D01*
X102726570Y-71463492D01*
X102826399Y-71677578D01*
X102961894Y-71871082D01*
X103128917Y-72038105D01*
X103322421Y-72173600D01*
X103536507Y-72273429D01*
X103536516Y-72273433D01*
X103750000Y-72330634D01*
X103750000Y-71433012D01*
X103807007Y-71465925D01*
X103934174Y-71500000D01*
X104065826Y-71500000D01*
X104192993Y-71465925D01*
X104250000Y-71433012D01*
X104250000Y-72330633D01*
X104463483Y-72273433D01*
X104463492Y-72273429D01*
X104677578Y-72173600D01*
X104871082Y-72038105D01*
X105038105Y-71871082D01*
X105173600Y-71677578D01*
X105273429Y-71463492D01*
X105273432Y-71463486D01*
X105330636Y-71250000D01*
X104433012Y-71250000D01*
X104465925Y-71192993D01*
X104500000Y-71065826D01*
X104500000Y-70934174D01*
X104465925Y-70807007D01*
X104433012Y-70750000D01*
X105330636Y-70750000D01*
X105330635Y-70749999D01*
X105273432Y-70536513D01*
X105273429Y-70536507D01*
X105173600Y-70322422D01*
X105173599Y-70322420D01*
X105038113Y-70128926D01*
X105038108Y-70128920D01*
X104871078Y-69961890D01*
X104685405Y-69831879D01*
X104641780Y-69777302D01*
X104634588Y-69707804D01*
X104638535Y-69699996D01*
X117094435Y-69699996D01*
X117094435Y-69700003D01*
X117114630Y-69879249D01*
X117114631Y-69879254D01*
X117174211Y-70049523D01*
X117237646Y-70150478D01*
X117270184Y-70202262D01*
X117397738Y-70329816D01*
X117550478Y-70425789D01*
X117720745Y-70485368D01*
X117720750Y-70485369D01*
X117899996Y-70505565D01*
X117900000Y-70505565D01*
X117900004Y-70505565D01*
X117949430Y-70499996D01*
X126194435Y-70499996D01*
X126194435Y-70500003D01*
X126214630Y-70679249D01*
X126214633Y-70679262D01*
X126274209Y-70849520D01*
X126327309Y-70934029D01*
X126346309Y-71001266D01*
X126327309Y-71065971D01*
X126274209Y-71150479D01*
X126214633Y-71320737D01*
X126214630Y-71320750D01*
X126194435Y-71499996D01*
X126194435Y-71500003D01*
X126214630Y-71679249D01*
X126214631Y-71679254D01*
X126274211Y-71849523D01*
X126304507Y-71897738D01*
X126370184Y-72002262D01*
X126497738Y-72129816D01*
X126567420Y-72173600D01*
X126642450Y-72220745D01*
X126650478Y-72225789D01*
X126741326Y-72257578D01*
X126820745Y-72285368D01*
X126820750Y-72285369D01*
X126999996Y-72305565D01*
X127000000Y-72305565D01*
X127000004Y-72305565D01*
X127179249Y-72285369D01*
X127179252Y-72285368D01*
X127179255Y-72285368D01*
X127349522Y-72225789D01*
X127502262Y-72129816D01*
X127629816Y-72002262D01*
X127725789Y-71849522D01*
X127778110Y-71699996D01*
X128094435Y-71699996D01*
X128094435Y-71700003D01*
X128114630Y-71879249D01*
X128114631Y-71879254D01*
X128174211Y-72049523D01*
X128224662Y-72129815D01*
X128270184Y-72202262D01*
X128397738Y-72329816D01*
X128550478Y-72425789D01*
X128720745Y-72485368D01*
X128720750Y-72485369D01*
X128899997Y-72505565D01*
X128900864Y-72505565D01*
X128901403Y-72505723D01*
X128906920Y-72506345D01*
X128906811Y-72507311D01*
X128967903Y-72525250D01*
X129013658Y-72578054D01*
X129017906Y-72588611D01*
X129074210Y-72749521D01*
X129076773Y-72753600D01*
X129170184Y-72902262D01*
X129297738Y-73029816D01*
X129450478Y-73125789D01*
X129620745Y-73185368D01*
X129620750Y-73185369D01*
X129799996Y-73205565D01*
X129800000Y-73205565D01*
X129800004Y-73205565D01*
X129979249Y-73185369D01*
X129979252Y-73185368D01*
X129979255Y-73185368D01*
X130149522Y-73125789D01*
X130302262Y-73029816D01*
X130429816Y-72902262D01*
X130525789Y-72749522D01*
X130585368Y-72579255D01*
X130585369Y-72579249D01*
X130605565Y-72400003D01*
X130605565Y-72399996D01*
X130585369Y-72220750D01*
X130585368Y-72220745D01*
X130525789Y-72050478D01*
X130525188Y-72049522D01*
X130429815Y-71897737D01*
X130302262Y-71770184D01*
X130149523Y-71674211D01*
X129979254Y-71614631D01*
X129979249Y-71614630D01*
X129800004Y-71594435D01*
X129799136Y-71594435D01*
X129798595Y-71594276D01*
X129793081Y-71593655D01*
X129793189Y-71592688D01*
X129732097Y-71574750D01*
X129686342Y-71521946D01*
X129682094Y-71511389D01*
X129678107Y-71499996D01*
X129625789Y-71350478D01*
X129529816Y-71197738D01*
X129402262Y-71070184D01*
X129292580Y-71001266D01*
X129249523Y-70974211D01*
X129079254Y-70914631D01*
X129079249Y-70914630D01*
X128900004Y-70894435D01*
X128899996Y-70894435D01*
X128720750Y-70914630D01*
X128720745Y-70914631D01*
X128550476Y-70974211D01*
X128397737Y-71070184D01*
X128270184Y-71197737D01*
X128174211Y-71350476D01*
X128114631Y-71520745D01*
X128114630Y-71520750D01*
X128094435Y-71699996D01*
X127778110Y-71699996D01*
X127785368Y-71679255D01*
X127785557Y-71677578D01*
X127805565Y-71500003D01*
X127805565Y-71499996D01*
X127785369Y-71320750D01*
X127785368Y-71320745D01*
X127725788Y-71150475D01*
X127672691Y-71065973D01*
X127653690Y-70998736D01*
X127672691Y-70934027D01*
X127725788Y-70849524D01*
X127725789Y-70849522D01*
X127785368Y-70679255D01*
X127800845Y-70541891D01*
X127805565Y-70500003D01*
X127805565Y-70499996D01*
X127785369Y-70320750D01*
X127785368Y-70320745D01*
X127773841Y-70287804D01*
X127725789Y-70150478D01*
X127629816Y-69997738D01*
X127502262Y-69870184D01*
X127441300Y-69831879D01*
X127349523Y-69774211D01*
X127179254Y-69714631D01*
X127179249Y-69714630D01*
X127000004Y-69694435D01*
X126999996Y-69694435D01*
X126820750Y-69714630D01*
X126820745Y-69714631D01*
X126650476Y-69774211D01*
X126497737Y-69870184D01*
X126370184Y-69997737D01*
X126274211Y-70150476D01*
X126214631Y-70320745D01*
X126214630Y-70320750D01*
X126194435Y-70499996D01*
X117949430Y-70499996D01*
X118079249Y-70485369D01*
X118079252Y-70485368D01*
X118079255Y-70485368D01*
X118249522Y-70425789D01*
X118402262Y-70329816D01*
X118529816Y-70202262D01*
X118625789Y-70049522D01*
X118685368Y-69879255D01*
X118690706Y-69831879D01*
X118705565Y-69700003D01*
X118705565Y-69699996D01*
X118685369Y-69520750D01*
X118685368Y-69520745D01*
X118679388Y-69503655D01*
X118625789Y-69350478D01*
X118625188Y-69349522D01*
X118529815Y-69197737D01*
X118402262Y-69070184D01*
X118290559Y-68999996D01*
X118894435Y-68999996D01*
X118894435Y-69000003D01*
X118914630Y-69179249D01*
X118914631Y-69179254D01*
X118974211Y-69349523D01*
X119067816Y-69498493D01*
X119070184Y-69502262D01*
X119197738Y-69629816D01*
X119222618Y-69645449D01*
X119337817Y-69717834D01*
X119350478Y-69725789D01*
X119488860Y-69774211D01*
X119520745Y-69785368D01*
X119520750Y-69785369D01*
X119699996Y-69805565D01*
X119700000Y-69805565D01*
X119700004Y-69805565D01*
X119879249Y-69785369D01*
X119879252Y-69785368D01*
X119879255Y-69785368D01*
X120049522Y-69725789D01*
X120202262Y-69629816D01*
X120329816Y-69502262D01*
X120425789Y-69349522D01*
X120485368Y-69179255D01*
X120490035Y-69137834D01*
X120505565Y-69000003D01*
X120505565Y-68999996D01*
X120485369Y-68820750D01*
X120485366Y-68820737D01*
X120458591Y-68744219D01*
X120455029Y-68674440D01*
X120470637Y-68637294D01*
X120525789Y-68549522D01*
X120585368Y-68379255D01*
X120591392Y-68325789D01*
X120605565Y-68200003D01*
X120605565Y-68199996D01*
X120585369Y-68020750D01*
X120585368Y-68020745D01*
X120531208Y-67865965D01*
X120525789Y-67850478D01*
X120429816Y-67697738D01*
X120302262Y-67570184D01*
X120251834Y-67538498D01*
X120149523Y-67474211D01*
X119979254Y-67414631D01*
X119979249Y-67414630D01*
X119849362Y-67399996D01*
X126294435Y-67399996D01*
X126294435Y-67400003D01*
X126314630Y-67579249D01*
X126314631Y-67579254D01*
X126374211Y-67749523D01*
X126437646Y-67850478D01*
X126470184Y-67902262D01*
X126597738Y-68029816D01*
X126750478Y-68125789D01*
X126818306Y-68149523D01*
X126920745Y-68185368D01*
X126920750Y-68185369D01*
X127099996Y-68205565D01*
X127100000Y-68205565D01*
X127100004Y-68205565D01*
X127279249Y-68185369D01*
X127279252Y-68185368D01*
X127279255Y-68185368D01*
X127449522Y-68125789D01*
X127602262Y-68029816D01*
X127729816Y-67902262D01*
X127825789Y-67749522D01*
X127885368Y-67579255D01*
X127903142Y-67421505D01*
X127905565Y-67400003D01*
X127905565Y-67399996D01*
X127885369Y-67220750D01*
X127885368Y-67220745D01*
X127866737Y-67167500D01*
X127825789Y-67050478D01*
X127803265Y-67014632D01*
X127729815Y-66897737D01*
X127602262Y-66770184D01*
X127449523Y-66674211D01*
X127279254Y-66614631D01*
X127279249Y-66614630D01*
X127100004Y-66594435D01*
X127099996Y-66594435D01*
X126920750Y-66614630D01*
X126920745Y-66614631D01*
X126750476Y-66674211D01*
X126597737Y-66770184D01*
X126470184Y-66897737D01*
X126374211Y-67050476D01*
X126314631Y-67220745D01*
X126314630Y-67220750D01*
X126294435Y-67399996D01*
X119849362Y-67399996D01*
X119800004Y-67394435D01*
X119799996Y-67394435D01*
X119620750Y-67414630D01*
X119620745Y-67414631D01*
X119450476Y-67474211D01*
X119297737Y-67570184D01*
X119170184Y-67697737D01*
X119074211Y-67850476D01*
X119014631Y-68020745D01*
X119014630Y-68020750D01*
X118994435Y-68199996D01*
X118994435Y-68200003D01*
X119014631Y-68379252D01*
X119014631Y-68379254D01*
X119014632Y-68379255D01*
X119032323Y-68429815D01*
X119041409Y-68455780D01*
X119044970Y-68525559D01*
X119029361Y-68562705D01*
X118974209Y-68650479D01*
X118914633Y-68820737D01*
X118914630Y-68820750D01*
X118894435Y-68999996D01*
X118290559Y-68999996D01*
X118249523Y-68974211D01*
X118079254Y-68914631D01*
X118079249Y-68914630D01*
X117900004Y-68894435D01*
X117899996Y-68894435D01*
X117720750Y-68914630D01*
X117720745Y-68914631D01*
X117550476Y-68974211D01*
X117397737Y-69070184D01*
X117270184Y-69197737D01*
X117174211Y-69350476D01*
X117114631Y-69520745D01*
X117114630Y-69520750D01*
X117094435Y-69699996D01*
X104638535Y-69699996D01*
X104666110Y-69645449D01*
X104685406Y-69628730D01*
X104871401Y-69498495D01*
X105038495Y-69331401D01*
X105174035Y-69137830D01*
X105273903Y-68923663D01*
X105335063Y-68695408D01*
X105355659Y-68460000D01*
X105335063Y-68224592D01*
X105273903Y-67996337D01*
X105174035Y-67782171D01*
X105171994Y-67779255D01*
X105046476Y-67599996D01*
X105894435Y-67599996D01*
X105894435Y-67600003D01*
X105914630Y-67779249D01*
X105914631Y-67779254D01*
X105974211Y-67949523D01*
X106024662Y-68029815D01*
X106070184Y-68102262D01*
X106197738Y-68229816D01*
X106350478Y-68325789D01*
X106503272Y-68379254D01*
X106520745Y-68385368D01*
X106520750Y-68385369D01*
X106699996Y-68405565D01*
X106700000Y-68405565D01*
X106700004Y-68405565D01*
X106879249Y-68385369D01*
X106879252Y-68385368D01*
X106879255Y-68385368D01*
X107049522Y-68325789D01*
X107202262Y-68229816D01*
X107329816Y-68102262D01*
X107425789Y-67949522D01*
X107478110Y-67799996D01*
X113094435Y-67799996D01*
X113094435Y-67800003D01*
X113114630Y-67979249D01*
X113114631Y-67979254D01*
X113174211Y-68149523D01*
X113221383Y-68224596D01*
X113270184Y-68302262D01*
X113397738Y-68429816D01*
X113550478Y-68525789D01*
X113618309Y-68549524D01*
X113720745Y-68585368D01*
X113720750Y-68585369D01*
X113899996Y-68605565D01*
X113900000Y-68605565D01*
X113900004Y-68605565D01*
X114079249Y-68585369D01*
X114079252Y-68585368D01*
X114079255Y-68585368D01*
X114249522Y-68525789D01*
X114402262Y-68429816D01*
X114529816Y-68302262D01*
X114625789Y-68149522D01*
X114685368Y-67979255D01*
X114698133Y-67865965D01*
X114705565Y-67800003D01*
X114705565Y-67799996D01*
X114685369Y-67620750D01*
X114685368Y-67620745D01*
X114667676Y-67570184D01*
X114625789Y-67450478D01*
X114607106Y-67420745D01*
X114529815Y-67297737D01*
X114402262Y-67170184D01*
X114249523Y-67074211D01*
X114079254Y-67014631D01*
X114079249Y-67014630D01*
X113900004Y-66994435D01*
X113899996Y-66994435D01*
X113720750Y-67014630D01*
X113720745Y-67014631D01*
X113550476Y-67074211D01*
X113397737Y-67170184D01*
X113270184Y-67297737D01*
X113174211Y-67450476D01*
X113114631Y-67620745D01*
X113114630Y-67620750D01*
X113094435Y-67799996D01*
X107478110Y-67799996D01*
X107485368Y-67779255D01*
X107491392Y-67725789D01*
X107505565Y-67600003D01*
X107505565Y-67599996D01*
X107485369Y-67420750D01*
X107485368Y-67420745D01*
X107442326Y-67297738D01*
X107425789Y-67250478D01*
X107407106Y-67220745D01*
X107329815Y-67097737D01*
X107202262Y-66970184D01*
X107049523Y-66874211D01*
X106879254Y-66814631D01*
X106879249Y-66814630D01*
X106700004Y-66794435D01*
X106699996Y-66794435D01*
X106520750Y-66814630D01*
X106520745Y-66814631D01*
X106350476Y-66874211D01*
X106197737Y-66970184D01*
X106070184Y-67097737D01*
X105974211Y-67250476D01*
X105914631Y-67420745D01*
X105914630Y-67420750D01*
X105894435Y-67599996D01*
X105046476Y-67599996D01*
X105038494Y-67588597D01*
X104871402Y-67421506D01*
X104871396Y-67421501D01*
X104685842Y-67291575D01*
X104642217Y-67236998D01*
X104635023Y-67167500D01*
X104666546Y-67105145D01*
X104685842Y-67088425D01*
X104791229Y-67014632D01*
X104871401Y-66958495D01*
X105038495Y-66791401D01*
X105174035Y-66597830D01*
X105273903Y-66383663D01*
X105335063Y-66155408D01*
X105355659Y-65920000D01*
X105335063Y-65684592D01*
X105312396Y-65599996D01*
X134494435Y-65599996D01*
X134494435Y-65600003D01*
X134514630Y-65779249D01*
X134514631Y-65779254D01*
X134574211Y-65949523D01*
X134637045Y-66049522D01*
X134670184Y-66102262D01*
X134797738Y-66229816D01*
X134950478Y-66325789D01*
X134961984Y-66329815D01*
X135120745Y-66385368D01*
X135120750Y-66385369D01*
X135299996Y-66405565D01*
X135300000Y-66405565D01*
X135300004Y-66405565D01*
X135479249Y-66385369D01*
X135479252Y-66385368D01*
X135479255Y-66385368D01*
X135649522Y-66325789D01*
X135802262Y-66229816D01*
X135929816Y-66102262D01*
X136025789Y-65949522D01*
X136085368Y-65779255D01*
X136085369Y-65779249D01*
X136094299Y-65699996D01*
X144494435Y-65699996D01*
X144494435Y-65700003D01*
X144514630Y-65879249D01*
X144514631Y-65879254D01*
X144574211Y-66049523D01*
X144640747Y-66155413D01*
X144670184Y-66202262D01*
X144797738Y-66329816D01*
X144861983Y-66370184D01*
X144941293Y-66420018D01*
X144950478Y-66425789D01*
X145120739Y-66485366D01*
X145120745Y-66485368D01*
X145120750Y-66485369D01*
X145299996Y-66505565D01*
X145300000Y-66505565D01*
X145300004Y-66505565D01*
X145479249Y-66485369D01*
X145479251Y-66485368D01*
X145479255Y-66485368D01*
X145479258Y-66485366D01*
X145479262Y-66485366D01*
X145655836Y-66423580D01*
X145725615Y-66420018D01*
X145786242Y-66454746D01*
X145818470Y-66516740D01*
X145812065Y-66586315D01*
X145801785Y-66606592D01*
X145774212Y-66650474D01*
X145714631Y-66820745D01*
X145714630Y-66820750D01*
X145694435Y-66999996D01*
X145694435Y-67000003D01*
X145714630Y-67179249D01*
X145714631Y-67179254D01*
X145774211Y-67349523D01*
X145837646Y-67450478D01*
X145870184Y-67502262D01*
X145997738Y-67629816D01*
X146059184Y-67668425D01*
X146146042Y-67723002D01*
X146150478Y-67725789D01*
X146320745Y-67785368D01*
X146320750Y-67785369D01*
X146499996Y-67805565D01*
X146500000Y-67805565D01*
X146500004Y-67805565D01*
X146679249Y-67785369D01*
X146679252Y-67785368D01*
X146679255Y-67785368D01*
X146849522Y-67725789D01*
X147002262Y-67629816D01*
X147129816Y-67502262D01*
X147225789Y-67349522D01*
X147285368Y-67179255D01*
X147286390Y-67170184D01*
X147305565Y-67000003D01*
X147305565Y-66999996D01*
X147285369Y-66820750D01*
X147285368Y-66820745D01*
X147255507Y-66735408D01*
X147225789Y-66650478D01*
X147225786Y-66650474D01*
X147185473Y-66586315D01*
X147129816Y-66497738D01*
X147002262Y-66370184D01*
X146938017Y-66329816D01*
X146849523Y-66274211D01*
X146679254Y-66214631D01*
X146679249Y-66214630D01*
X146500004Y-66194435D01*
X146499996Y-66194435D01*
X146320750Y-66214630D01*
X146320742Y-66214632D01*
X146144162Y-66276420D01*
X146074383Y-66279981D01*
X146013756Y-66245252D01*
X145981529Y-66183259D01*
X145987935Y-66113683D01*
X145998210Y-66093412D01*
X146025789Y-66049522D01*
X146085368Y-65879255D01*
X146091800Y-65822169D01*
X146105565Y-65700003D01*
X146105565Y-65699996D01*
X146085369Y-65520750D01*
X146085368Y-65520745D01*
X146025788Y-65350476D01*
X145962955Y-65250478D01*
X145929816Y-65197738D01*
X145802262Y-65070184D01*
X145738017Y-65029816D01*
X145649523Y-64974211D01*
X145479254Y-64914631D01*
X145479249Y-64914630D01*
X145300004Y-64894435D01*
X145299996Y-64894435D01*
X145120750Y-64914630D01*
X145120745Y-64914631D01*
X144950476Y-64974211D01*
X144797737Y-65070184D01*
X144670184Y-65197737D01*
X144574211Y-65350476D01*
X144514631Y-65520745D01*
X144514630Y-65520750D01*
X144494435Y-65699996D01*
X136094299Y-65699996D01*
X136105565Y-65600003D01*
X136105565Y-65599996D01*
X136085369Y-65420750D01*
X136085368Y-65420745D01*
X136025789Y-65250478D01*
X136020569Y-65242171D01*
X135949098Y-65128425D01*
X135929816Y-65097738D01*
X135802262Y-64970184D01*
X135713852Y-64914632D01*
X135649523Y-64874211D01*
X135479254Y-64814631D01*
X135479249Y-64814630D01*
X135300004Y-64794435D01*
X135299996Y-64794435D01*
X135120750Y-64814630D01*
X135120745Y-64814631D01*
X134950476Y-64874211D01*
X134797737Y-64970184D01*
X134670184Y-65097737D01*
X134574211Y-65250476D01*
X134514631Y-65420745D01*
X134514630Y-65420750D01*
X134494435Y-65599996D01*
X105312396Y-65599996D01*
X105273903Y-65456337D01*
X105174035Y-65242171D01*
X105149759Y-65207500D01*
X105038494Y-65048597D01*
X104871402Y-64881506D01*
X104871396Y-64881501D01*
X104685842Y-64751575D01*
X104642217Y-64696998D01*
X104635023Y-64627500D01*
X104666546Y-64565145D01*
X104685842Y-64548425D01*
X104712420Y-64529815D01*
X104871401Y-64418495D01*
X104889900Y-64399996D01*
X116594435Y-64399996D01*
X116594435Y-64400003D01*
X116614630Y-64579249D01*
X116614631Y-64579254D01*
X116674211Y-64749523D01*
X116752558Y-64874211D01*
X116770184Y-64902262D01*
X116897738Y-65029816D01*
X116927628Y-65048597D01*
X117005833Y-65097737D01*
X117050478Y-65125789D01*
X117213983Y-65183002D01*
X117220745Y-65185368D01*
X117220750Y-65185369D01*
X117399996Y-65205565D01*
X117400000Y-65205565D01*
X117400004Y-65205565D01*
X117579249Y-65185369D01*
X117579252Y-65185368D01*
X117579255Y-65185368D01*
X117749522Y-65125789D01*
X117902262Y-65029816D01*
X118029816Y-64902262D01*
X118125789Y-64749522D01*
X118185368Y-64579255D01*
X118188842Y-64548425D01*
X118205565Y-64400003D01*
X118205565Y-64399996D01*
X118185369Y-64220750D01*
X118185368Y-64220745D01*
X118176500Y-64195403D01*
X118125789Y-64050478D01*
X118031235Y-63899996D01*
X136694435Y-63899996D01*
X136694435Y-63900003D01*
X136714630Y-64079249D01*
X136714631Y-64079254D01*
X136774211Y-64249523D01*
X136775392Y-64251402D01*
X136870184Y-64402262D01*
X136997738Y-64529816D01*
X137150478Y-64625789D01*
X137320745Y-64685368D01*
X137320750Y-64685369D01*
X137499996Y-64705565D01*
X137500000Y-64705565D01*
X137500004Y-64705565D01*
X137679249Y-64685369D01*
X137679252Y-64685368D01*
X137679255Y-64685368D01*
X137849522Y-64625789D01*
X138002262Y-64529816D01*
X138129816Y-64402262D01*
X138225789Y-64249522D01*
X138285368Y-64079255D01*
X138287782Y-64057830D01*
X138298805Y-63959999D01*
X154144341Y-63959999D01*
X154144341Y-63960000D01*
X154164936Y-64195403D01*
X154164938Y-64195413D01*
X154226094Y-64423655D01*
X154226096Y-64423659D01*
X154226097Y-64423663D01*
X154298651Y-64579255D01*
X154325965Y-64637830D01*
X154325967Y-64637834D01*
X154461501Y-64831395D01*
X154461506Y-64831402D01*
X154628597Y-64998493D01*
X154628603Y-64998498D01*
X154814158Y-65128425D01*
X154857783Y-65183002D01*
X154864977Y-65252500D01*
X154833454Y-65314855D01*
X154814158Y-65331575D01*
X154628597Y-65461505D01*
X154461505Y-65628597D01*
X154325965Y-65822169D01*
X154325964Y-65822171D01*
X154226098Y-66036335D01*
X154226094Y-66036344D01*
X154164938Y-66264586D01*
X154164936Y-66264596D01*
X154144341Y-66499999D01*
X154144341Y-66500000D01*
X154164936Y-66735403D01*
X154164938Y-66735413D01*
X154226094Y-66963655D01*
X154226096Y-66963659D01*
X154226097Y-66963663D01*
X154309724Y-67143002D01*
X154325965Y-67177830D01*
X154325967Y-67177834D01*
X154461501Y-67371395D01*
X154461506Y-67371402D01*
X154628597Y-67538493D01*
X154628603Y-67538498D01*
X154814158Y-67668425D01*
X154857783Y-67723002D01*
X154864977Y-67792500D01*
X154833454Y-67854855D01*
X154814158Y-67871575D01*
X154628597Y-68001505D01*
X154461505Y-68168597D01*
X154325965Y-68362169D01*
X154325964Y-68362171D01*
X154226098Y-68576335D01*
X154226094Y-68576344D01*
X154164938Y-68804586D01*
X154164936Y-68804596D01*
X154144341Y-69039999D01*
X154144341Y-69040000D01*
X154164936Y-69275403D01*
X154164938Y-69275413D01*
X154226094Y-69503655D01*
X154226096Y-69503659D01*
X154226097Y-69503663D01*
X154234065Y-69520750D01*
X154325965Y-69717830D01*
X154325967Y-69717834D01*
X154405823Y-69831879D01*
X154461505Y-69911401D01*
X154628599Y-70078495D01*
X154805356Y-70202262D01*
X154814594Y-70208730D01*
X154858219Y-70263307D01*
X154865413Y-70332805D01*
X154833890Y-70395160D01*
X154814595Y-70411880D01*
X154628922Y-70541890D01*
X154628920Y-70541891D01*
X154461891Y-70708920D01*
X154461886Y-70708926D01*
X154326400Y-70902420D01*
X154326399Y-70902422D01*
X154226570Y-71116507D01*
X154226567Y-71116513D01*
X154169364Y-71329999D01*
X154169364Y-71330000D01*
X155066988Y-71330000D01*
X155034075Y-71387007D01*
X155000000Y-71514174D01*
X155000000Y-71645826D01*
X155034075Y-71772993D01*
X155066988Y-71830000D01*
X154169364Y-71830000D01*
X154226567Y-72043486D01*
X154226570Y-72043492D01*
X154326399Y-72257578D01*
X154461894Y-72451082D01*
X154628917Y-72618105D01*
X154822421Y-72753600D01*
X155036507Y-72853429D01*
X155036516Y-72853433D01*
X155250000Y-72910634D01*
X155250000Y-72013012D01*
X155307007Y-72045925D01*
X155434174Y-72080000D01*
X155565826Y-72080000D01*
X155692993Y-72045925D01*
X155750000Y-72013012D01*
X155750000Y-72910633D01*
X155963483Y-72853433D01*
X155963492Y-72853429D01*
X156177578Y-72753600D01*
X156371082Y-72618105D01*
X156538105Y-72451082D01*
X156673600Y-72257578D01*
X156773429Y-72043492D01*
X156773432Y-72043486D01*
X156830636Y-71830000D01*
X155933012Y-71830000D01*
X155965925Y-71772993D01*
X156000000Y-71645826D01*
X156000000Y-71514174D01*
X155965925Y-71387007D01*
X155933012Y-71330000D01*
X156830636Y-71330000D01*
X156830635Y-71329999D01*
X156773432Y-71116513D01*
X156773429Y-71116507D01*
X156673600Y-70902422D01*
X156673599Y-70902420D01*
X156538113Y-70708926D01*
X156538108Y-70708920D01*
X156371078Y-70541890D01*
X156185405Y-70411879D01*
X156141780Y-70357302D01*
X156134588Y-70287804D01*
X156166110Y-70225449D01*
X156185406Y-70208730D01*
X156371401Y-70078495D01*
X156538495Y-69911401D01*
X156674035Y-69717830D01*
X156773903Y-69503663D01*
X156835063Y-69275408D01*
X156855659Y-69040000D01*
X156835063Y-68804592D01*
X156773903Y-68576337D01*
X156674035Y-68362171D01*
X156648561Y-68325789D01*
X156538494Y-68168597D01*
X156371402Y-68001506D01*
X156371396Y-68001501D01*
X156185842Y-67871575D01*
X156142217Y-67816998D01*
X156135023Y-67747500D01*
X156166546Y-67685145D01*
X156185842Y-67668425D01*
X156253936Y-67620745D01*
X156371401Y-67538495D01*
X156538495Y-67371401D01*
X156674035Y-67177830D01*
X156773903Y-66963663D01*
X156835063Y-66735408D01*
X156855659Y-66500000D01*
X156835063Y-66264592D01*
X156773903Y-66036337D01*
X156674035Y-65822171D01*
X156643985Y-65779254D01*
X156538494Y-65628597D01*
X156371402Y-65461506D01*
X156371396Y-65461501D01*
X156185842Y-65331575D01*
X156142217Y-65276998D01*
X156135023Y-65207500D01*
X156166546Y-65145145D01*
X156185842Y-65128425D01*
X156229669Y-65097737D01*
X156371401Y-64998495D01*
X156538495Y-64831401D01*
X156674035Y-64637830D01*
X156773903Y-64423663D01*
X156835063Y-64195408D01*
X156855659Y-63960000D01*
X156835063Y-63724592D01*
X156773903Y-63496337D01*
X156674035Y-63282171D01*
X156577704Y-63144596D01*
X156538496Y-63088600D01*
X156538495Y-63088599D01*
X156416567Y-62966671D01*
X156383084Y-62905351D01*
X156388068Y-62835659D01*
X156429939Y-62779725D01*
X156460915Y-62762810D01*
X156592331Y-62713796D01*
X156707546Y-62627546D01*
X156793796Y-62512331D01*
X156844091Y-62377483D01*
X156850500Y-62317873D01*
X156850499Y-60522128D01*
X156844091Y-60462517D01*
X156793796Y-60327669D01*
X156793795Y-60327668D01*
X156793793Y-60327664D01*
X156707547Y-60212455D01*
X156707544Y-60212452D01*
X156592335Y-60126206D01*
X156592328Y-60126202D01*
X156457482Y-60075908D01*
X156457483Y-60075908D01*
X156397883Y-60069501D01*
X156397881Y-60069500D01*
X156397873Y-60069500D01*
X156397864Y-60069500D01*
X154602129Y-60069500D01*
X154602123Y-60069501D01*
X154542516Y-60075908D01*
X154407671Y-60126202D01*
X154407664Y-60126206D01*
X154292455Y-60212452D01*
X154292452Y-60212455D01*
X154206206Y-60327664D01*
X154206202Y-60327671D01*
X154155908Y-60462517D01*
X154149501Y-60522116D01*
X154149501Y-60522123D01*
X154149500Y-60522135D01*
X154149500Y-62317870D01*
X154149501Y-62317876D01*
X154155908Y-62377483D01*
X154206202Y-62512328D01*
X154206206Y-62512335D01*
X154292452Y-62627544D01*
X154292455Y-62627547D01*
X154407664Y-62713793D01*
X154407671Y-62713797D01*
X154539081Y-62762810D01*
X154595015Y-62804681D01*
X154619432Y-62870145D01*
X154604580Y-62938418D01*
X154583430Y-62966673D01*
X154461503Y-63088600D01*
X154325965Y-63282169D01*
X154325964Y-63282171D01*
X154226098Y-63496335D01*
X154226094Y-63496344D01*
X154164938Y-63724586D01*
X154164936Y-63724596D01*
X154144341Y-63959999D01*
X138298805Y-63959999D01*
X138305565Y-63900003D01*
X138305565Y-63899996D01*
X138285369Y-63720750D01*
X138285368Y-63720745D01*
X138225788Y-63550476D01*
X138129815Y-63397737D01*
X138002262Y-63270184D01*
X137849523Y-63174211D01*
X137679254Y-63114631D01*
X137679249Y-63114630D01*
X137500004Y-63094435D01*
X137499996Y-63094435D01*
X137320750Y-63114630D01*
X137320745Y-63114631D01*
X137150476Y-63174211D01*
X136997737Y-63270184D01*
X136870184Y-63397737D01*
X136774211Y-63550476D01*
X136714631Y-63720745D01*
X136714630Y-63720750D01*
X136694435Y-63899996D01*
X118031235Y-63899996D01*
X118029816Y-63897738D01*
X117902262Y-63770184D01*
X117749523Y-63674211D01*
X117579254Y-63614631D01*
X117579249Y-63614630D01*
X117400004Y-63594435D01*
X117399996Y-63594435D01*
X117220750Y-63614630D01*
X117220745Y-63614631D01*
X117050476Y-63674211D01*
X116897737Y-63770184D01*
X116770184Y-63897737D01*
X116674211Y-64050476D01*
X116614631Y-64220745D01*
X116614630Y-64220750D01*
X116594435Y-64399996D01*
X104889900Y-64399996D01*
X105038495Y-64251401D01*
X105174035Y-64057830D01*
X105273903Y-63843663D01*
X105335063Y-63615408D01*
X105355659Y-63380000D01*
X105335063Y-63144592D01*
X105273903Y-62916337D01*
X105174035Y-62702171D01*
X105121782Y-62627546D01*
X105038496Y-62508600D01*
X105038495Y-62508599D01*
X104916567Y-62386671D01*
X104883084Y-62325351D01*
X104888068Y-62255659D01*
X104929939Y-62199725D01*
X104960915Y-62182810D01*
X105092331Y-62133796D01*
X105207546Y-62047546D01*
X105293796Y-61932331D01*
X105344091Y-61797483D01*
X105350500Y-61737873D01*
X105350500Y-61599996D01*
X124294435Y-61599996D01*
X124294435Y-61600003D01*
X124314630Y-61779249D01*
X124314631Y-61779254D01*
X124374211Y-61949523D01*
X124435804Y-62047547D01*
X124470184Y-62102262D01*
X124597738Y-62229816D01*
X124638867Y-62255659D01*
X124737895Y-62317883D01*
X124750478Y-62325789D01*
X124898208Y-62377482D01*
X124920745Y-62385368D01*
X124920750Y-62385369D01*
X125099996Y-62405565D01*
X125100000Y-62405565D01*
X125100004Y-62405565D01*
X125279249Y-62385369D01*
X125279252Y-62385368D01*
X125279255Y-62385368D01*
X125449522Y-62325789D01*
X125602262Y-62229816D01*
X125729816Y-62102262D01*
X125825789Y-61949522D01*
X125885368Y-61779255D01*
X125885369Y-61779249D01*
X125905565Y-61600003D01*
X125905565Y-61599996D01*
X125885369Y-61420750D01*
X125885368Y-61420745D01*
X125825788Y-61250476D01*
X125729815Y-61097737D01*
X125602262Y-60970184D01*
X125449523Y-60874211D01*
X125279254Y-60814631D01*
X125279249Y-60814630D01*
X125100004Y-60794435D01*
X125099996Y-60794435D01*
X124920750Y-60814630D01*
X124920745Y-60814631D01*
X124750476Y-60874211D01*
X124597737Y-60970184D01*
X124470184Y-61097737D01*
X124374211Y-61250476D01*
X124314631Y-61420745D01*
X124314630Y-61420750D01*
X124294435Y-61599996D01*
X105350500Y-61599996D01*
X105350499Y-59942128D01*
X105344091Y-59882517D01*
X105293796Y-59747669D01*
X105293795Y-59747668D01*
X105293793Y-59747664D01*
X105207547Y-59632455D01*
X105207544Y-59632452D01*
X105092335Y-59546206D01*
X105092328Y-59546202D01*
X104957482Y-59495908D01*
X104957483Y-59495908D01*
X104897883Y-59489501D01*
X104897881Y-59489500D01*
X104897873Y-59489500D01*
X104897864Y-59489500D01*
X103102129Y-59489500D01*
X103102123Y-59489501D01*
X103042516Y-59495908D01*
X102907671Y-59546202D01*
X102907664Y-59546206D01*
X102792455Y-59632452D01*
X102792452Y-59632455D01*
X102706206Y-59747664D01*
X102706202Y-59747671D01*
X102655908Y-59882517D01*
X102649501Y-59942116D01*
X102649501Y-59942123D01*
X102649500Y-59942135D01*
X102649500Y-61737870D01*
X102649501Y-61737876D01*
X102655908Y-61797483D01*
X102706202Y-61932328D01*
X102706206Y-61932335D01*
X102792452Y-62047544D01*
X102792455Y-62047547D01*
X102907664Y-62133793D01*
X102907671Y-62133797D01*
X103039081Y-62182810D01*
X103095015Y-62224681D01*
X103119432Y-62290145D01*
X103104580Y-62358418D01*
X103083430Y-62386673D01*
X102961503Y-62508600D01*
X102825965Y-62702169D01*
X102825964Y-62702171D01*
X102726098Y-62916335D01*
X102726094Y-62916344D01*
X102664938Y-63144586D01*
X102664936Y-63144596D01*
X102644341Y-63379999D01*
X100000000Y-63379999D01*
X100000000Y-57799996D01*
X117329435Y-57799996D01*
X117329435Y-57800003D01*
X117349630Y-57979249D01*
X117349631Y-57979254D01*
X117409211Y-58149523D01*
X117505184Y-58302262D01*
X117632738Y-58429816D01*
X117785478Y-58525789D01*
X117955745Y-58585368D01*
X117955750Y-58585369D01*
X118134996Y-58605565D01*
X118135000Y-58605565D01*
X118135004Y-58605565D01*
X118314249Y-58585369D01*
X118314252Y-58585368D01*
X118314255Y-58585368D01*
X118484522Y-58525789D01*
X118637262Y-58429816D01*
X118764816Y-58302262D01*
X118860789Y-58149522D01*
X118920368Y-57979255D01*
X118940565Y-57800000D01*
X118940565Y-57799996D01*
X143294435Y-57799996D01*
X143294435Y-57800003D01*
X143314630Y-57979249D01*
X143314631Y-57979254D01*
X143374211Y-58149523D01*
X143470184Y-58302262D01*
X143597738Y-58429816D01*
X143750478Y-58525789D01*
X143920745Y-58585368D01*
X143920750Y-58585369D01*
X144099996Y-58605565D01*
X144100000Y-58605565D01*
X144100004Y-58605565D01*
X144279249Y-58585369D01*
X144279252Y-58585368D01*
X144279255Y-58585368D01*
X144449522Y-58525789D01*
X144602262Y-58429816D01*
X144729816Y-58302262D01*
X144825789Y-58149522D01*
X144885368Y-57979255D01*
X144905565Y-57800000D01*
X144885368Y-57620745D01*
X144825789Y-57450478D01*
X144729816Y-57297738D01*
X144602262Y-57170184D01*
X144449523Y-57074211D01*
X144279254Y-57014631D01*
X144279249Y-57014630D01*
X144100004Y-56994435D01*
X144099996Y-56994435D01*
X143920750Y-57014630D01*
X143920745Y-57014631D01*
X143750476Y-57074211D01*
X143597737Y-57170184D01*
X143470184Y-57297737D01*
X143374211Y-57450476D01*
X143314631Y-57620745D01*
X143314630Y-57620750D01*
X143294435Y-57799996D01*
X118940565Y-57799996D01*
X118920368Y-57620745D01*
X118860789Y-57450478D01*
X118764816Y-57297738D01*
X118637262Y-57170184D01*
X118484523Y-57074211D01*
X118314254Y-57014631D01*
X118314249Y-57014630D01*
X118135004Y-56994435D01*
X118134996Y-56994435D01*
X117955750Y-57014630D01*
X117955745Y-57014631D01*
X117785476Y-57074211D01*
X117632737Y-57170184D01*
X117505184Y-57297737D01*
X117409211Y-57450476D01*
X117349631Y-57620745D01*
X117349630Y-57620750D01*
X117329435Y-57799996D01*
X100000000Y-57799996D01*
X100000000Y-53799996D01*
X124294435Y-53799996D01*
X124294435Y-53800003D01*
X124314630Y-53979249D01*
X124314631Y-53979254D01*
X124374211Y-54149523D01*
X124470184Y-54302262D01*
X124597738Y-54429816D01*
X124750478Y-54525789D01*
X124920745Y-54585368D01*
X124920750Y-54585369D01*
X125099996Y-54605565D01*
X125100000Y-54605565D01*
X125100004Y-54605565D01*
X125279249Y-54585369D01*
X125279252Y-54585368D01*
X125279255Y-54585368D01*
X125449522Y-54525789D01*
X125602262Y-54429816D01*
X125729816Y-54302262D01*
X125825789Y-54149522D01*
X125878110Y-53999996D01*
X145194435Y-53999996D01*
X145194435Y-54000003D01*
X145214630Y-54179249D01*
X145214631Y-54179254D01*
X145274211Y-54349523D01*
X145324662Y-54429815D01*
X145370184Y-54502262D01*
X145497738Y-54629816D01*
X145650478Y-54725789D01*
X145820745Y-54785368D01*
X145820750Y-54785369D01*
X145999996Y-54805565D01*
X146000000Y-54805565D01*
X146000004Y-54805565D01*
X146179249Y-54785369D01*
X146179252Y-54785368D01*
X146179255Y-54785368D01*
X146349522Y-54725789D01*
X146502262Y-54629816D01*
X146629816Y-54502262D01*
X146725789Y-54349522D01*
X146785368Y-54179255D01*
X146805565Y-54000000D01*
X146785368Y-53820745D01*
X146725789Y-53650478D01*
X146707106Y-53620745D01*
X146629815Y-53497737D01*
X146502262Y-53370184D01*
X146349523Y-53274211D01*
X146179254Y-53214631D01*
X146179249Y-53214630D01*
X146000004Y-53194435D01*
X145999996Y-53194435D01*
X145820750Y-53214630D01*
X145820745Y-53214631D01*
X145650476Y-53274211D01*
X145497737Y-53370184D01*
X145370184Y-53497737D01*
X145274211Y-53650476D01*
X145214631Y-53820745D01*
X145214630Y-53820750D01*
X145194435Y-53999996D01*
X125878110Y-53999996D01*
X125885368Y-53979255D01*
X125905565Y-53800000D01*
X125888718Y-53650478D01*
X125885369Y-53620750D01*
X125885368Y-53620745D01*
X125842326Y-53497738D01*
X125825789Y-53450478D01*
X125729816Y-53297738D01*
X125602262Y-53170184D01*
X125449523Y-53074211D01*
X125279254Y-53014631D01*
X125279249Y-53014630D01*
X125100004Y-52994435D01*
X125099996Y-52994435D01*
X124920750Y-53014630D01*
X124920745Y-53014631D01*
X124750476Y-53074211D01*
X124597737Y-53170184D01*
X124470184Y-53297737D01*
X124374211Y-53450476D01*
X124314631Y-53620745D01*
X124314630Y-53620750D01*
X124294435Y-53799996D01*
X100000000Y-53799996D01*
X100000000Y-48686330D01*
X100019685Y-48619291D01*
X100072489Y-48573536D01*
X100141647Y-48563592D01*
X100205203Y-48592617D01*
X100242977Y-48651395D01*
X100246878Y-48669685D01*
X100272378Y-48857938D01*
X100368313Y-49278258D01*
X100501542Y-49688296D01*
X100501545Y-49688304D01*
X100670985Y-50084730D01*
X100670989Y-50084738D01*
X100875294Y-50464399D01*
X101112799Y-50824207D01*
X101112800Y-50824208D01*
X101381608Y-51161282D01*
X101432223Y-51214221D01*
X103313098Y-49333347D01*
X103380076Y-49420635D01*
X103579365Y-49619924D01*
X103666651Y-49686901D01*
X101786877Y-51566675D01*
X102004227Y-51756569D01*
X102004244Y-51756582D01*
X102353024Y-52009986D01*
X102723140Y-52231120D01*
X102723146Y-52231123D01*
X103111569Y-52418178D01*
X103111583Y-52418184D01*
X103515209Y-52569667D01*
X103515234Y-52569675D01*
X103930816Y-52684369D01*
X104355023Y-52761351D01*
X104784435Y-52799999D01*
X104784438Y-52800000D01*
X105215562Y-52800000D01*
X105215564Y-52799999D01*
X105644976Y-52761351D01*
X106069183Y-52684369D01*
X106484765Y-52569675D01*
X106484790Y-52569667D01*
X106888416Y-52418184D01*
X106888430Y-52418178D01*
X107276853Y-52231123D01*
X107276859Y-52231120D01*
X107646975Y-52009986D01*
X107995755Y-51756582D01*
X107995772Y-51756569D01*
X108213121Y-51566675D01*
X106333348Y-49686901D01*
X106420635Y-49619924D01*
X106619924Y-49420635D01*
X106686901Y-49333347D01*
X108567775Y-51214222D01*
X108567776Y-51214222D01*
X108618386Y-51161289D01*
X108618386Y-51161288D01*
X108747012Y-50999996D01*
X115694435Y-50999996D01*
X115694435Y-51000003D01*
X115714630Y-51179249D01*
X115714631Y-51179254D01*
X115774211Y-51349523D01*
X115868760Y-51499996D01*
X115870184Y-51502262D01*
X115997738Y-51629816D01*
X116150478Y-51725789D01*
X116320745Y-51785368D01*
X116320750Y-51785369D01*
X116499996Y-51805565D01*
X116500000Y-51805565D01*
X116500004Y-51805565D01*
X116679249Y-51785369D01*
X116679252Y-51785368D01*
X116679255Y-51785368D01*
X116849522Y-51725789D01*
X117002262Y-51629816D01*
X117129816Y-51502262D01*
X117131240Y-51499996D01*
X118694435Y-51499996D01*
X118694435Y-51500003D01*
X118714630Y-51679249D01*
X118714631Y-51679254D01*
X118774211Y-51849523D01*
X118870184Y-52002262D01*
X118997738Y-52129816D01*
X119150478Y-52225789D01*
X119165722Y-52231123D01*
X119320745Y-52285368D01*
X119320750Y-52285369D01*
X119499996Y-52305565D01*
X119500000Y-52305565D01*
X119500004Y-52305565D01*
X119679249Y-52285369D01*
X119679252Y-52285368D01*
X119679255Y-52285368D01*
X119849522Y-52225789D01*
X120002262Y-52129816D01*
X120129816Y-52002262D01*
X120225789Y-51849522D01*
X120285368Y-51679255D01*
X120285369Y-51679249D01*
X120305565Y-51500003D01*
X120305565Y-51499996D01*
X120285369Y-51320750D01*
X120285368Y-51320745D01*
X120248094Y-51214222D01*
X120225789Y-51150478D01*
X120131235Y-50999996D01*
X141694435Y-50999996D01*
X141694435Y-51000003D01*
X141714630Y-51179249D01*
X141714631Y-51179254D01*
X141774211Y-51349523D01*
X141868760Y-51499996D01*
X141870184Y-51502262D01*
X141997738Y-51629816D01*
X142150478Y-51725789D01*
X142320745Y-51785368D01*
X142320750Y-51785369D01*
X142499996Y-51805565D01*
X142500000Y-51805565D01*
X142500004Y-51805565D01*
X142679249Y-51785369D01*
X142679252Y-51785368D01*
X142679255Y-51785368D01*
X142849522Y-51725789D01*
X143002262Y-51629816D01*
X143129816Y-51502262D01*
X143225789Y-51349522D01*
X143285368Y-51179255D01*
X143285369Y-51179249D01*
X143305565Y-51000003D01*
X143305565Y-50999996D01*
X143285369Y-50820750D01*
X143285368Y-50820745D01*
X143225788Y-50650476D01*
X143129815Y-50497737D01*
X143002262Y-50370184D01*
X142849523Y-50274211D01*
X142679254Y-50214631D01*
X142679249Y-50214630D01*
X142500004Y-50194435D01*
X142499996Y-50194435D01*
X142320750Y-50214630D01*
X142320745Y-50214631D01*
X142150476Y-50274211D01*
X141997737Y-50370184D01*
X141870184Y-50497737D01*
X141774211Y-50650476D01*
X141714631Y-50820745D01*
X141714630Y-50820750D01*
X141694435Y-50999996D01*
X120131235Y-50999996D01*
X120129816Y-50997738D01*
X120002262Y-50870184D01*
X119929092Y-50824208D01*
X119849523Y-50774211D01*
X119679254Y-50714631D01*
X119679249Y-50714630D01*
X119500004Y-50694435D01*
X119499996Y-50694435D01*
X119320750Y-50714630D01*
X119320745Y-50714631D01*
X119150476Y-50774211D01*
X118997737Y-50870184D01*
X118870184Y-50997737D01*
X118774211Y-51150476D01*
X118714631Y-51320745D01*
X118714630Y-51320750D01*
X118694435Y-51499996D01*
X117131240Y-51499996D01*
X117225789Y-51349522D01*
X117285368Y-51179255D01*
X117285369Y-51179249D01*
X117305565Y-51000003D01*
X117305565Y-50999996D01*
X117285369Y-50820750D01*
X117285368Y-50820745D01*
X117225788Y-50650476D01*
X117129815Y-50497737D01*
X117002262Y-50370184D01*
X116849523Y-50274211D01*
X116679254Y-50214631D01*
X116679249Y-50214630D01*
X116500004Y-50194435D01*
X116499996Y-50194435D01*
X116320750Y-50214630D01*
X116320745Y-50214631D01*
X116150476Y-50274211D01*
X115997737Y-50370184D01*
X115870184Y-50497737D01*
X115774211Y-50650476D01*
X115714631Y-50820745D01*
X115714630Y-50820750D01*
X115694435Y-50999996D01*
X108747012Y-50999996D01*
X108887199Y-50824208D01*
X108887200Y-50824207D01*
X109124705Y-50464399D01*
X109329010Y-50084738D01*
X109329014Y-50084730D01*
X109498454Y-49688304D01*
X109498457Y-49688296D01*
X109631686Y-49278258D01*
X109727621Y-48857938D01*
X109785494Y-48430701D01*
X109785495Y-48430692D01*
X109804838Y-48000003D01*
X109804838Y-47999996D01*
X109785495Y-47569307D01*
X109785494Y-47569298D01*
X109727621Y-47142061D01*
X109631686Y-46721741D01*
X109498457Y-46311703D01*
X109498454Y-46311695D01*
X109329014Y-45915269D01*
X109329010Y-45915261D01*
X109124705Y-45535600D01*
X108887200Y-45175792D01*
X108887199Y-45175791D01*
X108846290Y-45124493D01*
X110226464Y-45124493D01*
X110226464Y-45275507D01*
X110253259Y-45375507D01*
X110265551Y-45421380D01*
X110310941Y-45499996D01*
X110341057Y-45552159D01*
X110447841Y-45658943D01*
X110539767Y-45712016D01*
X110578619Y-45734448D01*
X110578620Y-45734448D01*
X110578623Y-45734450D01*
X110724493Y-45773536D01*
X110875504Y-45773536D01*
X110875507Y-45773536D01*
X111021377Y-45734450D01*
X111152159Y-45658943D01*
X111258943Y-45552159D01*
X111289059Y-45499996D01*
X115694435Y-45499996D01*
X115694435Y-45500003D01*
X115714630Y-45679249D01*
X115714631Y-45679254D01*
X115774211Y-45849523D01*
X115868763Y-46000000D01*
X115870184Y-46002262D01*
X115997738Y-46129816D01*
X116088080Y-46186582D01*
X116122970Y-46208505D01*
X116150478Y-46225789D01*
X116320745Y-46285368D01*
X116320750Y-46285369D01*
X116499996Y-46305565D01*
X116500000Y-46305565D01*
X116500004Y-46305565D01*
X116679249Y-46285369D01*
X116679252Y-46285368D01*
X116679255Y-46285368D01*
X116849522Y-46225789D01*
X117002262Y-46129816D01*
X117129816Y-46002262D01*
X117225789Y-45849522D01*
X117285368Y-45679255D01*
X117303156Y-45521380D01*
X117305565Y-45500003D01*
X117305565Y-45499996D01*
X117285369Y-45320750D01*
X117285368Y-45320745D01*
X117278109Y-45300000D01*
X117225789Y-45150478D01*
X117212244Y-45128922D01*
X117195413Y-45102135D01*
X125349500Y-45102135D01*
X125349500Y-46897870D01*
X125349501Y-46897876D01*
X125355908Y-46957483D01*
X125406202Y-47092328D01*
X125406206Y-47092335D01*
X125492452Y-47207544D01*
X125492455Y-47207547D01*
X125607664Y-47293793D01*
X125607671Y-47293797D01*
X125742517Y-47344091D01*
X125742516Y-47344091D01*
X125749444Y-47344835D01*
X125802127Y-47350500D01*
X127597872Y-47350499D01*
X127657483Y-47344091D01*
X127792331Y-47293796D01*
X127907546Y-47207546D01*
X127993796Y-47092331D01*
X128042810Y-46960916D01*
X128084681Y-46904984D01*
X128150145Y-46880566D01*
X128218418Y-46895417D01*
X128246673Y-46916569D01*
X128368599Y-47038495D01*
X128465384Y-47106265D01*
X128562165Y-47174032D01*
X128562167Y-47174033D01*
X128562170Y-47174035D01*
X128776337Y-47273903D01*
X129004592Y-47335063D01*
X129181034Y-47350500D01*
X129239999Y-47355659D01*
X129240000Y-47355659D01*
X129240001Y-47355659D01*
X129298966Y-47350500D01*
X129475408Y-47335063D01*
X129703663Y-47273903D01*
X129917830Y-47174035D01*
X130111401Y-47038495D01*
X130278495Y-46871401D01*
X130408425Y-46685842D01*
X130463002Y-46642217D01*
X130532500Y-46635023D01*
X130594855Y-46666546D01*
X130611575Y-46685842D01*
X130741281Y-46871082D01*
X130741505Y-46871401D01*
X130908599Y-47038495D01*
X131005384Y-47106265D01*
X131102165Y-47174032D01*
X131102167Y-47174033D01*
X131102170Y-47174035D01*
X131316337Y-47273903D01*
X131544592Y-47335063D01*
X131721034Y-47350500D01*
X131779999Y-47355659D01*
X131780000Y-47355659D01*
X131780001Y-47355659D01*
X131838966Y-47350500D01*
X132015408Y-47335063D01*
X132243663Y-47273903D01*
X132457830Y-47174035D01*
X132651401Y-47038495D01*
X132818495Y-46871401D01*
X132948730Y-46685405D01*
X133003307Y-46641781D01*
X133072805Y-46634587D01*
X133135160Y-46666110D01*
X133151879Y-46685405D01*
X133281890Y-46871078D01*
X133448917Y-47038105D01*
X133642421Y-47173600D01*
X133856507Y-47273429D01*
X133856516Y-47273433D01*
X134070000Y-47330634D01*
X134070000Y-46433012D01*
X134127007Y-46465925D01*
X134254174Y-46500000D01*
X134385826Y-46500000D01*
X134512993Y-46465925D01*
X134570000Y-46433012D01*
X134570000Y-47330633D01*
X134783483Y-47273433D01*
X134783492Y-47273429D01*
X134997578Y-47173600D01*
X135191082Y-47038105D01*
X135358105Y-46871082D01*
X135493600Y-46677578D01*
X135593429Y-46463492D01*
X135593432Y-46463486D01*
X135650636Y-46250000D01*
X134753012Y-46250000D01*
X134785925Y-46192993D01*
X134820000Y-46065826D01*
X134820000Y-45934174D01*
X134785925Y-45807007D01*
X134753012Y-45750000D01*
X135650636Y-45750000D01*
X135650635Y-45749999D01*
X135593432Y-45536513D01*
X135593429Y-45536507D01*
X135576404Y-45499996D01*
X141694435Y-45499996D01*
X141694435Y-45500003D01*
X141714630Y-45679249D01*
X141714631Y-45679254D01*
X141774211Y-45849523D01*
X141868763Y-46000000D01*
X141870184Y-46002262D01*
X141997738Y-46129816D01*
X142088080Y-46186582D01*
X142122970Y-46208505D01*
X142150478Y-46225789D01*
X142320745Y-46285368D01*
X142320750Y-46285369D01*
X142499996Y-46305565D01*
X142500000Y-46305565D01*
X142500004Y-46305565D01*
X142679249Y-46285369D01*
X142679252Y-46285368D01*
X142679255Y-46285368D01*
X142849522Y-46225789D01*
X143002262Y-46129816D01*
X143129816Y-46002262D01*
X143225789Y-45849522D01*
X143285368Y-45679255D01*
X143303156Y-45521380D01*
X143305565Y-45500003D01*
X143305565Y-45499996D01*
X143285369Y-45320750D01*
X143285368Y-45320745D01*
X143278109Y-45300000D01*
X143251688Y-45224493D01*
X148450464Y-45224493D01*
X148450464Y-45375507D01*
X148462756Y-45421380D01*
X148489551Y-45521380D01*
X148507322Y-45552159D01*
X148565057Y-45652159D01*
X148671841Y-45758943D01*
X148763767Y-45812016D01*
X148802619Y-45834448D01*
X148802620Y-45834448D01*
X148802623Y-45834450D01*
X148948493Y-45873536D01*
X149099504Y-45873536D01*
X149099507Y-45873536D01*
X149245377Y-45834450D01*
X149376159Y-45758943D01*
X149482943Y-45652159D01*
X149558450Y-45521377D01*
X149597536Y-45375507D01*
X149600000Y-45300000D01*
X149597536Y-45224493D01*
X149558450Y-45078623D01*
X149482943Y-44947841D01*
X149376159Y-44841057D01*
X149291973Y-44792452D01*
X149245380Y-44765551D01*
X149245381Y-44765551D01*
X149233419Y-44762345D01*
X149099507Y-44726464D01*
X149099504Y-44726464D01*
X148948496Y-44726464D01*
X148948493Y-44726464D01*
X148814580Y-44762345D01*
X148802619Y-44765551D01*
X148671844Y-44841055D01*
X148671838Y-44841059D01*
X148565059Y-44947838D01*
X148565055Y-44947844D01*
X148489551Y-45078619D01*
X148489550Y-45078623D01*
X148450464Y-45224493D01*
X143251688Y-45224493D01*
X143225789Y-45150478D01*
X143212244Y-45128922D01*
X143175258Y-45070058D01*
X143129816Y-44997738D01*
X143002262Y-44870184D01*
X142966708Y-44847844D01*
X142849523Y-44774211D01*
X142679254Y-44714631D01*
X142679249Y-44714630D01*
X142500004Y-44694435D01*
X142499996Y-44694435D01*
X142320750Y-44714630D01*
X142320745Y-44714631D01*
X142150476Y-44774211D01*
X141997737Y-44870184D01*
X141870184Y-44997737D01*
X141774211Y-45150476D01*
X141714631Y-45320745D01*
X141714630Y-45320750D01*
X141694435Y-45499996D01*
X135576404Y-45499996D01*
X135493600Y-45322422D01*
X135493599Y-45322420D01*
X135358113Y-45128926D01*
X135358108Y-45128920D01*
X135191082Y-44961894D01*
X134997578Y-44826399D01*
X134783492Y-44726570D01*
X134783486Y-44726567D01*
X134570000Y-44669364D01*
X134570000Y-45566988D01*
X134512993Y-45534075D01*
X134385826Y-45500000D01*
X134254174Y-45500000D01*
X134127007Y-45534075D01*
X134070000Y-45566988D01*
X134070000Y-44669364D01*
X134069999Y-44669364D01*
X133856513Y-44726567D01*
X133856507Y-44726570D01*
X133642422Y-44826399D01*
X133642420Y-44826400D01*
X133448926Y-44961886D01*
X133448920Y-44961891D01*
X133281891Y-45128920D01*
X133281890Y-45128922D01*
X133151880Y-45314595D01*
X133097303Y-45358219D01*
X133027804Y-45365412D01*
X132965450Y-45333890D01*
X132948730Y-45314594D01*
X132818494Y-45128597D01*
X132651402Y-44961506D01*
X132651395Y-44961501D01*
X132631882Y-44947838D01*
X132574518Y-44907671D01*
X132457834Y-44825967D01*
X132457830Y-44825965D01*
X132457828Y-44825964D01*
X132243663Y-44726097D01*
X132243659Y-44726096D01*
X132243655Y-44726094D01*
X132015413Y-44664938D01*
X132015403Y-44664936D01*
X131780001Y-44644341D01*
X131779999Y-44644341D01*
X131544596Y-44664936D01*
X131544586Y-44664938D01*
X131316344Y-44726094D01*
X131316335Y-44726098D01*
X131102171Y-44825964D01*
X131102169Y-44825965D01*
X130908597Y-44961505D01*
X130741505Y-45128597D01*
X130611575Y-45314158D01*
X130556998Y-45357783D01*
X130487500Y-45364977D01*
X130425145Y-45333454D01*
X130408425Y-45314158D01*
X130278494Y-45128597D01*
X130111402Y-44961506D01*
X130111395Y-44961501D01*
X130091882Y-44947838D01*
X130034518Y-44907671D01*
X129917834Y-44825967D01*
X129917830Y-44825965D01*
X129917828Y-44825964D01*
X129703663Y-44726097D01*
X129703659Y-44726096D01*
X129703655Y-44726094D01*
X129475413Y-44664938D01*
X129475403Y-44664936D01*
X129240001Y-44644341D01*
X129239999Y-44644341D01*
X129004596Y-44664936D01*
X129004586Y-44664938D01*
X128776344Y-44726094D01*
X128776335Y-44726098D01*
X128562171Y-44825964D01*
X128562169Y-44825965D01*
X128368600Y-44961503D01*
X128246673Y-45083430D01*
X128185350Y-45116914D01*
X128115658Y-45111930D01*
X128059725Y-45070058D01*
X128042810Y-45039081D01*
X127993797Y-44907671D01*
X127993793Y-44907664D01*
X127907547Y-44792455D01*
X127907544Y-44792452D01*
X127792335Y-44706206D01*
X127792328Y-44706202D01*
X127657482Y-44655908D01*
X127657483Y-44655908D01*
X127597883Y-44649501D01*
X127597881Y-44649500D01*
X127597873Y-44649500D01*
X127597864Y-44649500D01*
X125802129Y-44649500D01*
X125802123Y-44649501D01*
X125742516Y-44655908D01*
X125607671Y-44706202D01*
X125607664Y-44706206D01*
X125492455Y-44792452D01*
X125492452Y-44792455D01*
X125406206Y-44907664D01*
X125406202Y-44907671D01*
X125355908Y-45042517D01*
X125349501Y-45102116D01*
X125349500Y-45102135D01*
X117195413Y-45102135D01*
X117175258Y-45070058D01*
X117129816Y-44997738D01*
X117002262Y-44870184D01*
X116966708Y-44847844D01*
X116849523Y-44774211D01*
X116679254Y-44714631D01*
X116679249Y-44714630D01*
X116500004Y-44694435D01*
X116499996Y-44694435D01*
X116320750Y-44714630D01*
X116320745Y-44714631D01*
X116150476Y-44774211D01*
X115997737Y-44870184D01*
X115870184Y-44997737D01*
X115774211Y-45150476D01*
X115714631Y-45320745D01*
X115714630Y-45320750D01*
X115694435Y-45499996D01*
X111289059Y-45499996D01*
X111334450Y-45421377D01*
X111373536Y-45275507D01*
X111376000Y-45200000D01*
X111373536Y-45124493D01*
X111334450Y-44978623D01*
X111324567Y-44961506D01*
X111293482Y-44907664D01*
X111258943Y-44847841D01*
X111152159Y-44741057D01*
X111106386Y-44714630D01*
X111021380Y-44665551D01*
X111021381Y-44665551D01*
X111009419Y-44662345D01*
X110875507Y-44626464D01*
X110875504Y-44626464D01*
X110724496Y-44626464D01*
X110724493Y-44626464D01*
X110590580Y-44662345D01*
X110578619Y-44665551D01*
X110447844Y-44741055D01*
X110447838Y-44741059D01*
X110341059Y-44847838D01*
X110341055Y-44847844D01*
X110265551Y-44978619D01*
X110265550Y-44978623D01*
X110226464Y-45124493D01*
X108846290Y-45124493D01*
X108618391Y-44838717D01*
X108567774Y-44785776D01*
X106686900Y-46666650D01*
X106619924Y-46579365D01*
X106420635Y-46380076D01*
X106333347Y-46313098D01*
X108213121Y-44433323D01*
X108213121Y-44433322D01*
X107995783Y-44243439D01*
X107995755Y-44243417D01*
X107646975Y-43990013D01*
X107276859Y-43768879D01*
X107276853Y-43768876D01*
X106888430Y-43581821D01*
X106888416Y-43581815D01*
X106484790Y-43430332D01*
X106484765Y-43430324D01*
X106069183Y-43315630D01*
X105685527Y-43246007D01*
X105623080Y-43214669D01*
X105587489Y-43154543D01*
X105590054Y-43084721D01*
X105629960Y-43027369D01*
X105694539Y-43000697D01*
X105707668Y-43000000D01*
X154292332Y-43000000D01*
X154359371Y-43019685D01*
G37*
%TD.AperFunction*%
%TD*%
M02*
