M48
; DRILL file {KiCad 8.0.6} date 2024-12-26T00:35:41-0600
; FORMAT={-:-/ absolute / inch / decimal}
; #@! TF.CreationDate,2024-12-26T00:35:41-06:00
; #@! TF.GenerationSoftware,Kicad,Pcbnew,8.0.6
; #@! TF.FileFunction,Plated,1,4,PTH
FMAT,2
INCH
; #@! TA.AperFunction,Plated,PTH,ViaDrill
T1C0.0118
; #@! TA.AperFunction,Plated,PTH,ComponentDrill
T2C0.0236
; #@! TA.AperFunction,Plated,PTH,ComponentDrill
T3C0.0394
; #@! TA.AperFunction,Plated,PTH,ComponentDrill
T4C0.1693
%
G90
G05
T1
X4.2008Y-2.6614
X4.252Y-2.4409
X4.311Y-3.6299
X4.3425Y-2.7992
X4.3425Y-2.8346
X4.3661Y-2.9921
X4.378Y-4.0315
X4.3819Y-3.937
X4.4488Y-2.6575
X4.4685Y-3.0118
X4.4843Y-2.6693
X4.5394Y-2.5236
X4.5512Y-2.0787
X4.5709Y-2.5
X4.5866Y-1.7913
X4.5866Y-2.0079
X4.6024Y-2.2756
X4.6102Y-3.937
X4.622Y-2.5354
X4.6417Y-2.7441
X4.6417Y-2.8465
X4.6457Y-3.0118
X4.651Y-2.2756
X4.6535Y-3.9016
X4.6575Y-2.5354
X4.7047Y-2.0276
X4.7126Y-2.7165
X4.7165Y-2.685
X4.7638Y-2.0512
X4.7835Y-3.6299
X4.7874Y-3.0315
X4.7874Y-3.7126
X4.8268Y-2.2244
X4.8465Y-3.9016
X4.8819Y-3.0315
X4.8858Y-3.937
X4.9213Y-3.7638
X4.9252Y-2.1181
X4.9252Y-2.4252
X4.9646Y-3.7638
X5.0Y-2.6969
X5.0Y-2.7756
X5.0Y-2.815
X5.0039Y-2.6535
X5.0118Y-3.0315
X5.0118Y-3.1181
X5.0748Y-2.8228
X5.1102Y-2.8504
X5.1181Y-3.4843
X5.1496Y-2.874
X5.1575Y-2.9134
X5.1614Y-3.0118
X5.1969Y-2.5
X5.2165Y-3.0315
X5.2323Y-2.7126
X5.2362Y-2.6772
X5.2441Y-3.8465
X5.2441Y-3.937
X5.2559Y-3.0315
X5.2638Y-2.7362
X5.2717Y-2.6181
X5.2756Y-3.7913
X5.2756Y-3.9803
X5.3268Y-2.5236
X5.3268Y-2.5827
X5.4134Y-2.5157
X5.4173Y-2.811
X5.4252Y-3.815
X5.4252Y-3.8583
X5.4252Y-3.9173
X5.4252Y-3.9528
X5.4567Y-2.5157
X5.4606Y-3.0236
X5.5394Y-3.3425
X5.5394Y-3.3937
X5.5551Y-3.0906
X5.5748Y-2.0787
X5.6102Y-1.7913
X5.6102Y-2.0079
X5.6102Y-3.0354
X5.6299Y-2.4252
X5.6693Y-3.0079
X5.6693Y-3.7008
X5.6732Y-2.2756
X5.7205Y-2.5866
X5.7402Y-3.5108
X5.748Y-2.126
X5.7677Y-2.6378
X5.7795Y-3.622
X5.7874Y-2.0472
X5.7874Y-2.689
X5.8071Y-3.4843
X5.8937Y-3.5118
X5.9528Y-3.6969
X5.9803Y-2.437
T2
X4.0069Y-1.8898
X4.0069Y-4.0551
X4.0441Y-1.8
X4.0441Y-1.9795
X4.0441Y-3.9653
X4.0441Y-4.1449
X4.1339Y-1.7628
X4.1339Y-2.0167
X4.1339Y-3.9281
X4.1339Y-4.1821
X4.2236Y-1.8
X4.2236Y-1.9795
X4.2236Y-3.9653
X4.2236Y-4.1449
X4.2608Y-1.8898
X4.2608Y-4.0551
X5.9754Y-1.8898
X5.9754Y-4.0551
X6.0126Y-1.8
X6.0126Y-1.9795
X6.0126Y-3.9653
X6.0126Y-4.1449
X6.1024Y-1.7628
X6.1024Y-2.0167
X6.1024Y-3.9281
X6.1024Y-4.1821
X6.1921Y-1.8
X6.1921Y-1.9795
X6.1921Y-3.9653
X6.1921Y-4.1449
X6.2293Y-1.8898
X6.2293Y-4.0551
T3
X4.0945Y-2.3953
X4.0945Y-2.4953
X4.0945Y-2.5953
X4.0945Y-2.6953
X4.0945Y-2.7953
X4.0945Y-2.9709
X4.0945Y-3.0709
X4.0945Y-3.1709
X4.0945Y-3.2709
X4.0945Y-3.4331
X4.0945Y-3.5331
X4.0945Y-3.6331
X4.0945Y-3.7331
X4.9882Y-1.811
X5.0882Y-1.811
X5.1882Y-1.811
X5.2882Y-1.811
X6.122Y-2.4181
X6.122Y-2.5181
X6.122Y-2.6181
X6.122Y-2.7181
X6.122Y-2.8181
X6.122Y-2.9874
X6.122Y-3.0874
X6.122Y-3.1874
X6.122Y-3.2874
T4
X4.1339Y-1.8898
X4.1339Y-4.0551
X6.1024Y-1.8898
X6.1024Y-4.0551
T2
G00X4.578Y-3.9811
M15
G01X4.578Y-4.0244
M16
G05
G00X4.578Y-4.1555
M15
G01X4.578Y-4.1791
M16
G05
G00X4.9181Y-3.9811
M15
G01X4.9181Y-4.0244
M16
G05
G00X4.9181Y-4.1555
M15
G01X4.9181Y-4.1791
M16
G05
M30
